<svg xmlns="http://www.w3.org/2000/svg" width="48" height="48" viewBox="0 0 48 48">
  <g id="Group_6718" data-name="Group 6718" transform="translate(-1308 -2860)">
    <rect id="Rectangle_1528" data-name="Rectangle 1528" width="48" height="48" transform="translate(1308 2860)" fill="#b85bcf" opacity="0"/>
    <path id="database_FILL0_wght400_GRAD0_opsz48" d="M142.5-795a39.2,39.2,0,0,1-15.969-2.906Q120-800.812,120-805v-25q0-4.125,6.594-7.062A38.933,38.933,0,0,1,142.5-840a38.933,38.933,0,0,1,15.906,2.938Q165-834.125,165-830v25q0,4.187-6.531,7.094A39.2,39.2,0,0,1,142.5-795Zm0-30.5a39.157,39.157,0,0,0,11.031-1.656q5.656-1.656,7.281-3.719-1.687-2-7.344-3.687A38.291,38.291,0,0,0,142.5-836.25a39.293,39.293,0,0,0-11.062,1.625q-5.562,1.625-7.312,3.75,1.75,2.187,7.25,3.781A39.784,39.784,0,0,0,142.5-825.5Zm-.062,13.375a49.246,49.246,0,0,0,5.25-.281,41.528,41.528,0,0,0,5.031-.844,38.065,38.065,0,0,0,4.594-1.375,26.608,26.608,0,0,0,3.938-1.812v-9.687a29.624,29.624,0,0,1-4,1.813,37.479,37.479,0,0,1-4.625,1.375,48.13,48.13,0,0,1-5,.875,42.818,42.818,0,0,1-5.187.313,44.378,44.378,0,0,1-5.25-.312,45.967,45.967,0,0,1-5.031-.875,36.481,36.481,0,0,1-4.562-1.375,24.437,24.437,0,0,1-3.844-1.812v9.688a24.962,24.962,0,0,0,3.813,1.813,34.96,34.96,0,0,0,4.531,1.375,41.528,41.528,0,0,0,5.031.844A49.833,49.833,0,0,0,142.438-812.125Zm.063,13.375a37.626,37.626,0,0,0,6.188-.531,39.408,39.408,0,0,0,5.844-1.406,24.271,24.271,0,0,0,4.5-1.937,4.537,4.537,0,0,0,2.219-2.187v-7.812a24.617,24.617,0,0,1-3.937,1.781,42.223,42.223,0,0,1-4.594,1.344,41.7,41.7,0,0,1-5,.844,48.96,48.96,0,0,1-5.281.281,49.833,49.833,0,0,1-5.312-.281,41.528,41.528,0,0,1-5.031-.844,38.565,38.565,0,0,1-4.531-1.344,23.115,23.115,0,0,1-3.812-1.781v7.875a4.38,4.38,0,0,0,2.125,2.156,20.814,20.814,0,0,0,4.5,1.938,43.529,43.529,0,0,0,5.875,1.375A37.985,37.985,0,0,0,142.5-798.75Z" transform="translate(1190 3702)" fill="#b85bcf"/>
  </g>
</svg>
