<svg xmlns="http://www.w3.org/2000/svg" width="48" height="48" viewBox="0 0 48 48">
  <g id="Group_6720" data-name="Group 6720" transform="translate(-1365 -2859)">
    <rect id="Rectangle_1529" data-name="Rectangle 1529" width="48" height="48" transform="translate(1365 2859)" fill="#ffb202" opacity="0"/>
    <path id="storefront_FILL0_wght400_GRAD0_opsz48" d="M121.552-821.633v19.4a3.294,3.294,0,0,1-1.03,2.4,3.294,3.294,0,0,1-2.4,1.03H83.732a3.294,3.294,0,0,1-2.4-1.03,3.294,3.294,0,0,1-1.03-2.4v-19.4a6.481,6.481,0,0,1-2.117-3.376,7.161,7.161,0,0,1,.114-4.005l2.46-7.724a4.5,4.5,0,0,1,1.6-2.4A4.269,4.269,0,0,1,84.991-840h31.641a4.593,4.593,0,0,1,2.8.887,4.518,4.518,0,0,1,1.659,2.375l2.518,7.724a6.989,6.989,0,0,1,.086,4.005A6.653,6.653,0,0,1,121.552-821.633ZM106.1-823.407a3.917,3.917,0,0,0,2.8-1.087,2.863,2.863,0,0,0,.915-2.632l-1.43-9.441h-5.722v9.441a3.839,3.839,0,0,0,.973,2.6A3.123,3.123,0,0,0,106.1-823.407Zm-10.7,0a3.749,3.749,0,0,0,2.718-1.087,3.539,3.539,0,0,0,1.116-2.632v-9.441H93.516l-1.43,9.441a2.99,2.99,0,0,0,.8,2.6A3.3,3.3,0,0,0,95.4-823.407Zm-10.414,0a3.345,3.345,0,0,0,2.375-.944,3.728,3.728,0,0,0,1.173-2.317l1.488-9.9H84.3l-2.632,8.354a3.6,3.6,0,0,0,.458,3.29A3.271,3.271,0,0,0,84.991-823.407Zm31.87,0a3.36,3.36,0,0,0,2.889-1.488,3.589,3.589,0,0,0,.486-3.319l-2.632-8.354h-5.722l1.488,9.9a3.728,3.728,0,0,0,1.173,2.317A3.276,3.276,0,0,0,116.861-823.407Zm-33.129,21.17h34.388v-17.795q.057.057-.372.057h-.887a6.351,6.351,0,0,1-2.718-.6,9.1,9.1,0,0,1-2.546-1.86,6.46,6.46,0,0,1-2.289,1.8,6.926,6.926,0,0,1-3.033.658,8.012,8.012,0,0,1-2.947-.486,7.075,7.075,0,0,1-2.375-1.631,5.52,5.52,0,0,1-2.174,1.573,7.732,7.732,0,0,1-2.975.544,7.476,7.476,0,0,1-3.147-.629,6.435,6.435,0,0,1-2.346-1.831,12.023,12.023,0,0,1-2.689,1.831,6.054,6.054,0,0,1-2.632.629h-.772a1.3,1.3,0,0,1-.486-.057Zm34.388,0h0Z" transform="translate(1288.05 3702)" fill="#ffb202"/>
  </g>
</svg>
