<svg xmlns="http://www.w3.org/2000/svg" width="500" height="400" viewBox="0 0 500 400">
  <g id="Group_6736" data-name="Group 6736" transform="translate(-726 -1331)">
    <rect id="Rectangle_1530" data-name="Rectangle 1530" width="500" height="400" rx="16" transform="translate(726 1331)" fill="#f5ecd8"/>
    <g id="Group_6731" data-name="Group 6731" transform="translate(0 -317)">
      <g id="Group_6721" data-name="Group 6721" transform="translate(-4104 -2377)">
        <rect id="Rectangle_1531" data-name="Rectangle 1531" width="364" height="80" rx="8" transform="translate(4898 4065)" fill="#f2cb67"/>
        <text id="Generative_AI" data-name="Generative AI" transform="translate(5080 4113.873)" fill="#111" font-size="24" font-family="Poppins-SemiBold, Poppins" font-weight="600"><tspan x="-82" y="0">Generative AI</tspan></text>
      </g>
      <g id="Group_6728" data-name="Group 6728" transform="translate(-4072 -2257)">
        <rect id="Rectangle_1531-2" data-name="Rectangle 1531" width="364" height="80" rx="8" transform="translate(4866 4065)" fill="#f2cb67"/>
        <text id="GTM_Ally_real-time_contacts" data-name="GTM Ally real-time contacts" transform="translate(5048 4113.873)" fill="#111" font-size="24" font-family="Poppins-SemiBold, Poppins" font-weight="600"><tspan x="-170" y="0">GTM Ally real-time contacts</tspan></text>
      </g>
      <g id="Group_6729" data-name="Group 6729" transform="translate(-4072 -2137)">
        <rect id="Rectangle_1531-3" data-name="Rectangle 1531" width="364" height="80" rx="8" transform="translate(4866 4065)" fill="#f2cb67"/>
        <text id="Intuitive_workflow" data-name="Intuitive workflow" transform="translate(5048 4113.873)" fill="#111" font-size="24" font-family="Poppins-SemiBold, Poppins" font-weight="600"><tspan x="-107" y="0">Intuitive workflow</tspan></text>
      </g>
      <g id="Group_6724" data-name="Group 6724" transform="translate(-4222 -2345)">
        <circle id="Ellipse_29" data-name="Ellipse 29" cx="16" cy="16" r="16" transform="translate(5182 4097)" fill="#f5ecd8"/>
        <path id="Path_3749" data-name="Path 3749" d="M5.353,0V5.353H0V9.318H5.353V14.67H9.317V9.318H14.67V5.353H9.317V0Z" transform="translate(5190.5 4105.5)" stroke="#f5ecd8" stroke-width="1"/>
      </g>
      <g id="Group_6730" data-name="Group 6730" transform="translate(-4222 -2225)">
        <circle id="Ellipse_29-2" data-name="Ellipse 29" cx="16" cy="16" r="16" transform="translate(5182 4097)" fill="#f5ecd8"/>
        <path id="Path_3749-2" data-name="Path 3749" d="M5.353,0V5.353H0V9.318H5.353V14.67H9.317V9.318H14.67V5.353H9.317V0Z" transform="translate(5190.5 4105.5)" stroke="#f5ecd8" stroke-width="1"/>
      </g>
    </g>
  </g>
</svg>
