<svg xmlns="http://www.w3.org/2000/svg" width="48" height="48" viewBox="0 0 48 48">
  <g id="Group_6719" data-name="Group 6719" transform="translate(-1225 -2860)">
    <rect id="Rectangle_1527" data-name="Rectangle 1527" width="48" height="48" transform="translate(1225 2860)" fill="#e01538" opacity="0"/>
    <path id="api_FILL0_wght400_GRAD0_opsz48" d="M62.5-892.131,57.131-897.5l5.369-5.369,5.369,5.369Zm-4.347-15.034-4.244-4.244L62.5-920l8.591,8.591-4.244,4.244L62.5-911.511Zm-9.562,18.256L40-897.5l8.591-8.591,4.244,4.244L48.489-897.5l4.347,4.347Zm27.818,0-4.244-4.244,4.347-4.347-4.347-4.347,4.244-4.244L85-897.5ZM62.5-875l-8.591-8.591,4.244-4.244,4.347,4.347,4.347-4.347,4.244,4.244Z" transform="translate(1186.5 3781.5)" fill="#e01538" stroke="#fff" stroke-width="1"/>
  </g>
</svg>
