<svg xmlns="http://www.w3.org/2000/svg" width="48" height="48" viewBox="0 0 48 48">
  <g id="demand" transform="translate(9620 332)">
    <rect id="Rectangle_1314" data-name="Rectangle 1314" width="48" height="48" transform="translate(-9620 -332)" fill="#e01538" opacity="0"/>
    <path id="lightbulb_FILL0_wght400_GRAD0_opsz48" d="M196.157-853a4.212,4.212,0,0,1-3.1-1.266,4.212,4.212,0,0,1-1.266-3.1h8.725a4.212,4.212,0,0,1-1.266,3.1A4.212,4.212,0,0,1,196.157-853Zm-8.725-7.7v-3.231h17.449v3.231Zm.269-6.516a17.672,17.672,0,0,1-5.628-5.79A14.993,14.993,0,0,1,180-880.843a15.529,15.529,0,0,1,4.793-11.364A15.529,15.529,0,0,1,196.157-897a15.529,15.529,0,0,1,11.364,4.793,15.529,15.529,0,0,1,4.793,11.364,15.145,15.145,0,0,1-2.046,7.836,17.237,17.237,0,0,1-5.655,5.79Zm1.185-3.231h14.595a12.551,12.551,0,0,0,4.093-4.47,12.114,12.114,0,0,0,1.508-5.924,12.446,12.446,0,0,0-3.8-9.129,12.446,12.446,0,0,0-9.129-3.8,12.446,12.446,0,0,0-9.129,3.8,12.446,12.446,0,0,0-3.8,9.129,12.114,12.114,0,0,0,1.508,5.924A12.38,12.38,0,0,0,188.886-870.449ZM196.157-870.449Z" transform="translate(-9792 567)" fill="#e01538"/>
  </g>
</svg>
