<svg xmlns="http://www.w3.org/2000/svg" width="48" height="48" viewBox="0 0 48 48">
  <g id="Enable" transform="translate(9417 332)">
    <rect id="Rectangle_1316" data-name="Rectangle 1316" width="48" height="48" transform="translate(-9417 -332)" fill="#06b4bb" opacity="0"/>
    <path id="monetization_on_FILL0_wght400_GRAD0_opsz48" d="M100.4-842.215h3.025v-2.86a9.191,9.191,0,0,0,5.225-2.062,5.725,5.725,0,0,0,1.87-4.482,6.536,6.536,0,0,0-1.6-4.565,15.337,15.337,0,0,0-5.39-3.355,23.6,23.6,0,0,1-4.62-2.365,3.3,3.3,0,0,1-1.43-2.8,3.267,3.267,0,0,1,1.238-2.7,5.27,5.27,0,0,1,3.383-.99,5.213,5.213,0,0,1,2.86.77,6.023,6.023,0,0,1,2.035,2.31l2.64-1.265a7.826,7.826,0,0,0-2.475-3.025,7.471,7.471,0,0,0-3.63-1.32v-2.8h-3.025v2.8a7.328,7.328,0,0,0-4.427,2.063,5.74,5.74,0,0,0-1.623,4.152,5.69,5.69,0,0,0,1.65,4.29,15.989,15.989,0,0,0,4.95,2.97,19.1,19.1,0,0,1,5.06,2.777,3.945,3.945,0,0,1,1.375,3.053,3.351,3.351,0,0,1-1.458,2.832,6.005,6.005,0,0,1-3.657,1.073,6.37,6.37,0,0,1-3.823-1.21,6.273,6.273,0,0,1-2.337-3.3l-2.805.935a11.517,11.517,0,0,0,2.832,3.988,10.247,10.247,0,0,0,4.153,2.117ZM102-836a21.288,21.288,0,0,1-8.525-1.732,22.315,22.315,0,0,1-7.012-4.73,22.315,22.315,0,0,1-4.73-7.013A21.287,21.287,0,0,1,80-858a21.423,21.423,0,0,1,1.732-8.58,21.986,21.986,0,0,1,4.73-6.985,22.552,22.552,0,0,1,7.012-4.7A21.286,21.286,0,0,1,102-880a21.421,21.421,0,0,1,8.58,1.733,22.216,22.216,0,0,1,6.985,4.7,22.217,22.217,0,0,1,4.7,6.985A21.423,21.423,0,0,1,124-858a21.287,21.287,0,0,1-1.732,8.525,22.552,22.552,0,0,1-4.7,7.013,21.987,21.987,0,0,1-6.985,4.73A21.423,21.423,0,0,1,102-836Zm0-3.3a17.994,17.994,0,0,0,13.255-5.473A18.067,18.067,0,0,0,120.7-858a18.04,18.04,0,0,0-5.445-13.255A18.04,18.04,0,0,0,102-876.7a18.067,18.067,0,0,0-13.228,5.445A17.994,17.994,0,0,0,83.3-858a18.021,18.021,0,0,0,5.472,13.227A18.021,18.021,0,0,0,102-839.3ZM102-858Z" transform="translate(-9495 550)" fill="#06b4bb"/>
  </g>
</svg>
