<svg xmlns="http://www.w3.org/2000/svg" width="48" height="48" viewBox="0 0 48 48">
  <g id="Post_Sales" data-name="Post Sales" transform="translate(9207 332)">
    <rect id="Rectangle_1318" data-name="Rectangle 1318" width="48" height="48" transform="translate(-9207 -332)" fill="coral" opacity="0"/>
    <path id="support_agent_FILL0_wght400_GRAD0_opsz48" d="M99.8-800.4v-3.3h18.7v-16.72a14.323,14.323,0,0,0-1.375-6.133,17.637,17.637,0,0,0-3.685-5.2,18.354,18.354,0,0,0-5.28-3.6A14.751,14.751,0,0,0,102-836.7a14.751,14.751,0,0,0-6.16,1.348,18.354,18.354,0,0,0-5.28,3.6,17.637,17.637,0,0,0-3.685,5.2A14.323,14.323,0,0,0,85.5-820.42V-807H84.4a4.237,4.237,0,0,1-3.108-1.292A4.237,4.237,0,0,1,80-811.4v-4.4a4.1,4.1,0,0,1,.605-2.227,4.831,4.831,0,0,1,1.6-1.568l.165-2.915a19.955,19.955,0,0,1,2.283-7.26,19.325,19.325,0,0,1,4.455-5.5,20.018,20.018,0,0,1,5.995-3.492A19.644,19.644,0,0,1,102-840a19.8,19.8,0,0,1,6.957,1.237,19.365,19.365,0,0,1,5.967,3.52,20.088,20.088,0,0,1,4.428,5.5,19.644,19.644,0,0,1,2.283,7.177l.165,2.86a3.934,3.934,0,0,1,1.6,1.457,3.9,3.9,0,0,1,.6,2.118v5.06a3.861,3.861,0,0,1-.6,2.145,4,4,0,0,1-1.6,1.43v3.795a3.178,3.178,0,0,1-.969,2.331,3.178,3.178,0,0,1-2.331.969Zm-4.4-15.95a1.583,1.583,0,0,1-1.155-.495,1.614,1.614,0,0,1-.5-1.182,1.525,1.525,0,0,1,.5-1.155,1.662,1.662,0,0,1,1.182-.467,1.558,1.558,0,0,1,1.155.474A1.609,1.609,0,0,1,97.05-818a1.617,1.617,0,0,1-.474,1.155A1.563,1.563,0,0,1,95.4-816.35Zm13.2,0a1.583,1.583,0,0,1-1.155-.495,1.614,1.614,0,0,1-.5-1.182,1.525,1.525,0,0,1,.5-1.155,1.662,1.662,0,0,1,1.182-.467,1.558,1.558,0,0,1,1.155.474A1.609,1.609,0,0,1,110.25-818a1.617,1.617,0,0,1-.474,1.155A1.563,1.563,0,0,1,108.6-816.35Zm-19.745-2.86a12.615,12.615,0,0,1,.908-5.885,13.613,13.613,0,0,1,3.025-4.482,13.311,13.311,0,0,1,4.372-2.833,13.242,13.242,0,0,1,4.95-.99,11.91,11.91,0,0,1,8.415,3.162,13.387,13.387,0,0,1,4.18,7.893,15.906,15.906,0,0,1-9.1-2.778,18.3,18.3,0,0,1-6.077-7.068,17.565,17.565,0,0,1-3.713,7.893A17.115,17.115,0,0,1,88.855-819.21Z" transform="translate(-9285 512)" fill="coral"/>
  </g>
</svg>
