<svg xmlns="http://www.w3.org/2000/svg" width="48" height="48" viewBox="0 0 48 48">
  <g id="Pre_Sale" data-name="Pre Sale" transform="translate(9521 332)">
    <rect id="Rectangle_1315" data-name="Rectangle 1315" width="48" height="48" transform="translate(-9521 -332)" fill="#ffb202" opacity="0"/>
    <path id="person_search_FILL0_wght400_GRAD0_opsz48" d="M137.2-783.9a7.778,7.778,0,0,1-5.715-2.364,7.756,7.756,0,0,1-2.361-5.685,7.722,7.722,0,0,1,2.364-5.715A7.8,7.8,0,0,1,137.171-800a7.772,7.772,0,0,1,5.715,2.334,7.74,7.74,0,0,1,2.334,5.688,7.829,7.829,0,0,1-2.334,5.715A7.7,7.7,0,0,1,137.2-783.9Zm-.027-3.219a4.628,4.628,0,0,0,3.434-1.419,4.69,4.69,0,0,0,1.4-3.411,4.667,4.667,0,0,0-1.4-3.434,4.636,4.636,0,0,0-3.407-1.4,4.725,4.725,0,0,0-3.434,1.4,4.591,4.591,0,0,0-1.422,3.407,4.684,4.684,0,0,0,1.419,3.434A4.645,4.645,0,0,0,137.171-787.122Zm24.576,28.976-7.512-7.512a7.538,7.538,0,0,1-2.549,1.261,10.43,10.43,0,0,1-2.686.349,8.828,8.828,0,0,1-6.478-2.662,8.8,8.8,0,0,1-2.667-6.466,8.782,8.782,0,0,1,2.662-6.459,8.813,8.813,0,0,1,6.466-2.656,8.774,8.774,0,0,1,6.46,2.667,8.839,8.839,0,0,1,2.656,6.478,10.432,10.432,0,0,1-.349,2.686,7.538,7.538,0,0,1-1.261,2.549L164-760.4Zm-12.771-9.122a5.717,5.717,0,0,0,4.212-1.69,5.717,5.717,0,0,0,1.69-4.212,5.717,5.717,0,0,0-1.69-4.212,5.717,5.717,0,0,0-4.212-1.69,5.717,5.717,0,0,0-4.212,1.69,5.717,5.717,0,0,0-1.69,4.212,5.717,5.717,0,0,0,1.69,4.212A5.717,5.717,0,0,0,148.976-767.268ZM120-765.659V-770.7a5.913,5.913,0,0,1,.939-3.38,7.084,7.084,0,0,1,2.71-2.307,37.817,37.817,0,0,1,6.573-2.334,25.092,25.092,0,0,1,8.237-.832,13.579,13.579,0,0,0-.8,1.529,10.653,10.653,0,0,0-.59,1.637,22.038,22.038,0,0,0-7.3.993,39.3,39.3,0,0,0-4.829,1.9,3.628,3.628,0,0,0-1.234,1.154,2.884,2.884,0,0,0-.483,1.637v1.824h13.844q.59.912,1.073,1.69a16.905,16.905,0,0,0,1.073,1.529ZM137.171-791.951ZM137.063-768.878Z" transform="translate(-9639 471)" fill="#ffb202"/>
  </g>
</svg>
