<svg xmlns="http://www.w3.org/2000/svg" width="48" height="48" viewBox="0 0 48 48">
  <g id="Sales_Closer" data-name="Sales Closer" transform="translate(9312 332)">
    <rect id="Rectangle_1317" data-name="Rectangle 1317" width="48" height="48" transform="translate(-9312 -332)" fill="#22b10d" opacity="0"/>
    <path id="handshake_FILL0_wght400_GRAD0_opsz48" d="M61.75-842.05a1.633,1.633,0,0,0,.575-.125,1.484,1.484,0,0,0,.525-.325L79.7-859.4a4.278,4.278,0,0,0,.975-1.483A4.558,4.558,0,0,0,81-862.55a4.73,4.73,0,0,0-.325-1.7,4.242,4.242,0,0,0-.975-1.5l-9-9a4.242,4.242,0,0,0-1.5-.975,4.732,4.732,0,0,0-1.7-.325,4.559,4.559,0,0,0-1.667.325,4.277,4.277,0,0,0-1.483.975l-.9.9,4.05,4.1a7.878,7.878,0,0,1,1.15,1.625,4.19,4.19,0,0,1,.5,2.025,4.564,4.564,0,0,1-1.475,3.35A4.683,4.683,0,0,1,64.3-861.3a5.021,5.021,0,0,1-2.075-.375,5.063,5.063,0,0,1-1.509-1.067L57.05-866.4,48-857.35a1.446,1.446,0,0,0-.35.526,1.727,1.727,0,0,0-.1.592,1.434,1.434,0,0,0,.425,1.057,1.437,1.437,0,0,0,1.058.425,1.217,1.217,0,0,0,.592-.15,2.065,2.065,0,0,0,.475-.35l6.9-6.9,2.1,2.1-6.85,6.85a1.4,1.4,0,0,0-.35.55,1.887,1.887,0,0,0-.1.6,1.439,1.439,0,0,0,.45,1.05,1.439,1.439,0,0,0,1.05.45,1.374,1.374,0,0,0,.575-.125A1.6,1.6,0,0,0,54.35-851l6.9-6.9,2.1,2.1-6.85,6.85a1.5,1.5,0,0,0-.325.517,1.714,1.714,0,0,0-.125.633,1.439,1.439,0,0,0,.45,1.05,1.439,1.439,0,0,0,1.05.45,1.468,1.468,0,0,0,.55-.1,1.522,1.522,0,0,0,.5-.35l6.9-6.9,2.1,2.1-6.9,6.9a1.4,1.4,0,0,0-.35.55,1.752,1.752,0,0,0-.1.55,1.486,1.486,0,0,0,.4,1.1A1.486,1.486,0,0,0,61.75-842.05Zm0,3a4.191,4.191,0,0,1-2.953-1.225,4.981,4.981,0,0,1-1.55-3.031A4.9,4.9,0,0,1,54.4-844.7a4.93,4.93,0,0,1-1.4-2.85,4.748,4.748,0,0,1-2.825-1.425A5.086,5.086,0,0,1,48.8-851.8a5.024,5.024,0,0,1-3.05-1.5,4.178,4.178,0,0,1-1.2-3,4.611,4.611,0,0,1,.336-1.7,4.484,4.484,0,0,1,.964-1.5l11.2-11.2,5.5,5.5a3.177,3.177,0,0,0,.867.625,2.133,2.133,0,0,0,.933.225,1.72,1.72,0,0,0,1.225-.575,1.727,1.727,0,0,0,.575-1.233,1.611,1.611,0,0,0-.175-.667,2.811,2.811,0,0,0-.575-.775l-7.15-7.15a4.242,4.242,0,0,0-1.5-.975,4.732,4.732,0,0,0-1.7-.325,4.559,4.559,0,0,0-1.667.325,4.3,4.3,0,0,0-1.48.968l-7.6,7.607a3.989,3.989,0,0,0-.975,1.475,6.167,6.167,0,0,0-.325,1.75,4,4,0,0,0,.375,1.9A8.042,8.042,0,0,0,44.4-860.35l-2.15,2.15a8.768,8.768,0,0,1-1.625-2.65A8.357,8.357,0,0,1,40-864a7.378,7.378,0,0,1,.575-2.875A7.474,7.474,0,0,1,42.2-869.3l7.55-7.55a6.987,6.987,0,0,1,2.49-1.625A8,8,0,0,1,55.09-879a7.885,7.885,0,0,1,2.835.525A7.018,7.018,0,0,1,60.4-876.85l.9.9.9-.9a6.987,6.987,0,0,1,2.49-1.625A8,8,0,0,1,67.54-879a7.885,7.885,0,0,1,2.835.525,7.018,7.018,0,0,1,2.475,1.625l8.95,8.95a7.26,7.26,0,0,1,1.65,2.5,7.743,7.743,0,0,1,.55,2.85,7.539,7.539,0,0,1-.55,2.823,7.327,7.327,0,0,1-1.65,2.475L64.95-840.4a4.62,4.62,0,0,1-1.477,1A4.369,4.369,0,0,1,61.753-839.05ZM56.85-866.35Z" transform="translate(-9350 551)" fill="#22b10d"/>
  </g>
</svg>
