<svg xmlns="http://www.w3.org/2000/svg" width="48" height="48" viewBox="0 0 48 48">
  <g id="content_cate" data-name="content cate" transform="translate(7406 -5356)">
    <rect id="Rectangle_1477" data-name="Rectangle 1477" width="48" height="48" transform="translate(-7406 5356)" fill="#e01538" opacity="0"/>
    <path id="category_FILL0_wght400_GRAD0_opsz48" d="M127.931-860.088,140.306-880l12.375,19.912ZM152.963-835a9.472,9.472,0,0,1-6.975-2.812,9.472,9.472,0,0,1-2.812-6.975,9.471,9.471,0,0,1,2.812-6.975,9.471,9.471,0,0,1,6.975-2.812,9.471,9.471,0,0,1,6.975,2.813,9.471,9.471,0,0,1,2.813,6.975,9.472,9.472,0,0,1-2.812,6.975A9.471,9.471,0,0,1,152.963-835ZM120-836.406v-17.1h17.1v17.1Zm32.967-1.969a6.181,6.181,0,0,0,4.551-1.861,6.2,6.2,0,0,0,1.856-4.556,6.181,6.181,0,0,0-1.861-4.551,6.2,6.2,0,0,0-4.556-1.856,6.181,6.181,0,0,0-4.551,1.861,6.2,6.2,0,0,0-1.856,4.556,6.181,6.181,0,0,0,1.861,4.551,6.2,6.2,0,0,0,4.556,1.856Zm-29.592-1.406h10.35v-10.35h-10.35Zm10.631-23.681h12.6l-6.3-10.181ZM140.306-863.463ZM133.725-850.131ZM152.963-844.787Z" transform="translate(-7523 6238)" fill="#e01538"/>
  </g>
</svg>
