<svg xmlns="http://www.w3.org/2000/svg" width="48" height="48" viewBox="0 0 48 48">
  <g id="Ct" transform="translate(7043 -5015)">
    <rect id="Rectangle_1479" data-name="Rectangle 1479" width="48" height="48" transform="translate(-7043 5015)" fill="#06b4bb" opacity="0"/>
    <path id="edit_document_FILL0_wght400_GRAD0_opsz48" d="M163.375-835a3.238,3.238,0,0,1-2.362-1.013A3.238,3.238,0,0,1,160-838.375v-38.25a3.238,3.238,0,0,1,1.012-2.362A3.238,3.238,0,0,1,163.375-880H182.5L196-866.5v8.775h-3.375v-6.525H180.25v-12.375H163.375v38.25H180.25V-835Zm0-3.375v0Zm30.15-12.544,1.575,1.575-9.225,9.225v2.869h2.869l9.225-9.225,1.575,1.575-9.9,9.9h-6.019v-6.019Zm6.019,6.019-6.019-6.019,3.431-3.431a1.619,1.619,0,0,1,1.181-.506,1.619,1.619,0,0,1,1.181.506l3.656,3.656a1.619,1.619,0,0,1,.506,1.181,1.619,1.619,0,0,1-.506,1.181Z" transform="translate(-7201 5897)" fill="#06b4bb"/>
  </g>
</svg>
