<svg xmlns="http://www.w3.org/2000/svg" width="48" height="48" viewBox="0 0 48 48">
  <g id="Languages" transform="translate(7237 -5286)">
    <rect id="Rectangle_1478" data-name="Rectangle 1478" width="48" height="48" transform="translate(-7237 5286)" fill="coral" opacity="0"/>
    <path id="language_FILL0_wght400_GRAD0_opsz48_1_" data-name="language_FILL0_wght400_GRAD0_opsz48 (1)" d="M102.5-835a22.05,22.05,0,0,1-8.831-1.772,22.723,22.723,0,0,1-7.144-4.809,22.256,22.256,0,0,1-4.781-7.172A22.561,22.561,0,0,1,80-857.612a22.154,22.154,0,0,1,1.744-8.8,22.419,22.419,0,0,1,4.781-7.116,21.959,21.959,0,0,1,7.144-4.753A22.675,22.675,0,0,1,102.5-880a22.675,22.675,0,0,1,8.831,1.716,21.959,21.959,0,0,1,7.144,4.753,22.419,22.419,0,0,1,4.781,7.116,22.154,22.154,0,0,1,1.744,8.8,22.561,22.561,0,0,1-1.744,8.859,22.256,22.256,0,0,1-4.781,7.172,22.723,22.723,0,0,1-7.144,4.809A22.05,22.05,0,0,1,102.5-835Zm0-3.263a18.721,18.721,0,0,0,3.291-4.641,27.938,27.938,0,0,0,2.166-6.216H97.1a28.527,28.527,0,0,0,2.109,6.075A19.17,19.17,0,0,0,102.5-838.263Zm-4.781-.675A26.893,26.893,0,0,1,95.3-843.55a33.7,33.7,0,0,1-1.687-5.569H85.175a20.173,20.173,0,0,0,4.95,6.272A24.716,24.716,0,0,0,97.719-838.937Zm9.619-.056a22.522,22.522,0,0,0,7.284-3.881,20.146,20.146,0,0,0,5.2-6.244h-8.381a40.744,40.744,0,0,1-1.716,5.513A25.532,25.532,0,0,1,107.338-838.994Zm-23.287-13.5h8.944q-.169-1.519-.2-2.728t-.028-2.391q0-1.406.056-2.5t.225-2.447h-9a16.4,16.4,0,0,0-.534,2.419,19.711,19.711,0,0,0-.141,2.531A21.794,21.794,0,0,0,83.516-855,15.855,15.855,0,0,0,84.05-852.494Zm12.431,0h12.094q.225-1.744.281-2.841t.056-2.278q0-1.125-.056-2.166t-.281-2.784H96.481q-.225,1.744-.281,2.784t-.056,2.166q0,1.181.056,2.278T96.481-852.494Zm15.469,0h9a15.855,15.855,0,0,0,.534-2.5,21.794,21.794,0,0,0,.141-2.616,19.711,19.711,0,0,0-.141-2.531,16.4,16.4,0,0,0-.534-2.419h-8.944q.169,1.969.225,3.009t.056,1.941q0,1.238-.084,2.334T111.95-852.494Zm-.562-13.444h8.438a18.225,18.225,0,0,0-5.091-6.469,19.4,19.4,0,0,0-7.453-3.656,24.518,24.518,0,0,1,2.391,4.5A36.584,36.584,0,0,1,111.387-865.937Zm-14.287,0h10.912a21.94,21.94,0,0,0-2.081-5.766,23.01,23.01,0,0,0-3.431-4.922,12.369,12.369,0,0,0-3.037,3.994A36.318,36.318,0,0,0,97.1-865.937Zm-11.925,0h8.494a31.661,31.661,0,0,1,1.575-5.428,26.7,26.7,0,0,1,2.419-4.641,19.074,19.074,0,0,0-7.369,3.6A19.129,19.129,0,0,0,85.175-865.937Z" transform="translate(-7315 6168)" fill="coral"/>
  </g>
</svg>
