<svg xmlns="http://www.w3.org/2000/svg" width="48" height="48" viewBox="0 0 48 48">
  <g id="PA" transform="translate(7004 -5262)">
    <rect id="Rectangle_1480" data-name="Rectangle 1480" width="48" height="48" transform="translate(-7004 5262)" fill="#b75acf" opacity="0"/>
    <g id="Group_6584" data-name="Group 6584" transform="translate(-7004.254 5262.754)">
      <path id="Path_3669" data-name="Path 3669" d="M15.576,17.727A6.326,6.326,0,1,0,21.9,24.052a6.211,6.211,0,0,0-.828-3.059L32.9,9.17a1.725,1.725,0,0,0-2.438-2.438L18.635,18.555A6.28,6.28,0,0,0,15.576,17.727Zm0,9.2a2.875,2.875,0,1,1,2.875-2.875A2.875,2.875,0,0,1,15.576,26.928Z" transform="translate(9.097 2.63)" fill="#b75acf"/>
      <path id="Path_3670" data-name="Path 3670" d="M45.811,19.207a1.7,1.7,0,0,0-2.3-1.058,1.725,1.725,0,0,0-1.058,2.3,19.046,19.046,0,0,1,1.2,6.234A18.7,18.7,0,0,1,41.924,34.6a7.338,7.338,0,0,1-6.717,4.163H14.114a7.269,7.269,0,0,1-6.648-4.071A18.54,18.54,0,0,1,5.719,27.4a19.184,19.184,0,0,1,18.4-19.69,19.276,19.276,0,0,1,6.9,1.081,1.731,1.731,0,1,0,1.15-3.266,23,23,0,0,0-8.212-1.265,22.243,22.243,0,0,0-15.6,7.177A22.266,22.266,0,0,0,4.338,36.159a10.765,10.765,0,0,0,9.776,6.05H35.207a10.811,10.811,0,0,0,9.868-6.188,22.45,22.45,0,0,0,.736-16.815Z" transform="translate(0 0)" fill="#b75acf"/>
    </g>
  </g>
</svg>
