<svg xmlns="http://www.w3.org/2000/svg" width="48" height="48" viewBox="0 0 48 48">
  <g id="Response_Suggestion" data-name="Response Suggestion" transform="translate(7358 -5203)">
    <rect id="Rectangle_1474" data-name="Rectangle 1474" width="48" height="48" transform="translate(-7358 5203)" fill="#ffb202" opacity="0"/>
    <path id="chat_FILL0_wght400_GRAD0_opsz48_1_" data-name="chat_FILL0_wght400_GRAD0_opsz48 (1)" d="M89-852.944h17.606v-3.375H89Zm0-7.312h27v-3.375H89Zm0-7.312h27v-3.375H89ZM80-835v-41.625a3.238,3.238,0,0,1,1.012-2.362A3.238,3.238,0,0,1,83.375-880h38.25a3.238,3.238,0,0,1,2.363,1.013A3.238,3.238,0,0,1,125-876.625v29.25a3.238,3.238,0,0,1-1.013,2.362A3.238,3.238,0,0,1,121.625-844H89Zm7.537-12.375h34.088v-29.25H83.375v33.75Zm-4.162,0v0Z" transform="translate(-7436 6084)" fill="#ffb202"/>
  </g>
</svg>
