<svg xmlns="http://www.w3.org/2000/svg" width="48" height="48" viewBox="0 0 48 48">
  <g id="Security" transform="translate(7313 -5327)">
    <rect id="Rectangle_1441" data-name="Rectangle 1441" width="48" height="48" transform="translate(-7313 5327)" fill="#22b10d" opacity="0"/>
    <path id="shield_FILL0_wght400_GRAD0_opsz48" d="M178-836a22.089,22.089,0,0,1-12.938-9.141A26.679,26.679,0,0,1,160-860.863V-874.25L178-881l18,6.75v13.387a26.679,26.679,0,0,1-5.062,15.722A22.089,22.089,0,0,1,178-836Zm0-3.488a20.292,20.292,0,0,0,10.547-8.072,22.95,22.95,0,0,0,4.078-13.3v-11.025L178-877.4l-14.625,5.512v11.025a22.95,22.95,0,0,0,4.078,13.3A20.292,20.292,0,0,0,178-839.488ZM178-858.444Z" transform="translate(-7467 6210)" fill="#22b10d"/>
  </g>
</svg>
