<svg xmlns="http://www.w3.org/2000/svg" width="48.21" height="48" viewBox="0 0 48.21 48">
  <g id="Work_Flow" data-name="Work Flow" transform="translate(7108.105 -5281)">
    <rect id="Rectangle_1481" data-name="Rectangle 1481" width="48" height="48" transform="translate(-7108 5281)" fill="#ffb202" opacity="0"/>
    <g id="_10_work_flow" data-name="10 work flow" transform="translate(-7110 5281.62)">
      <path id="Path_3668" data-name="Path 3668" d="M44.856,27.905V24.237a1.714,1.714,0,0,0-1.714-1.714H27.714V17.38h5.143a1.714,1.714,0,0,0,1.714-1.714V7.094A1.714,1.714,0,0,0,32.857,5.38H19.143a1.714,1.714,0,0,0-1.714,1.714v8.571a1.714,1.714,0,0,0,1.714,1.714h5.143v5.143H8.857a1.714,1.714,0,0,0-1.714,1.714v3.668a6.857,6.857,0,1,0,3.429,0V25.951H24.285v2.143H20.857a1.714,1.714,0,0,0-1.714,1.714V40.094a1.714,1.714,0,0,0,1.714,1.714H31.142a1.714,1.714,0,0,0,1.714-1.714V29.808a1.714,1.714,0,0,0-1.714-1.714H27.714V25.951H41.428v1.954a6.857,6.857,0,1,0,3.429,0Zm-24-19.1H31.142v5.143H20.857ZM12.286,34.522a3.428,3.428,0,1,1-3.428-3.428,3.428,3.428,0,0,1,3.428,3.428Zm17.142,3.857H22.571V31.522h6.857Zm13.714-.429a3.428,3.428,0,1,1,3.429-3.428A3.428,3.428,0,0,1,43.142,37.951Z" fill="#ffb202" stroke="#fff" stroke-width="0.2"/>
    </g>
  </g>
</svg>
