<svg xmlns="http://www.w3.org/2000/svg" width="48" height="48" viewBox="0 0 48 48">
  <g id="CJM" transform="translate(-1709 50)">
    <rect id="Rectangle_1516" data-name="Rectangle 1516" width="48" height="48" transform="translate(1709 -50)" fill="#fff" opacity="0"/>
    <path id="Path_3739" data-name="Path 3739" d="M47.9,38.175l1.19-2.978a1.233,1.233,0,0,0-1.137-1.68H40.605a1.222,1.222,0,0,0-2.441.089V48.444a1.225,1.225,0,0,0,2.45,0V42.832h7.335a1.233,1.233,0,0,0,1.137-1.68Zm-2.457.455.7,1.752H40.614V35.968H46.14C45.914,36.7,45.1,37.984,45.439,38.63ZM12.691,29.645H37.868c11.249-.461,11.262-16.5,0-16.971H24.412A9.808,9.808,0,0,0,14.7,4.1C5,4.144,1.3,16.753,9.271,22.052a9.791,9.791,0,0,0,15.141-6.928H37.868a6.035,6.035,0,1,1,0,12.071H12.691c-10.331.424-10.342,15.157,0,15.586H30.929l-1.951,1.951a1.225,1.225,0,1,0,1.732,1.732l4.042-4.042a1.232,1.232,0,0,0,0-1.732L30.71,36.648a1.225,1.225,0,0,0-1.732,1.732l1.951,1.951H12.691C5.625,40.082,5.616,29.9,12.691,29.645Zm2.007-8.4a7.294,7.294,0,0,1-3.109-.7,3.568,3.568,0,0,1,6.217,0A7.294,7.294,0,0,1,14.7,21.249Zm-.006-6.228a1.88,1.88,0,0,1,.005-3.759A1.88,1.88,0,0,1,14.692,15.021Zm5.132,4.135a6.146,6.146,0,0,0-2.8-2.384,4.318,4.318,0,1,0-4.641,0,6.144,6.144,0,0,0-2.807,2.385,7.345,7.345,0,1,1,10.252,0Z" transform="translate(1705.573 -52.6)" fill="#fe7f51" stroke="#fe7f51" stroke-width="0.4"/>
  </g>
</svg>
