<svg xmlns="http://www.w3.org/2000/svg" width="48" height="48" viewBox="0 0 48 48">
  <g id="Contetn_Repository" data-name="Contetn Repository" transform="translate(-1414 52)">
    <rect id="Rectangle_1512" data-name="Rectangle 1512" width="48" height="48" transform="translate(1414 -52)" fill="#fff" opacity="0"/>
    <path id="folder_FILL0_wght400_GRAD0_opsz48" d="M83.6-761.6a3.409,3.409,0,0,1-2.52-1.11A3.488,3.488,0,0,1,80-765.2v-31.2a3.488,3.488,0,0,1,1.08-2.49A3.409,3.409,0,0,1,83.6-800H98.96a3.473,3.473,0,0,1,1.423.3,3.8,3.8,0,0,1,1.162.785l2.515,2.515H124.4a3.443,3.443,0,0,1,2.49,1.11A3.443,3.443,0,0,1,128-792.8v27.6a3.443,3.443,0,0,1-1.11,2.49,3.443,3.443,0,0,1-2.49,1.11Zm0-3.6h40.8v-27.6H102.56l-3.6-3.6H83.6Zm0,0v0Z" transform="translate(1334 753)" fill="#b85bcf"/>
  </g>
</svg>
