<svg xmlns="http://www.w3.org/2000/svg" width="48" height="48" viewBox="0 0 48 48">
  <g id="Content_Performance" data-name="Content Performance" transform="translate(6729 -3779)">
    <rect id="Rectangle_1496" data-name="Rectangle 1496" width="48" height="48" transform="translate(-6729 3779)" fill="#06b4bb" opacity="0"/>
    <g id="Group_6607" data-name="Group 6607" transform="translate(800.208 -5.972)">
      <path id="computer_FILL0_wght400_GRAD0_opsz48" d="M41.525-803.394a1.471,1.471,0,0,1-1.087-.441A1.489,1.489,0,0,1,40-804.928a1.46,1.46,0,0,1,.439-1.084,1.487,1.487,0,0,1,1.087-.432H83.216A1.472,1.472,0,0,1,84.3-806a1.489,1.489,0,0,1,.439,1.093,1.46,1.46,0,0,1-.439,1.084,1.487,1.487,0,0,1-1.087.432Zm3.559-6.1a2.927,2.927,0,0,1-2.135-.915,2.927,2.927,0,0,1-.915-2.135v-24.4a2.927,2.927,0,0,1,.915-2.135A2.927,2.927,0,0,1,45.084-840H79.657a2.927,2.927,0,0,1,2.135.915,2.927,2.927,0,0,1,.915,2.135v24.4a2.927,2.927,0,0,1-.915,2.135,2.927,2.927,0,0,1-2.135.915Zm0-3.051H79.657v-24.4H45.084Zm0,0v0Z" transform="translate(-7567.208 4630.972)" fill="#06b4bb"/>
      <path id="timeline_FILL0_wght400_GRAD0_opsz48" d="M42.329-704.013a2.238,2.238,0,0,1-1.646-.686A2.253,2.253,0,0,1,40-706.347a2.243,2.243,0,0,1,.683-1.646,2.237,2.237,0,0,1,1.641-.683q.174,0,.341.017a3.193,3.193,0,0,1,.433.083l6.661-6.661a3.174,3.174,0,0,1-.083-.433q-.017-.167-.017-.341a2.232,2.232,0,0,1,.686-1.641,2.253,2.253,0,0,1,1.649-.683,2.236,2.236,0,0,1,1.646.687A2.26,2.26,0,0,1,54.322-716q0,.058-.1.758l3.664,3.664a3.174,3.174,0,0,1,.433-.083q.167-.017.333-.017t.333.017a3.174,3.174,0,0,1,.433.083l5.329-5.329a3.177,3.177,0,0,1-.083-.433q-.017-.167-.017-.341a2.232,2.232,0,0,1,.686-1.641A2.253,2.253,0,0,1,66.981-720a2.238,2.238,0,0,1,1.646.686,2.253,2.253,0,0,1,.683,1.649,2.243,2.243,0,0,1-.683,1.646,2.237,2.237,0,0,1-1.641.683q-.174,0-.341-.017a3.174,3.174,0,0,1-.433-.083l-5.329,5.329a3.171,3.171,0,0,1,.083.433q.017.166.017.341a2.232,2.232,0,0,1-.686,1.641,2.253,2.253,0,0,1-1.649.683A2.243,2.243,0,0,1,57-707.693a2.237,2.237,0,0,1-.683-1.641q0-.174.017-.341a3.174,3.174,0,0,1,.083-.433l-3.664-3.664a3.172,3.172,0,0,1-.433.083q-.167.017-.341.017-.058,0-.758-.1l-6.661,6.661a3.175,3.175,0,0,1,.083.433q.017.166.017.341a2.232,2.232,0,0,1-.686,1.641A2.253,2.253,0,0,1,42.329-704.013Z" transform="translate(-7559.492 4518.978)" fill="#06b4bb"/>
    </g>
  </g>
</svg>
