<svg xmlns="http://www.w3.org/2000/svg" xmlns:xlink="http://www.w3.org/1999/xlink" width="48" height="48" viewBox="0 0 48 48">
  <defs>
    <clipPath id="clip-path">
      <rect id="Rectangle_1511" data-name="Rectangle 1511" width="44.136" height="44.13" fill="#ffb202" stroke="#ffb202" stroke-width="0.6"/>
    </clipPath>
  </defs>
  <g id="path_improvement" data-name="path improvement" transform="translate(-1790 54)">
    <rect id="Rectangle_1517" data-name="Rectangle 1517" width="48" height="48" transform="translate(1790 -54)" fill="#fff" opacity="0"/>
    <g id="Group_6675" data-name="Group 6675" transform="translate(1792 -52)">
      <g id="Group_6674" data-name="Group 6674" transform="translate(0 0)" clip-path="url(#clip-path)">
        <path id="Path_3740" data-name="Path 3740" d="M1.355,0A1.377,1.377,0,0,0,0,1.4V42.745A1.376,1.376,0,0,0,1.375,44.13H42.724a1.378,1.378,0,1,0,.063-2.756H2.756V1.4A1.379,1.379,0,0,0,1.4,0H1.355M37.811,20.76l-.083.01H31.205a1.378,1.378,0,0,0,0,2.756H34.56l-9.237,9.362L17.478,27.3a1.369,1.369,0,0,0-1.662.052L5.626,35.717a1.379,1.379,0,0,0,1.651,2.209l.1-.083,9.362-7.695,7.945,5.668a1.379,1.379,0,0,0,1.782-.161L36.478,25.506V28.8a1.378,1.378,0,1,0,2.745.245.962.962,0,0,0,0-.245V22.333a1.372,1.372,0,0,0-1.167-1.558A.954.954,0,0,0,37.811,20.76Z" transform="translate(0 0.001)" fill="#ffb202" stroke="#ffb202" stroke-width="0.6"/>
      </g>
    </g>
  </g>
</svg>
