<svg xmlns="http://www.w3.org/2000/svg" width="48" height="48" viewBox="0 0 48 48">
  <g id="Personalization_Engine" data-name="Personalization Engine" transform="translate(-1487 52)">
    <rect id="Rectangle_1513" data-name="Rectangle 1513" width="48" height="48" transform="translate(1487 -52)" fill="#fff" opacity="0"/>
    <g id="Group_6663" data-name="Group 6663" transform="translate(1490 -50)">
      <g id="Group_6662" data-name="Group 6662" transform="translate(0 0)">
        <path id="Path_3723" data-name="Path 3723" d="M97.447,176.165a.852.852,0,0,0-1.635.481,20.025,20.025,0,0,1-32.98,20.206l2.441-.488a.852.852,0,0,0-.334-1.671l-4.26.852a.852.852,0,0,0-.685.835v4.26a.852.852,0,0,0,1.7,0v-2.517a21.728,21.728,0,0,0,35.749-21.959Z" transform="translate(-54.882 -160.596)" fill="#e01538" stroke="#e01538" stroke-width="1.5"/>
        <path id="Path_3724" data-name="Path 3724" d="M7.568,7.568A20.046,20.046,0,0,1,35.5,7.2l-2.441.488a.852.852,0,1,0,.334,1.671l4.26-.852a.852.852,0,0,0,.685-.835V3.408a.852.852,0,0,0-1.7,0V5.925A21.731,21.731,0,0,0,.674,16.342a21.842,21.842,0,0,0,.1,11.147.852.852,0,1,0,1.643-.45A20.081,20.081,0,0,1,7.568,7.568Z" transform="translate(0 0)" fill="#e01538" stroke="#e01538" stroke-width="1.5"/>
        <path id="Path_3725" data-name="Path 3725" d="M117.775,105a12.775,12.775,0,0,0-10.938,19.384.848.848,0,0,0,.1.161,12.769,12.769,0,0,0,21.144.784.849.849,0,0,0,.115-.157A12.774,12.774,0,0,0,117.775,105Zm0,23.856a11.074,11.074,0,0,1-9.171-4.872,10.225,10.225,0,0,1,17.857.66A11.062,11.062,0,0,1,117.775,128.856Zm0-11.5a3.408,3.408,0,1,1,3.408-3.408A3.412,3.412,0,0,1,117.775,117.354Zm9.742,5.692a11.963,11.963,0,0,0-6.536-5.122,5.112,5.112,0,1,0-6.631-.186,11.92,11.92,0,0,0-6.681,4.574,11.077,11.077,0,1,1,19.848.735Z" transform="translate(-96.049 -96.054)" fill="#e01538" stroke="#e01538" stroke-width="1.5"/>
      </g>
    </g>
  </g>
</svg>
