<svg xmlns="http://www.w3.org/2000/svg" width="48" height="48" viewBox="0 0 48 48">
  <g id="POS" transform="translate(-1564 52)">
    <rect id="Rectangle_1514" data-name="Rectangle 1514" width="48" height="48" transform="translate(1564 -52)" fill="#fff" opacity="0"/>
    <g id="Group_6665" data-name="Group 6665" transform="translate(1566 -50)">
      <g id="Group_6664" data-name="Group 6664">
        <path id="Path_3726" data-name="Path 3726" d="M41.327,6.487H33.361V2.78A2.783,2.783,0,0,0,30.581,0H2.78A2.783,2.783,0,0,0,0,2.78V41.7a2.783,2.783,0,0,0,2.78,2.78h27.8a2.783,2.783,0,0,0,2.78-2.78v-8.34h7.966a3.159,3.159,0,0,0,3.155-3.155V9.642a3.159,3.159,0,0,0-3.155-3.155ZM31.508,41.7a.927.927,0,0,1-.927.927H2.78a.927.927,0,0,1-.927-.927V2.78a.927.927,0,0,1,.927-.927h27.8a.927.927,0,0,1,.927.927V41.7Zm11.12-11.5a1.3,1.3,0,0,1-1.3,1.3H33.361V8.34h7.966a1.3,1.3,0,0,1,1.3,1.3Z" fill="#ffb611" stroke="#ffb611" stroke-width="1"/>
        <path id="Path_3727" data-name="Path 3727" d="M22.461,3H5.78A2.783,2.783,0,0,0,3,5.78V9.487a2.783,2.783,0,0,0,2.78,2.78H22.461a2.783,2.783,0,0,0,2.78-2.78V5.78A2.783,2.783,0,0,0,22.461,3Zm.927,6.487a.927.927,0,0,1-.927.927H5.78a.927.927,0,0,1-.927-.927V5.78a.927.927,0,0,1,.927-.927H22.461a.927.927,0,0,1,.927.927Z" transform="translate(2.56 2.56)" fill="#ffb611" stroke="#ffb611" stroke-width="1"/>
        <path id="Path_3728" data-name="Path 3728" d="M14.78,9.5a2.78,2.78,0,1,0,2.78,2.78A2.78,2.78,0,0,0,14.78,9.5Zm0,3.707a.927.927,0,1,1,.927-.927A.927.927,0,0,1,14.78,13.207Z" transform="translate(10.241 8.107)" fill="#ffb611" stroke="#ffb611" stroke-width="1"/>
        <path id="Path_3729" data-name="Path 3729" d="M10.28,9.5a2.78,2.78,0,1,0,2.78,2.78A2.78,2.78,0,0,0,10.28,9.5Zm0,3.707a.927.927,0,1,1,.927-.927A.927.927,0,0,1,10.28,13.207Z" transform="translate(6.401 8.107)" fill="#ffb611" stroke="#ffb611" stroke-width="1"/>
        <path id="Path_3730" data-name="Path 3730" d="M5.78,9.5a2.78,2.78,0,1,0,2.78,2.78A2.78,2.78,0,0,0,5.78,9.5Zm0,3.707a.927.927,0,1,1,.927-.927A.927.927,0,0,1,5.78,13.207Z" transform="translate(2.56 8.107)" fill="#ffb611" stroke="#ffb611" stroke-width="1"/>
        <path id="Path_3731" data-name="Path 3731" d="M10.28,14a2.78,2.78,0,1,0,2.78,2.78A2.78,2.78,0,0,0,10.28,14Zm0,3.707a.927.927,0,1,1,.927-.927A.927.927,0,0,1,10.28,17.707Z" transform="translate(6.401 11.948)" fill="#ffb611" stroke="#ffb611" stroke-width="1"/>
        <path id="Path_3732" data-name="Path 3732" d="M5.78,14a2.78,2.78,0,1,0,2.78,2.78A2.78,2.78,0,0,0,5.78,14Zm0,3.707a.927.927,0,1,1,.927-.927A.927.927,0,0,1,5.78,17.707Z" transform="translate(2.56 11.948)" fill="#ffb611" stroke="#ffb611" stroke-width="1"/>
        <path id="Path_3733" data-name="Path 3733" d="M14.78,14A2.783,2.783,0,0,0,12,16.78v8.34a2.78,2.78,0,1,0,5.56,0V16.78A2.783,2.783,0,0,0,14.78,14Zm.927,11.12a.927.927,0,1,1-1.853,0V16.78a.927.927,0,1,1,1.853,0Z" transform="translate(10.241 11.948)" fill="#ffb611" stroke="#ffb611" stroke-width="1"/>
        <path id="Path_3734" data-name="Path 3734" d="M10.28,18.5a2.78,2.78,0,1,0,2.78,2.78A2.78,2.78,0,0,0,10.28,18.5Zm0,3.707a.927.927,0,1,1,.927-.927A.927.927,0,0,1,10.28,22.207Z" transform="translate(6.401 15.788)" fill="#ffb611" stroke="#ffb611" stroke-width="1"/>
        <path id="Path_3735" data-name="Path 3735" d="M5.78,18.5a2.78,2.78,0,1,0,2.78,2.78A2.78,2.78,0,0,0,5.78,18.5Zm0,3.707a.927.927,0,1,1,.927-.927A.927.927,0,0,1,5.78,22.207Z" transform="translate(2.56 15.788)" fill="#ffb611" stroke="#ffb611" stroke-width="1"/>
      </g>
    </g>
  </g>
</svg>
