<svg xmlns="http://www.w3.org/2000/svg" xmlns:xlink="http://www.w3.org/1999/xlink" width="48" height="48" viewBox="0 0 48 48">
  <defs>
    <clipPath id="clip-path">
      <rect id="Rectangle_1505" data-name="Rectangle 1505" width="34.923" height="43.22" fill="#b85bcf" stroke="#b85bcf" stroke-width="1"/>
    </clipPath>
  </defs>
  <g id="Predictive_A" data-name="Predictive A" transform="translate(934 -4397)">
    <rect id="Rectangle_1504" data-name="Rectangle 1504" width="48" height="48" transform="translate(-934 4397)" fill="#b85bcf" opacity="0"/>
    <g id="Group_6640" data-name="Group 6640" transform="translate(-927 4399)">
      <g id="Group_6639" data-name="Group 6639" clip-path="url(#clip-path)">
        <path id="Path_3707" data-name="Path 3707" d="M34.322,34a21.468,21.468,0,0,0-16.629-8.121c-.078,0-.152,0-.23,0s-.151,0-.229,0A21.456,21.456,0,0,0,.605,34a.471.471,0,0,0,0,.591,21.469,21.469,0,0,0,16.629,8.122c.078,0,.152,0,.229,0s.152,0,.23,0a21.453,21.453,0,0,0,16.629-8.122.482.482,0,0,0,0-.591M17.463,41.768h0c-.065,0-.135,0-.2,0a7.472,7.472,0,0,1,0-14.938c.066,0,.132,0,.2,0s.136,0,.2,0a7.472,7.472,0,0,1,0,14.938c-.066,0-.136,0-.2,0M1.59,34.3a20.5,20.5,0,0,1,11.064-6.9,8.409,8.409,0,0,0,0,13.806A20.481,20.481,0,0,1,1.59,34.3m20.687,6.9a8.408,8.408,0,0,0,0-13.806,20.518,20.518,0,0,1,11.064,6.9,20.509,20.509,0,0,1-11.064,6.9M17.463,30.5a3.8,3.8,0,1,0,3.8,3.8,3.8,3.8,0,0,0-3.8-3.8m0,6.652A2.852,2.852,0,1,1,20.316,34.3a2.857,2.857,0,0,1-2.853,2.852M2.936,16.423a.476.476,0,0,0-.476.476v5.934a.476.476,0,0,0,.476.476H8.107a.476.476,0,0,0,.476-.476V16.9a.476.476,0,0,0-.476-.476Zm4.695,5.934H3.408V17.371H7.631ZM10.754,12a.476.476,0,0,0-.476.476V22.833a.476.476,0,0,0,.476.476h5.171a.476.476,0,0,0,.476-.476V12.475A.476.476,0,0,0,15.925,12Zm4.7,10.358H11.23v-9.41h4.223Zm3.123-7.67a.476.476,0,0,0-.476.476v7.674a.476.476,0,0,0,.476.476h5.17a.476.476,0,0,0,.476-.476V15.163a.476.476,0,0,0-.476-.476Zm4.694,7.67H19.052V15.635h4.222v6.722Zm8.294-12.115H26.393a.477.477,0,0,0-.476.476V22.833a.476.476,0,0,0,.476.476h5.171a.476.476,0,0,0,.476-.476V10.718a.476.476,0,0,0-.476-.476m-.472,12.115H26.869V11.195h4.223ZM2.5,12.836a.474.474,0,0,1,.029-.669l9.96-9.131a.472.472,0,0,1,.632-.008l7.838,6.73,9.307-8.306H27.986a.476.476,0,0,1,0-.952h3.525a.476.476,0,0,1,.476.476V4.5a.476.476,0,1,1-.952,0V2.035L21.28,10.743a.47.47,0,0,1-.624,0L12.822,4.021,3.174,12.865a.474.474,0,0,1-.32.123.457.457,0,0,1-.353-.152" fill="#b85bcf" stroke="#b85bcf" stroke-width="1"/>
        <path id="Path_3708" data-name="Path 3708" d="M34.322,34a21.468,21.468,0,0,0-16.629-8.121c-.078,0-.152,0-.23,0s-.151,0-.229,0A21.456,21.456,0,0,0,.605,34a.471.471,0,0,0,0,.591,21.469,21.469,0,0,0,16.629,8.122c.078,0,.152,0,.229,0s.152,0,.23,0a21.453,21.453,0,0,0,16.629-8.122A.482.482,0,0,0,34.322,34ZM17.463,41.768h0c-.065,0-.135,0-.2,0a7.472,7.472,0,0,1,0-14.938c.066,0,.132,0,.2,0s.136,0,.2,0a7.472,7.472,0,0,1,0,14.938C17.6,41.768,17.529,41.768,17.463,41.768ZM1.59,34.3a20.5,20.5,0,0,1,11.064-6.9,8.409,8.409,0,0,0,0,13.806A20.481,20.481,0,0,1,1.59,34.3Zm20.687,6.9a8.408,8.408,0,0,0,0-13.806,20.518,20.518,0,0,1,11.064,6.9A20.509,20.509,0,0,1,22.277,41.2ZM17.463,30.5a3.8,3.8,0,1,0,3.8,3.8A3.8,3.8,0,0,0,17.463,30.5Zm0,6.652A2.852,2.852,0,1,1,20.316,34.3,2.857,2.857,0,0,1,17.463,37.151ZM2.936,16.423a.476.476,0,0,0-.476.476v5.934a.476.476,0,0,0,.476.476H8.107a.476.476,0,0,0,.476-.476V16.9a.476.476,0,0,0-.476-.476Zm4.695,5.934H3.408V17.371H7.631ZM10.754,12a.476.476,0,0,0-.476.476V22.833a.476.476,0,0,0,.476.476h5.171a.476.476,0,0,0,.476-.476V12.475A.476.476,0,0,0,15.925,12Zm4.7,10.358H11.23v-9.41h4.223Zm3.123-7.67a.476.476,0,0,0-.476.476v7.674a.476.476,0,0,0,.476.476h5.17a.476.476,0,0,0,.476-.476V15.163a.476.476,0,0,0-.476-.476Zm4.694,7.67H19.052V15.635h4.222v6.722Zm8.294-12.115H26.393a.477.477,0,0,0-.476.476V22.833a.476.476,0,0,0,.476.476h5.171a.476.476,0,0,0,.476-.476V10.718A.476.476,0,0,0,31.564,10.242Zm-.472,12.115H26.869V11.195h4.223ZM2.5,12.836a.474.474,0,0,1,.029-.669l9.96-9.131a.472.472,0,0,1,.632-.008l7.838,6.73,9.307-8.306H27.986a.476.476,0,0,1,0-.952h3.525a.476.476,0,0,1,.476.476V4.5a.476.476,0,1,1-.952,0V2.035L21.28,10.743a.47.47,0,0,1-.624,0L12.822,4.021,3.174,12.865a.474.474,0,0,1-.32.123A.457.457,0,0,1,2.5,12.836Z" fill="#b85bcf" stroke="#b85bcf" stroke-width="1"/>
      </g>
    </g>
  </g>
</svg>
