<svg xmlns="http://www.w3.org/2000/svg" width="48" height="48" viewBox="0 0 48 48">
  <g id="Tracking" transform="translate(-1635 50)">
    <rect id="Rectangle_1515" data-name="Rectangle 1515" width="48" height="48" transform="translate(1635 -50)" fill="#fff" opacity="0"/>
    <g id="Group_6673" data-name="Group 6673" transform="translate(-38.083 38.234)">
      <g id="Group_6672" data-name="Group 6672" transform="translate(1675.083 -86.234)">
        <g id="Group_6667" data-name="Group 6667" transform="translate(0 0)">
          <g id="Group_6666" data-name="Group 6666">
            <path id="Path_3736" data-name="Path 3736" d="M87.032,60.217c.16.188.316.386.471.579.174.221-.207-.273-.038-.047l.089.118c.075.1.151.2.221.3.3.414.584.843.852,1.281a19.973,19.973,0,0,1,1.394,2.718l-.141-.339a20.384,20.384,0,0,1,1.408,5.185c-.019-.127-.033-.25-.052-.377a20.825,20.825,0,0,1,0,5.44c.019-.127.033-.25.052-.377a20.43,20.43,0,0,1-1.4,5.134l.141-.339a20.559,20.559,0,0,1-1.408,2.736c-.264.429-.546.852-.838,1.262-.071.1-.146.2-.221.3-.038.047-.075.1-.113.146-.151.2.226-.287.071-.089s-.334.419-.509.622a19.839,19.839,0,0,1-2.119,2.148c-.17.151-.344.3-.518.438-.094.08-.193.155-.287.231s-.283.212.089-.071c-.066.052-.132.1-.2.151-.414.311-.838.6-1.272.881a20.133,20.133,0,0,1-3.028,1.587l.339-.141a20.43,20.43,0,0,1-5.134,1.4c.127-.019.25-.033.377-.052a20.615,20.615,0,0,1-5.492,0c.127.019.25.033.377.052a20.43,20.43,0,0,1-5.134-1.4l.339.141a20.559,20.559,0,0,1-2.736-1.408c-.429-.264-.852-.546-1.262-.838-.1-.071-.2-.146-.3-.221-.047-.038-.1-.075-.146-.113-.2-.151.287.226.089.071s-.419-.334-.622-.509a19.839,19.839,0,0,1-2.148-2.119c-.151-.17-.3-.344-.438-.518-.08-.094-.155-.193-.231-.287s-.212-.283.071.089c-.052-.066-.1-.132-.151-.2-.311-.414-.6-.838-.881-1.272A20.133,20.133,0,0,1,55.01,79.48l.141.339a20.43,20.43,0,0,1-1.4-5.134c.019.127.033.25.052.377a20.615,20.615,0,0,1,0-5.492c-.019.127-.033.25-.052.377a20.43,20.43,0,0,1,1.4-5.134l-.141.339a20.559,20.559,0,0,1,1.408-2.736c.264-.429.546-.852.838-1.262.071-.1.146-.2.221-.3.038-.047.075-.1.113-.146.151-.2-.226.287-.071.089s.334-.419.509-.622a19.839,19.839,0,0,1,2.119-2.148c.17-.151.344-.3.518-.438.094-.08.193-.155.287-.231s.283-.212-.089.071c.066-.052.132-.1.2-.151.414-.311.838-.6,1.272-.881a20.133,20.133,0,0,1,3.028-1.587l-.339.141a20.43,20.43,0,0,1,5.134-1.4c-.127.019-.25.033-.377.052a20.578,20.578,0,0,1,2.746-.184l-1.413-1.413V66.759c0,.678-.014,1.361,0,2.039v.028a1.413,1.413,0,0,0,2.826,0V54.081c0-.678.014-1.361,0-2.039v-.028A1.433,1.433,0,0,0,72.526,50.6a21.719,21.719,0,1,0,18.49,10.324,23.2,23.2,0,0,0-1.983-2.708,1.42,1.42,0,0,0-1-.414,1.418,1.418,0,0,0-1,2.416Z" transform="translate(-50.8 -50.6)" fill="#20b00e"/>
          </g>
        </g>
        <g id="Group_6669" data-name="Group 6669" transform="translate(8.055 8.049)">
          <g id="Group_6668" data-name="Group 6668">
            <path id="Path_3737" data-name="Path 3737" d="M243.87,228.263c.094.113.184.235.283.344-.278-.316-.1-.132-.038-.052.042.061.089.118.132.179.184.254.353.513.513.777a12.43,12.43,0,0,1,.838,1.634l-.141-.339a12.348,12.348,0,0,1,.843,3.094c-.019-.127-.033-.25-.052-.377a12.8,12.8,0,0,1,0,3.287c.019-.127.033-.25.052-.377a12.543,12.543,0,0,1-.843,3.113l.141-.339a12.343,12.343,0,0,1-.834,1.63c-.16.264-.33.523-.513.772-.042.057-.085.118-.127.174a.547.547,0,0,1-.075.1,1.337,1.337,0,0,1,.127-.165c-.1.118-.193.24-.292.358a12.187,12.187,0,0,1-1.29,1.319c-.108.094-.217.188-.33.278-.057.047-.113.089-.17.137-.217.174.268-.2.042-.033-.25.184-.5.363-.763.527a12.68,12.68,0,0,1-1.842.965l.339-.141a12.544,12.544,0,0,1-3.113.843c.127-.019.25-.033.377-.052a12.62,12.62,0,0,1-3.264,0c.127.019.25.033.377.052a12.544,12.544,0,0,1-3.113-.843l.339.141a12.343,12.343,0,0,1-1.63-.834c-.264-.16-.523-.33-.772-.513-.057-.042-.118-.085-.174-.127a.545.545,0,0,1-.1-.075,1.339,1.339,0,0,1,.165.127c-.118-.1-.24-.193-.358-.292a12.186,12.186,0,0,1-1.319-1.29c-.094-.108-.188-.217-.278-.33-.047-.057-.089-.113-.137-.17-.174-.217.2.268.033.042-.184-.25-.363-.5-.527-.763a12.68,12.68,0,0,1-.965-1.841l.141.339a12.543,12.543,0,0,1-.843-3.113c.019.127.033.25.052.377a12.62,12.62,0,0,1,0-3.264c-.019.127-.033.25-.052.377a12.543,12.543,0,0,1,.843-3.113l-.141.339a12.348,12.348,0,0,1,.834-1.63c.16-.264.33-.523.513-.772.042-.057.085-.118.127-.174a.548.548,0,0,1,.075-.1,1.338,1.338,0,0,1-.127.165c.1-.118.193-.24.292-.358a12.188,12.188,0,0,1,1.29-1.319c.108-.094.217-.188.33-.278.057-.047.113-.089.17-.137.217-.174-.268.2-.042.033.25-.184.5-.363.763-.527a12.682,12.682,0,0,1,1.842-.965l-.339.141a12.545,12.545,0,0,1,3.113-.843c-.127.019-.25.033-.377.052a12.643,12.643,0,0,1,1.634-.108l-1.413-1.413v8.774a1.413,1.413,0,0,0,2.826,0v-8.774a1.433,1.433,0,0,0-1.413-1.413,13.687,13.687,0,1,0,13.654,14.478A13.625,13.625,0,0,0,247.153,228a14.7,14.7,0,0,0-1.272-1.728,1.42,1.42,0,0,0-1-.414,1.418,1.418,0,0,0-1.013,2.407Z" transform="translate(-221.835 -221.5)" fill="#20b00e"/>
          </g>
        </g>
        <g id="Group_6671" data-name="Group 6671" transform="translate(16.822 16.842)">
          <g id="Group_6670" data-name="Group 6670">
            <path id="Path_3738" data-name="Path 3738" d="M414.96,413.08a3.657,3.657,0,0,1-.028.457c.019-.127.033-.25.052-.377a3.6,3.6,0,0,1-.25.914l.141-.339a4.06,4.06,0,0,1-.292.546,1.234,1.234,0,0,1-.108.151s.235-.287.108-.141c-.075.085-.146.17-.226.25s-.151.141-.226.207-.231.127.118-.089c-.042.028-.085.061-.127.089a3.346,3.346,0,0,1-.57.311l.339-.141a3.653,3.653,0,0,1-.914.25c.127-.019.25-.033.377-.052a3.709,3.709,0,0,1-.914,0c.127.019.25.033.377.052a3.6,3.6,0,0,1-.914-.25l.339.141a4.056,4.056,0,0,1-.546-.292,1.239,1.239,0,0,1-.151-.108s.287.235.141.108c-.085-.075-.17-.146-.25-.226s-.141-.151-.207-.226-.127-.231.089.118c-.028-.042-.061-.085-.089-.127a3.342,3.342,0,0,1-.311-.57l.141.339a3.653,3.653,0,0,1-.25-.914c.019.127.033.25.052.377a3.706,3.706,0,0,1,0-.914c-.019.127-.033.25-.052.377a3.6,3.6,0,0,1,.25-.914l-.141.339a4.056,4.056,0,0,1,.292-.546,1.232,1.232,0,0,1,.108-.151s-.236.287-.108.141c.075-.085.146-.17.226-.25s.151-.141.226-.207.231-.127-.118.09c.042-.028.085-.061.127-.09a3.348,3.348,0,0,1,.57-.311l-.339.141a3.652,3.652,0,0,1,.914-.25c-.127.019-.25.033-.377.052a3.671,3.671,0,0,1,.909,0c-.127-.019-.25-.033-.377-.052a3.651,3.651,0,0,1,.914.25l-.339-.141a4.183,4.183,0,0,1,.537.283c.052.033.1.066.146.1.17.113-.122-.075-.118-.089a2.661,2.661,0,0,0,.236.212c.066.066.132.137.193.207s.146.236-.057-.085c.028.042.057.08.085.122a4.025,4.025,0,0,1,.325.593l-.141-.339a3.86,3.86,0,0,1,.245.885c-.019-.127-.033-.25-.052-.377,0,.151.014.306.014.466a1.413,1.413,0,1,0,2.826,0,4.946,4.946,0,0,0-3.857-4.79,5.157,5.157,0,0,0-3.189.382,4.884,4.884,0,0,0-1.884,7.187,5.226,5.226,0,0,0,2.4,1.837,4.845,4.845,0,0,0,2.845.132,4.961,4.961,0,0,0,3.692-4.752,1.429,1.429,0,0,0-1.413-1.413A1.447,1.447,0,0,0,414.96,413.08Z" transform="translate(-407.984 -408.191)" fill="#20b00e"/>
          </g>
        </g>
      </g>
    </g>
  </g>
</svg>
