<svg xmlns="http://www.w3.org/2000/svg" width="48" height="48" viewBox="0 0 48 48">
  <g id="Automate_Matching" data-name="Automate Matching" transform="translate(7939 -4148)">
    <rect id="Rectangle_1484" data-name="Rectangle 1484" width="48" height="48" transform="translate(-7939 4148)" fill="#e01538" opacity="0"/>
    <g id="Group_6590" data-name="Group 6590" transform="translate(1 12)">
      <rect id="Rectangle_1483" data-name="Rectangle 1483" width="48" height="48" transform="translate(-7940 4136)" fill="#e01538" opacity="0"/>
      <path id="automatic-matching" d="M21.913,0H23.1A22.611,22.611,0,0,1,45,22.155V22.9A22.613,22.613,0,0,1,22.89,45H22.1a22,22,0,0,1-11.932-3.8.044.044,0,0,1-.009-.066l1.506-1.724a.053.053,0,0,1,.074-.012A22.438,22.438,0,0,0,21.511,42.5l.248.023q.06.006.06-.054V32.888a.036.036,0,0,0-.036-.04,10.527,10.527,0,0,1-9.393-8.713.063.063,0,0,0-.062-.053H2.747q-.044,0-.04.043A18.826,18.826,0,0,0,6.493,34.388a.047.047,0,0,1,0,.069L4.764,36.183a.035.035,0,0,1-.06,0A22.531,22.531,0,0,1,0,22.894v-.816A22.612,22.612,0,0,1,21.913,0Zm-10,21.82a.014.014,0,0,0,.014-.013,10.605,10.605,0,0,1,9.63-9.652.04.04,0,0,0,.04-.044V2.529a.045.045,0,0,0-.015-.033.047.047,0,0,0-.035-.012A20.1,20.1,0,0,0,2.477,21.764a.052.052,0,0,0,.052.054Zm30.6-.265A20.1,20.1,0,0,0,24.121,2.493q-.039,0-.039.035V12.11a.052.052,0,0,0,.048.056,10.281,10.281,0,0,1,8.7,9.381.051.051,0,0,0,.057.052h9.583A.038.038,0,0,0,42.515,21.554ZM21.554,14.636a7.7,7.7,0,0,0-6.929,6.908q-.005.055.051.055h6.879a.039.039,0,0,0,.044-.044V14.678A.037.037,0,0,0,21.554,14.636Zm2.527,6.95a.014.014,0,0,0,.014.014h6.226q.045,0,.041-.044a7.955,7.955,0,0,0-6.177-6.936q-.1-.028-.1.079Zm-9.433,2.537a7.865,7.865,0,0,0,6.913,6.231q.038,0,.038-.033V24.126a.039.039,0,0,0-.044-.044H14.679Q14.64,24.082,14.648,24.122Zm9.479,6.236a8.219,8.219,0,0,0,6.23-6.231q.01-.044-.035-.044h-6.2a.039.039,0,0,0-.044.044v6.2Q24.082,30.367,24.127,30.357Zm8.72-6.253a10.518,10.518,0,0,1-8.721,8.73.051.051,0,0,0-.043.051v9.568a.058.058,0,0,0,.019.043.059.059,0,0,0,.045.015A20.216,20.216,0,0,0,42.509,24.123q0-.041-.038-.041h-9.6A.025.025,0,0,0,32.846,24.1Z" transform="translate(-7938.5 4137.5)" fill="#e01538" stroke="#e01538" stroke-width="1"/>
    </g>
  </g>
</svg>
