<svg xmlns="http://www.w3.org/2000/svg" width="48.15" height="49.15" viewBox="0 0 48.15 49.15">
  <g id="Contextual" transform="translate(7889 -4151)">
    <rect id="Rectangle_1485" data-name="Rectangle 1485" width="48" height="48" transform="translate(-7889 4151)" fill="#ffb202" opacity="0"/>
    <g id="Group_6594" data-name="Group 6594" transform="translate(76 -79)">
      <path id="Path_3680" data-name="Path 3680" d="M44.343,19.722a7.273,7.273,0,1,0,7.273,7.273A7.281,7.281,0,0,0,44.343,19.722Zm0,13.421a6.148,6.148,0,1,1,6.148-6.148A6.155,6.155,0,0,1,44.343,33.143Z" transform="translate(-7984.843 4218.747)" fill="#ffb202" stroke="#ffb611" stroke-width="2.3"/>
      <path id="Path_3681" data-name="Path 3681" d="M51.456,10H13.544A3.548,3.548,0,0,0,10,13.544V43.322a3.548,3.548,0,0,0,3.544,3.544H32.406l.032,7.575a.563.563,0,0,0,.984.37l7.007-7.944H51.456A3.548,3.548,0,0,0,55,43.322V13.544A3.548,3.548,0,0,0,51.456,10ZM40.175,45.74a.563.563,0,0,0-.422.19l-6.2,7.026L33.528,46.3a.563.563,0,0,0-.562-.56H19.883c.337-5.9,5.92-10.959,12.258-10.959h.719c6.338,0,11.921,5.059,12.258,10.959Zm13.7-2.419a2.422,2.422,0,0,1-2.419,2.419H46.242c-.336-6.5-6.444-12.084-13.383-12.084h-.719c-6.938,0-13.047,5.584-13.383,12.084H13.544a2.422,2.422,0,0,1-2.419-2.419V13.544a2.422,2.422,0,0,1,2.419-2.419H51.456a2.422,2.422,0,0,1,2.419,2.419Z" transform="translate(-7973 4223)" fill="#ffb202" stroke="#ffb611" stroke-width="2.3"/>
    </g>
  </g>
</svg>
