<svg xmlns="http://www.w3.org/2000/svg" width="48" height="48" viewBox="0 0 48 48">
  <g id="Expert_Feedback" data-name="Expert Feedback" transform="translate(6814 -3802)">
    <rect id="Rectangle_1490" data-name="Rectangle 1490" width="48" height="48" transform="translate(-6814 3802)" fill="#ffb202" opacity="0"/>
    <g id="_360_F_181237498_FueZ0hthlnqJHOwrGAh2hqpr81msjOsp" data-name="360_F_181237498_FueZ0hthlnqJHOwrGAh2hqpr81msjOsp" transform="translate(-6907.95 3708.003)">
      <path id="Path_3683" data-name="Path 3683" d="M102.848,129.032q-5.231-.827-6.563-5.474a12.909,12.909,0,0,1-.336-3.4q.028-8.374.008-16.73a7.544,7.544,0,0,1,5.069-7.044A14.106,14.106,0,0,1,104.933,96q13.349-.01,26.7,0a7.538,7.538,0,0,1,6.965,5.021,15.037,15.037,0,0,1,.394,4.122q.01,8.33,0,16.663a.962.962,0,1,1-1.908-.187q-.064-8.732-.074-17.468c0-3.937-2.131-6.153-6.1-6.163q-13.407-.041-26.815-.015c-4.032.01-6.138,2.239-6.168,6.22q-.064,8.251.013,16.5a8.6,8.6,0,0,0,.382,2.813,5.369,5.369,0,0,0,3.743,3.361,18.59,18.59,0,0,0,2.019.272.286.286,0,0,1,.2.138,10.465,10.465,0,0,1,.564,1.191q1.417,3.43,2.8,6.865a.077.077,0,0,0,.141,0q1.452-3.591,2.959-7.19a3.864,3.864,0,0,1,.507-.917.337.337,0,0,1,.231-.123,13.557,13.557,0,0,1,1.949-.046.972.972,0,1,1-.12,1.926,3.859,3.859,0,0,0-.674,0,.193.193,0,0,0-.174.128q-1.888,4.578-3.773,9.153c-.318.776-1.37,1.176-1.785.22q-2.006-4.637-3.9-9.319A.207.207,0,0,0,102.848,129.032Z" fill="#ffb202" stroke="#ffb202" stroke-width="1.2"/>
      <rect id="Rectangle_1492" data-name="Rectangle 1492" width="23.316" height="1.978" rx="0.989" transform="translate(105.822 104.899)" fill="#ffb202" stroke="#ffb202" stroke-width="1.2"/>
      <rect id="Rectangle_1493" data-name="Rectangle 1493" width="23.316" height="1.921" rx="0.961" transform="translate(105.822 110.089)" fill="#ffb202" stroke="#ffb202" stroke-width="1.2"/>
      <rect id="Rectangle_1494" data-name="Rectangle 1494" width="12.618" height="1.921" rx="0.961" transform="translate(105.822 115.276)" fill="#ffb202" stroke="#ffb202" stroke-width="1.2"/>
      <path id="Path_3684" data-name="Path 3684" d="M192.31,187.67c1.993.264,4.119.476,6.1.874,1.209.243,1.322,1.145.515,1.934q-2.182,2.131-4.257,4.134a.6.6,0,0,0-.172.541q.566,3.01,1.014,5.91c.19,1.23-.646,1.616-1.645,1.094q-2.7-1.411-5.395-2.828a.23.23,0,0,0-.225,0q-2.81,1.452-5.6,2.933a1.022,1.022,0,0,1-1.529-1.127q.541-3.079,1.094-6.156a.256.256,0,0,0-.069-.223q-2.223-2.241-4.508-4.4c-.9-.85-.208-1.678.8-1.829q3-.448,6-.879a.236.236,0,0,0,.184-.136q1.37-2.8,2.756-5.577c.433-.866,1.44-1.04,1.9-.095q1.391,2.841,2.808,5.666A.292.292,0,0,0,192.31,187.67Zm-1.652,1.419-2.241-4.519a.076.076,0,0,0-.067-.04.07.07,0,0,0-.064.04q-1.061,2.149-2.106,4.26c-.371.756-.879.661-1.578.771q-2.072.33-4.127.607a.064.064,0,0,0-.036.11c.576.561,3.937,3.561,3.84,4.157q-.384,2.385-.861,5a.092.092,0,0,0,.136.1c.771-.425,4.511-2.672,5.182-2.326q2.226,1.15,4.391,2.311a.085.085,0,0,0,.123-.087l-.822-4.964a.673.673,0,0,1,.2-.625l3.62-3.573a.059.059,0,0,0-.033-.1l-5.016-.725A.722.722,0,0,1,190.658,189.089Z" transform="translate(-60.449 -63.384)" fill="#ffb202" stroke="#ffb202" stroke-width="1.2"/>
    </g>
  </g>
</svg>
