<svg xmlns="http://www.w3.org/2000/svg" width="48" height="48" viewBox="0 0 48 48">
  <g id="Insight_Mining" data-name="Insight Mining" transform="translate(6751 -3673)">
    <rect id="Rectangle_1489" data-name="Rectangle 1489" width="48" height="48" transform="translate(-6751 3673)" fill="coral" opacity="0"/>
    <path id="mystery_FILL0_wght400_GRAD0_opsz48" d="M100.275-842.828a16.294,16.294,0,0,0,11.968-4.928,16.294,16.294,0,0,0,4.928-11.968,16.294,16.294,0,0,0-4.928-11.968,16.294,16.294,0,0,0-11.968-4.928,16.294,16.294,0,0,0-11.968,4.928,16.294,16.294,0,0,0-4.928,11.968,16.294,16.294,0,0,0,4.928,11.968A16.294,16.294,0,0,0,100.275-842.828ZM100.275-859.725Zm0,9.011a14.275,14.275,0,0,1-8.307-2.506,14,14,0,0,1-5.21-6.505,14.214,14.214,0,0,1,5.21-6.477,14.163,14.163,0,0,1,8.307-2.534,14.073,14.073,0,0,1,8.251,2.534,14.585,14.585,0,0,1,5.266,6.477,14.359,14.359,0,0,1-5.266,6.505A14.183,14.183,0,0,1,100.275-850.713Zm0-3.379a11.194,11.194,0,0,0,5.688-1.492,10.612,10.612,0,0,0,4.055-4.14,10.928,10.928,0,0,0-4.055-4.111,11.034,11.034,0,0,0-5.688-1.521,11.139,11.139,0,0,0-5.745,1.521,10.928,10.928,0,0,0-4.055,4.111,10.613,10.613,0,0,0,4.055,4.14A11.3,11.3,0,0,0,100.275-854.093Zm0-2.816a2.747,2.747,0,0,0,1.971-.817,2.674,2.674,0,0,0,.845-2,2.7,2.7,0,0,0-.845-1.971,2.7,2.7,0,0,0-1.971-.845,2.673,2.673,0,0,0-2,.845,2.747,2.747,0,0,0-.817,1.971,2.719,2.719,0,0,0,.817,2A2.719,2.719,0,0,0,100.275-856.909Zm0,17.459a19.616,19.616,0,0,1-7.913-1.605,20.608,20.608,0,0,1-6.421-4.337,20.61,20.61,0,0,1-4.337-6.421A19.615,19.615,0,0,1,80-859.725a19.478,19.478,0,0,1,1.605-7.857,20.958,20.958,0,0,1,4.337-6.449,20.369,20.369,0,0,1,6.421-4.365A19.616,19.616,0,0,1,100.275-880a19.478,19.478,0,0,1,7.857,1.605,20.71,20.71,0,0,1,6.449,4.365,20.71,20.71,0,0,1,4.365,6.449,19.478,19.478,0,0,1,1.605,7.857,19.746,19.746,0,0,1-1.267,7.1,21.075,21.075,0,0,1-3.52,6.026L125-837.309l-2.365,2.365-9.293-9.293a21.076,21.076,0,0,1-6.026,3.52A19.588,19.588,0,0,1,100.275-839.449Z" transform="translate(-6829 4554)" fill="coral"/>
  </g>
</svg>
