<svg xmlns="http://www.w3.org/2000/svg" width="48" height="48" viewBox="0 0 48 48">
  <g id="Real_Time" data-name="Real Time" transform="translate(6917 -3812)">
    <rect id="Rectangle_1491" data-name="Rectangle 1491" width="48" height="48" transform="translate(-6917 3812)" fill="#06b4bb" opacity="0"/>
    <path id="timer_FILL0_wght400_GRAD0_opsz48" d="M132.872-916.782V-920h12.872v3.218Zm4.827,23.975h3.218v-12.336H137.7ZM139.309-875a18.549,18.549,0,0,1-7.482-1.529,19.725,19.725,0,0,1-6.141-4.157,19.722,19.722,0,0,1-4.157-6.141A18.549,18.549,0,0,1,120-894.309a18.548,18.548,0,0,1,1.529-7.482,19.722,19.722,0,0,1,4.157-6.141,19.724,19.724,0,0,1,6.141-4.157,18.549,18.549,0,0,1,7.482-1.529,18.8,18.8,0,0,1,6.758,1.207,18.609,18.609,0,0,1,5.632,3.352l2.735-2.735,2.253,2.253-2.735,2.735a19.779,19.779,0,0,1,3.3,5.2,17.765,17.765,0,0,1,1.368,7.294,18.549,18.549,0,0,1-1.529,7.482,19.723,19.723,0,0,1-4.157,6.141,19.724,19.724,0,0,1-6.141,4.157A18.549,18.549,0,0,1,139.309-875Zm0-3.218a15.517,15.517,0,0,0,11.4-4.693,15.517,15.517,0,0,0,4.693-11.4,15.517,15.517,0,0,0-4.693-11.4,15.517,15.517,0,0,0-11.4-4.693,15.517,15.517,0,0,0-11.4,4.693,15.517,15.517,0,0,0-4.693,11.4,15.517,15.517,0,0,0,4.693,11.4A15.517,15.517,0,0,0,139.309-878.218ZM139.309-894.255Z" transform="translate(-7032.309 4733.5)" fill="#06b4bb"/>
  </g>
</svg>
