<svg xmlns="http://www.w3.org/2000/svg" width="48" height="48" viewBox="0 0 48 48">
  <g id="Topic_Exploration" data-name="Topic Exploration" transform="translate(6806 -3641)">
    <rect id="Rectangle_1488" data-name="Rectangle 1488" width="48" height="48" transform="translate(-6806 3641)" fill="#06b4bb" opacity="0"/>
    <path id="topic_FILL0_wght400_GRAD0_opsz48" d="M89.109-783.925h24.649v-3.215H89.109Zm0,8.573h16.075v-3.215H89.109Zm-5.894,9.645a3.045,3.045,0,0,1-2.251-.991A3.115,3.115,0,0,1,80-768.921v-27.864a3.115,3.115,0,0,1,.965-2.224A3.045,3.045,0,0,1,83.215-800H98.272l3.215,3.215h18.165a3.075,3.075,0,0,1,2.224.991,3.075,3.075,0,0,1,.991,2.224v24.649a3.075,3.075,0,0,1-.991,2.224,3.075,3.075,0,0,1-2.224.991Zm0-3.215h36.437V-793.57h-19.5l-3.215-3.215H83.215Zm0,0v0Z" transform="translate(-6883 4448)" fill="#06b4bb"/>
  </g>
</svg>
