<svg xmlns="http://www.w3.org/2000/svg" width="48" height="48" viewBox="0 0 48 48">
  <g id="Trend" transform="translate(3838 -7240)">
    <path id="trending_up_FILL0_wght400_GRAD0_opsz48_1_" data-name="trending_up_FILL0_wght400_GRAD0_opsz48 (1)" d="M93.526-671.931A1.715,1.715,0,0,1,93-673.188a1.715,1.715,0,0,1,.526-1.257l13.327-13.268a3.325,3.325,0,0,1,2.453-.994,3.337,3.337,0,0,1,2.457.994l7.306,7.306,14.086-14.086h-5.67a1.692,1.692,0,0,1-1.249-.507,1.712,1.712,0,0,1-.5-1.257,1.678,1.678,0,0,1,.5-1.246,1.71,1.71,0,0,1,1.249-.5h9.761a1.7,1.7,0,0,1,1.249.5,1.7,1.7,0,0,1,.5,1.249v9.761a1.757,1.757,0,0,1-.483,1.227,1.562,1.562,0,0,1-1.2.526,1.7,1.7,0,0,1-1.241-.526,1.682,1.682,0,0,1-.526-1.227v-5.436l-14.086,14.028a3.325,3.325,0,0,1-2.453.994,3.337,3.337,0,0,1-2.457-.994l-7.306-7.248-13.21,13.21a1.715,1.715,0,0,1-1.257.526A1.715,1.715,0,0,1,93.526-671.931Z" transform="translate(-3930 7949)" fill="coral"/>
    <rect id="Rectangle_1431" data-name="Rectangle 1431" width="48" height="48" transform="translate(-3838 7240)" fill="coral" opacity="0"/>
  </g>
</svg>
