<svg xmlns="http://www.w3.org/2000/svg" width="926.441" height="328" viewBox="0 0 926.441 328">
  <path id="lineart" d="M929.328,0h10.136c.584.12,3.912.184,4.048.376q.24.336-.168.376a9.328,9.328,0,0,0-1.7.3C811.768,41.992,687.288,98.32,573.312,173.1c-54.744,35.92-107.688,76.92-154.728,122.648q-7.616,7.4-19.52,20.488c-2.232,2.448-5.528-.368-3.328-3.5,16.016-22.832,102.36-151.5,49.88-168.52-18.176-5.9-41.872-1.7-59.96,2.888a431.449,431.449,0,0,0-67.888,23.352,3.322,3.322,0,0,0-1.7,1.928c-15.776,38.944-41.576,75.92-70.392,106.456-12.56,13.312-27.064,26.24-42.536,36.3-10.352,6.736-22.776,12.232-34.952,12.864h-.592a25.683,25.683,0,0,1-16.776-5.984c-20.856-17.6.7-45.68,14.008-59.24,16.04-16.336,34.44-30.68,53.792-43.584a619.142,619.142,0,0,1,93.656-51.424,1.372,1.372,0,0,0,.7-.728c9.056-22.072,16.464-53.128,6.664-76-34.9-81.48-245.688,10.544-299.376,34.576a1.184,1.184,0,0,1-.7.088c-3.376-.632-2.984-3.664-.176-4.912,42.92-19.152,86.8-36.448,131.856-49.944,27.168-8.136,55.216-14.576,83.528-16.936,20.576-1.7,42.176-.816,61.336,7.656,41.976,18.568,36.552,67.68,22.928,102.68a.36.36,0,0,0,.48.464,392.61,392.61,0,0,1,72.536-23.968c17.752-4.008,45.424-7.944,61.688,1.848C493.8,166.7,431.952,266.16,415.368,291.76a.216.216,0,0,0,.328.272c35.032-34.512,73.408-65.64,113.336-94.216C650.528,110.856,787.128,45.344,929.328,0ZM184.784,250.6c-13.208,11.208-49.088,44.216-34.6,63.848,21.328,28.9,74.84-21.016,89.568-36.328,28.648-29.8,53.88-65.408,70.192-103.544q.288-.672-.384-.376-3.88,1.72-11.544,5.408C257.3,199.224,218.448,222.032,184.784,250.6Z" transform="translate(-17.16)" fill="rgba(255,255,255,0.51)"/>
</svg>
