<svg xmlns="http://www.w3.org/2000/svg" width="328" height="116.126" viewBox="0 0 328 116.126">
  <path id="lineart" d="M340.107,0H343.7c.207.042,1.385.065,1.433.133s.037.124-.059.133a3.3,3.3,0,0,0-.6.1c-45.983,14.5-90.054,34.438-130.407,60.912a369.709,369.709,0,0,0-54.78,43.423q-2.7,2.62-6.911,7.254c-.79.867-1.957-.13-1.178-1.238,5.67-8.084,36.24-53.636,17.66-59.663-6.435-2.087-14.824-.6-21.228,1.022a152.752,152.752,0,0,0-24.035,8.268,1.176,1.176,0,0,0-.6.683c-5.585,13.788-14.72,26.879-24.922,37.69A84.786,84.786,0,0,1,83,111.572c-3.665,2.385-8.064,4.331-12.375,4.554h-.21a9.093,9.093,0,0,1-5.939-2.119c-7.384-6.231.246-16.173,4.959-20.974A119.36,119.36,0,0,1,88.484,77.6,219.2,219.2,0,0,1,121.643,59.4a.486.486,0,0,0,.249-.258c3.206-7.814,5.829-18.81,2.359-26.907C111.9,3.385,37.267,35.965,18.259,44.473a.419.419,0,0,1-.246.031c-1.2-.224-1.056-1.3-.062-1.739A388.463,388.463,0,0,1,64.633,25.083a145.976,145.976,0,0,1,29.573-6c7.285-.6,14.932-.289,21.716,2.711,14.861,6.574,12.941,23.962,8.118,36.353a.127.127,0,0,0,.17.164,139,139,0,0,1,25.681-8.486c6.285-1.419,16.082-2.813,21.84.654,14.182,8.534-7.715,43.748-13.587,52.812a.076.076,0,0,0,.116.1,333.664,333.664,0,0,1,40.126-33.357C241.4,39.248,289.762,16.054,340.107,0ZM76.506,88.723c-4.676,3.968-17.379,15.654-12.25,22.6,7.551,10.23,26.5-7.441,31.711-12.862,10.143-10.55,19.076-23.157,24.851-36.659q.1-.238-.136-.133-1.374.609-4.087,1.915C102.179,70.534,88.425,78.609,76.506,88.723Z" transform="translate(-17.16)" fill="rgba(255,255,255,0.51)"/>
</svg>
