<svg xmlns="http://www.w3.org/2000/svg" width="156" height="48" viewBox="0 0 156 48">
  <g id="Interactvty" transform="translate(13023 629)">
    <rect id="Rectangle_1424" data-name="Rectangle 1424" width="156" height="48" transform="translate(-13023 -629)" fill="#fff" opacity="0"/>
    <g id="Group_4041" data-name="Group 4041" transform="translate(-13022 -626)">
      <path id="Path_3135" data-name="Path 3135" d="M86.875,36.047c.743-.433.391-1.29-.209-1.639q-13.146-7.66-26.3-15.3-.056-.033,0-.072a4.734,4.734,0,0,1,4.095-1.211,6.875,6.875,0,0,1,1.477.693Q77.68,25.328,89.41,32.172a5.325,5.325,0,0,1,1.43,1.091,3.4,3.4,0,0,1-.1,4.234,6.859,6.859,0,0,1-1.529,1.089q-11.431,6.649-22.88,13.29a.039.039,0,0,1-.059-.034l0-3.716a.132.132,0,0,1,.07-.122Q76.616,42.026,86.875,36.047Z" transform="translate(-54.396 -17.703)" fill="#656565"/>
      <path id="Path_3136" data-name="Path 3136" d="M26.142,43.148a.894.894,0,0,0-.517.859c0,8.8.05,17.595-.028,26.391q-.017,1.98.053,3.97a.065.065,0,0,1-.1.061c-1.9-.966-3.316-1.9-3.317-4.322q-.006-13.065,0-26.13a17.069,17.069,0,0,1,.086-2.348,3.356,3.356,0,0,1,4.313-2.482,15.576,15.576,0,0,1,1.89,1.005q11.242,6.522,22.491,13.064a.059.059,0,0,1,0,.1L47.714,55.22a.1.1,0,0,1-.1,0Q37.428,49.284,27.238,43.367C26.867,43.152,26.56,42.925,26.142,43.148Z" transform="translate(-22.235 -35.663)" fill="#656565"/>
      <path id="Path_3137" data-name="Path 3137" d="M63.592,116.322a.95.95,0,0,0,1.281.05l26.278-15.326q.07-.042.072.041c.048,2.5.111,3.668-2.219,5.028q-11.04,6.446-22.092,12.872a13.807,13.807,0,0,1-2.537,1.281,3.672,3.672,0,0,1-4.167-2.248,5.4,5.4,0,0,1-.217-1.742q-.006-13.251,0-26.5,0-.114.1-.058l3.16,1.823a.119.119,0,0,1,.065.114q-.07,11.95.058,23.888A1.182,1.182,0,0,0,63.592,116.322Z" transform="translate(-54.107 -78.483)" fill="#656565"/>
      <path id="Path_3138" data-name="Path 3138" d="M350.882,101.94l.006-8.425a.048.048,0,0,1,.048-.048h3.176a.048.048,0,0,1,.048.048v18.157a.048.048,0,0,1-.048.048l-2.611-.033a.048.048,0,0,1-.045-.03l-3.09-7.652a.048.048,0,0,0-.094.019v7.626a.048.048,0,0,1-.048.048l-3.176,0a.048.048,0,0,1-.048-.048V93.518a.048.048,0,0,1,.048-.048l2.59-.009a.048.048,0,0,1,.045.031l3.105,8.464a.048.048,0,0,0,.094-.016Z" transform="translate(-294.707 -81.656)" fill="#656565"/>
      <path id="Path_3139" data-name="Path 3139" d="M412.5,96.8V93.553a.053.053,0,0,1,.053-.053h8.386a.053.053,0,0,1,.053.053V96.8a.053.053,0,0,1-.053.053h-2.5a.053.053,0,0,0-.053.053V111.67a.053.053,0,0,1-.053.053l-3.205.025a.053.053,0,0,1-.053-.053V96.9a.053.053,0,0,0-.053-.053h-2.465A.053.053,0,0,1,412.5,96.8Z" transform="translate(-351.691 -81.69)" fill="#656565"/>
      <path id="Path_3140" data-name="Path 3140" d="M478.854,108.38h4.455a.051.051,0,0,1,.051.051v3.247a.051.051,0,0,1-.051.051l-7.767,0a.051.051,0,0,1-.051-.051l.017-18.129a.051.051,0,0,1,.051-.051h7.75a.051.051,0,0,1,.051.051V96.8a.051.051,0,0,1-.051.051h-4.455a.051.051,0,0,0-.051.051v3.832a.051.051,0,0,0,.051.051h3.679a.051.051,0,0,1,.051.051v3.286a.051.051,0,0,1-.051.051h-3.679a.051.051,0,0,0-.051.051v4.1a.051.051,0,0,0,.051.051Z" transform="translate(-404.864 -81.69)" fill="#656565"/>
      <path id="Path_3141" data-name="Path 3141" d="M606.532,101.769l-1.94,9.779a.082.082,0,0,1-.089.072l-3.38,0a.062.062,0,0,1-.061-.075l3.805-18.1a.091.091,0,0,1,.1-.079l3.286.022a.047.047,0,0,1,.047.039l3.779,18.1q.02.092-.075.092h-3.345a.078.078,0,0,1-.084-.069l-1.982-9.784a.03.03,0,1,0-.059,0Z" transform="translate(-510.87 -81.58)" fill="#656565"/>
      <path id="Path_3142" data-name="Path 3142" d="M876.75,96.8V93.548a.048.048,0,0,1,.048-.048h8.4a.048.048,0,0,1,.048.048V96.8a.048.048,0,0,1-.048.048H882.68a.048.048,0,0,0-.048.048v14.809a.048.048,0,0,1-.048.048l-3.215.02a.048.048,0,0,1-.048-.048V96.9a.048.048,0,0,0-.048-.048H876.8A.048.048,0,0,1,876.75,96.8Z" transform="translate(-743.602 -81.69)" fill="#656565"/>
      <path id="Path_3143" data-name="Path 3143" d="M943.341,97.787l1.508-4.475a.1.1,0,0,1,.1-.072l3.222-.05a.09.09,0,0,1,.086.122q-1.58,4.313-3.163,8.615a2.536,2.536,0,0,0-.157.883q0,4.287,0,8.573a.074.074,0,0,1-.083.084l-3.155.006a.063.063,0,0,1-.072-.072q0-4.332,0-8.656a2.625,2.625,0,0,0-.162-.91q-1.553-4.255-3.08-8.522-.027-.075.055-.075l3.214,0a.129.129,0,0,1,.132.093l1.5,4.456a.034.034,0,0,0,.031.022.03.03,0,0,0,.029-.022Z" transform="translate(-795.62 -81.428)" fill="#656565"/>
      <rect id="Rectangle_1418" data-name="Rectangle 1418" width="3.288" height="18.231" rx="0.27" transform="translate(45.655 11.81)" fill="#656565"/>
      <path id="Path_3144" data-name="Path 3144" d="M542,104.141l2.5,7.484q.025.073-.051.073h-3.26a.084.084,0,0,1-.087-.064q-1.106-3.372-2.194-6.744a16.176,16.176,0,0,1-.143-4.057.08.08,0,0,1,.08-.081h1.754a.069.069,0,0,0,.078-.078v-3.76a.086.086,0,0,0-.1-.1h-2.454a.086.086,0,0,0-.1.1v14.7a.073.073,0,0,1-.083.083h-3.112a.069.069,0,0,1-.078-.078V93.547a.065.065,0,0,1,.073-.073q5.382-.022,6.937,0c1.917.022,2.216,1.259,2.22,2.937q.008,2.992.009,5.982c0,1.137-.951,1.622-1.945,1.683a.053.053,0,0,0-.047.07Z" transform="translate(-454.891 -81.657)" fill="#656565"/>
      <path id="Path_3145" data-name="Path 3145" d="M681.534,96.926v11.368a.071.071,0,0,0,.07.072h4.435a.069.069,0,0,1,.078.078v3.188a.074.074,0,0,1-.083.084q-2.546,0-5.08,0c-1.957,0-2.7-.622-2.7-2.582q0-6.79,0-13.581c0-1.8,1.243-2.047,2.808-2.057q2.484-.017,4.971,0a.059.059,0,0,1,.065.067l.025,3.082a.171.171,0,0,1-.193.2h-4.3A.08.08,0,0,0,681.534,96.926Z" transform="translate(-576.029 -81.675)" fill="#656565"/>
      <path id="Path_3146" data-name="Path 3146" d="M743.331,97.1l.026,14.784a.05.05,0,0,1-.05.05l-3.235-.008a.05.05,0,0,1-.05-.05l.012-14.776a.05.05,0,0,0-.05-.05H737.53a.05.05,0,0,1-.05-.05V93.791a.05.05,0,0,1,.05-.05l8.316,0a.05.05,0,0,1,.05.05L745.9,97a.05.05,0,0,1-.05.05h-2.471a.05.05,0,0,0-.05.05Z" transform="translate(-626.032 -81.892)" fill="#656565"/>
      <path id="Path_3147" data-name="Path 3147" d="M804.438,103.517l1.971-9.707a.078.078,0,0,1,.084-.069h3.281q.154,0,.123.15l-3.736,17.934a.105.105,0,0,1-.117.093l-3.283,0a.082.082,0,0,1-.089-.072l-3.758-18.034a.058.058,0,0,1,.056-.069h3.381a.058.058,0,0,1,.062.051l1.956,9.726Q804.4,103.689,804.438,103.517Z" transform="translate(-677.893 -81.892)" fill="#656565"/>
    </g>
  </g>
</svg>
