<svg xmlns="http://www.w3.org/2000/svg" width="136" height="48" viewBox="0 0 136 48">
  <g id="Milap" transform="translate(12826 629)">
    <rect id="Rectangle_1427" data-name="Rectangle 1427" width="136" height="48" transform="translate(-12826 -629)" fill="#fff" opacity="0"/>
    <g id="milaap-logo-tiny-4d3dbc4e55c2aaec351f0f376329c624236c4d6266b910f472684e70603f600d" transform="translate(-12824 -628)">
      <circle id="Ellipse_14" data-name="Ellipse 14" cx="3.499" cy="3.499" r="3.499" transform="translate(25.891 0)" fill="#656565"/>
      <circle id="Ellipse_15" data-name="Ellipse 15" cx="3.496" cy="3.496" r="3.496" transform="translate(1.911 2.898)" fill="#656565"/>
      <path id="Path_3180" data-name="Path 3180" d="M172.653,50.9c.42-1.736-1.192-3-2.118-4.181q-.162-.206.081-.1c2.475,1.034,5.608,1.449,6.976-1.508a.149.149,0,0,1,.271,0c1.246,2.925-2.716,5.292-4.945,6.034a.206.206,0,0,1-.265-.244Z" transform="translate(-126.113 -36.999)" fill="#656565"/>
      <path id="Path_3181" data-name="Path 3181" d="M86.191,80.609c2.134-3.206,4.617-6.583,6.088-9.928,2.015-4.59,5.419-15.206,0-18.829-4.211-2.816-12.257,1.847-15.717,4.387a.271.271,0,0,1-.352-.027l-.195-.195a.214.214,0,0,1-.046-.268,2.192,2.192,0,0,1,.363-.531C80.284,51,90.079,42.959,96.357,45.829c2.359,1.075,3.664,3.531,4.262,5.993,2.965,12.213-4.888,23.043-14.271,29.775a.43.43,0,0,1-.715-.181.236.236,0,0,1,.054-.249A4.422,4.422,0,0,0,86.191,80.609Z" transform="translate(-57.18 -37.145)" fill="#656565"/>
      <path id="Path_3182" data-name="Path 3182" d="M12.548,69.7q-.29-.341-.257.108c.626,8.677,4.885,16.443,10.632,22.536a.155.155,0,0,1-.005.246l-.347.325a.2.2,0,0,1-.279.016C12.724,85.821,3.711,74.166,7.6,61.463a4.02,4.02,0,0,1,7.886,1.059,17.708,17.708,0,0,0-.13,1.9c2.367,8.777,11.517,4.365,15.826.737a.328.328,0,0,1,.482.436C27.353,71.889,19.1,77.394,12.548,69.7Z" transform="translate(-6.672 -46.858)" fill="#656565"/>
      <rect id="Rectangle_1421" data-name="Rectangle 1421" width="2.237" height="21.258" rx="0.65" transform="translate(86.881 11.81)" fill="#656565"/>
      <path id="Path_3183" data-name="Path 3183" d="M238.125,67.374c-.187.043-6.415,14.843-7.076,16.362a.249.249,0,0,1-.246.162l-1.081,0a.221.221,0,0,1-.219-.144l-6.965-16.329a.089.089,0,0,0-.173.035l.011,16.14a.268.268,0,0,1-.306.306l-1.893,0a.156.156,0,0,1-.176-.176V64.2a.2.2,0,0,1,.2-.2h3.147a.324.324,0,0,1,.3.195l6.507,15.162q.13.3.263,0l6.627-15.206a.237.237,0,0,1,.233-.152h3.093a.144.144,0,0,1,.144.144V83.723a.127.127,0,0,1-.141.144l-2.023.046a.183.183,0,0,1-.211-.209l.014-16.308Q238.152,67.366,238.125,67.374Z" transform="translate(-162.23 -50.836)" fill="#656565"/>
      <circle id="Ellipse_16" data-name="Ellipse 16" cx="1.584" cy="1.584" r="1.584" transform="translate(81.108 13.226)" fill="#656565"/>
      <path id="Path_3184" data-name="Path 3184" d="M352.717,99.452a5.341,5.341,0,0,1-6.361,1.766,3.649,3.649,0,0,1-2.681-4.157c.525-3.854,5.9-4.135,8.861-3.935a.125.125,0,0,0,.149-.13c.363-4.192-4.78-3.572-6.943-1.841a.159.159,0,0,1-.244-.016l-1.21-1.265a.118.118,0,0,1,.016-.2c3.217-2.51,10.055-3.114,10.559,2.448.187,2.053-.038,5.348.255,8.993a.141.141,0,0,1-.16.173l-1.833-.024a.169.169,0,0,1-.187-.184l-.054-1.576a.092.092,0,0,0-.165-.054ZM346.293,96.4c-2.277,3.837,6.911,5.375,6.434-1.286a.08.08,0,0,0-.079-.081C351.027,94.87,347.263,94.767,346.293,96.4Z" transform="translate(-252.382 -68.215)" fill="#656565"/>
      <path id="Path_3185" data-name="Path 3185" d="M401.335,99.3a4.948,4.948,0,0,1-3.483,2.1c-2.684.376-5.9-1.016-5.581-4.216.409-4.113,5.671-4.36,8.9-4.168a.14.14,0,0,0,.165-.144c.3-3.615-3.864-3.65-6.088-2.416q-.5.279-.986.58a.129.129,0,0,1-.176-.022l-1.183-1.21a.191.191,0,0,1-.054-.148.185.185,0,0,1,.076-.136c2.489-1.847,6.5-2.686,9.012-.666a4.432,4.432,0,0,1,1.541,3.74q-.057,4.225.114,8.452.005.135-.133.135l-1.728-.024a.159.159,0,0,1-.176-.176l-.049-1.63Q401.5,99.065,401.335,99.3Zm.035-4.005a.313.313,0,0,0-.309-.357c-1.376-.165-4.132-.2-5.394.59a2.145,2.145,0,0,0,.493,3.91C399.174,100.254,401.3,98.388,401.371,95.3Z" transform="translate(-287.834 -68.109)" fill="#656565"/>
      <path id="Path_3186" data-name="Path 3186" d="M445.215,99.262l.027,8.224a.241.241,0,0,1-.241.241h-1.8a.18.18,0,0,1-.2-.2V88.4a.151.151,0,0,1,.171-.171h1.874a.184.184,0,0,1,.209.219l-.068,1.395a.066.066,0,0,0,.038.063.072.072,0,0,0,.076-.009,7.186,7.186,0,0,1,6.277-1.8c3.68.783,5.427,3.642,5.213,7.3a6.433,6.433,0,0,1-11.452,3.829Q445.215,99.073,445.215,99.262Zm4.636.4a4.9,4.9,0,1,0-4.677-4.9A4.792,4.792,0,0,0,449.851,99.66Z" transform="translate(-324.841 -68.296)" fill="#656565"/>
      <rect id="Rectangle_1422" data-name="Rectangle 1422" width="2.166" height="13.123" rx="0.84" transform="translate(81.601 19.937)" fill="#656565"/>
    </g>
  </g>
</svg>
