<svg xmlns="http://www.w3.org/2000/svg" width="165" height="48" viewBox="0 0 165 48">
  <g id="my_gate" data-name="my gate" transform="translate(13486 629)">
    <rect id="Rectangle_1426" data-name="Rectangle 1426" width="165" height="48" transform="translate(-13486 -629)" fill="#fff" opacity="0"/>
    <g id="Group_4039" data-name="Group 4039" transform="translate(-13483 -625)">
      <path id="Path_3197" data-name="Path 3197" d="M223.037,191.645s0,.009.014.014a.01.01,0,0,1,.006.009v9.371a.036.036,0,0,1-.035.036q-2.759.006-5.523,0-1.293,0-1.559-.02a9.168,9.168,0,0,1-8.672-8.39q-.044-.479-.045-1.559-.007-10.919,0-21.839a9.233,9.233,0,0,1,9.329-9.327q11.278,0,22.556.008a9.224,9.224,0,0,1,9.243,9.3q.027,14.434-.01,22.717a9.2,9.2,0,0,1-8.2,9.049q-.494.053-1.558.055-3.011.008-6.023,0a.033.033,0,0,1-.037-.037v-9.384q0-.055-.054-.048c-2.156.255-4.193,1.488-4.653,3.771a.012.012,0,0,1-.023,0c-.6-2.349-2.445-3.463-4.7-3.771a.037.037,0,0,0-.029.009A.043.043,0,0,0,223.037,191.645Z" transform="translate(-207.218 -159.939)" fill="#656565"/>
      <path id="Path_3198" data-name="Path 3198" d="M1413.893,256.862h-5.332a.041.041,0,0,1-.046-.047l-.007-3.472a.044.044,0,0,1,.05-.05h9.021a.058.058,0,0,1,.058.059v8.779a.158.158,0,0,1-.037.1c-3.044,3.628-7.59,4.493-12.065,3.4a9.6,9.6,0,0,1-7.31-7.638,12.842,12.842,0,0,1,1.9-9.987,10.512,10.512,0,0,1,8.372-4.261,11.237,11.237,0,0,1,8.519,3.186.054.054,0,0,1,.017.038.055.055,0,0,1-.015.039l-2.419,2.482a.041.041,0,0,1-.06,0c-.13-.1-.283-.24-.375-.312-4.478-3.493-10.953-1.72-12.117,4.134-.917,4.613,1.479,8.662,6.388,8.969a7.315,7.315,0,0,0,5.473-1.661.081.081,0,0,0,.026-.062V256.9A.039.039,0,0,0,1413.893,256.862Z" transform="translate(-1305.042 -237.198)" fill="#656565"/>
      <path id="Path_3199" data-name="Path 3199" d="M873.169,257.645q-3.331,4.454-6.671,8.9a2.013,2.013,0,0,1-.2.236.1.1,0,0,1-.073.03c-.2,0-.693.063-.818-.108q-3.3-4.546-6.617-9.085a.017.017,0,0,0-.031.01l.013,13.332a.14.14,0,0,1-.016.065.09.09,0,0,0-.013.037,15.052,15.052,0,0,1-.005,1.883.044.044,0,0,1-.048.046l-3.9,0a.035.035,0,0,1-.04-.039V251.8a.041.041,0,0,1,.047-.046h4.5a.13.13,0,0,1,.1.053l6.538,8.985q.058.08.115,0l6.551-9a.077.077,0,0,1,.066-.034h4.523a.024.024,0,0,1,.024.024v21.153a.049.049,0,0,1-.055.056l-3.923.007a.036.036,0,0,1-.041-.041l0-15.293a.019.019,0,0,0-.012-.018A.019.019,0,0,0,873.169,257.645Z" transform="translate(-804.234 -244.588)" fill="#656565"/>
      <path id="Path_3200" data-name="Path 3200" d="M1919.967,285.384q.024,3.323.006,6.644a1.8,1.8,0,0,0,.567,1.374c.831.785,2.155.517,3.068.078a.067.067,0,0,1,.105.044l1,3.06a.032.032,0,0,1-.02.044c-3.433,1.362-7.754.762-8.341-3.668a11.316,11.316,0,0,1-.066-1.365q0-3.108,0-6.215a.035.035,0,0,0-.04-.04h-2.708a.041.041,0,0,1-.042-.041v-3.118a.035.035,0,0,1,.039-.039h2.711a.035.035,0,0,0,.039-.039v-3.77a.044.044,0,0,1,.044-.049l3.523-.382a.124.124,0,0,1,.138.123V282.1a.035.035,0,0,0,.039.039h4.037a.034.034,0,0,1,.039.039v3.082a.078.078,0,0,1-.078.078h-4.02A.039.039,0,0,0,1919.967,285.384Z" transform="translate(-1780.387 -268.697)" fill="#656565"/>
      <path id="Path_3201" data-name="Path 3201" d="M2068.257,335.3c.569,3.852,6.155,3.75,8.4,1.76a.038.038,0,0,1,.059,0l2.329,2.286a.04.04,0,0,1,0,.065,9.673,9.673,0,0,1-8.084,2.274,7.22,7.22,0,0,1-6.19-5.183c-1.292-4.728.886-9.625,6.082-10.386,3.2-.467,6.509.371,8.156,3.333a10.117,10.117,0,0,1,.9,5.78.03.03,0,0,1-.033.03h-11.583C2068.265,335.261,2068.254,335.274,2068.257,335.3Zm.093-3.122,7.963,0q.031,0,.027-.03c-.333-2.5-2.888-3.191-5-2.738a3.806,3.806,0,0,0-3.02,2.72C2068.308,332.164,2068.319,332.179,2068.35,332.179Z" transform="translate(-1919.519 -313.043)" fill="#656565"/>
      <path id="Path_3202" data-name="Path 3202" d="M1690.666,340.378a5.87,5.87,0,0,1-5.4,2.517,7.12,7.12,0,0,1-7.109-7.318,16.191,16.191,0,0,1,.013-1.847q.024-.215.212-.993c.9-3.713,3.844-5.627,7.567-5.608a5.589,5.589,0,0,1,4.719,2.358.016.016,0,0,0,.018.007.016.016,0,0,0,.012-.015l.118-1.948a.04.04,0,0,1,.044-.042h3.476a.039.039,0,0,1,.039.039v14.82a.105.105,0,0,1-.119.119h-3.331a.046.046,0,0,1-.045-.04q-.028-.23-.038-.467a15.709,15.709,0,0,0-.149-1.577Q1690.687,340.341,1690.666,340.378Zm-4.09-9.919c-3.312-.18-5.3,2.6-4.594,5.695a4.305,4.305,0,0,0,5.043,3.291C1692.019,338.689,1691.778,330.743,1686.576,330.46Z" transform="translate(-1563.39 -314.085)" fill="#656565"/>
      <path id="Path_3203" data-name="Path 3203" d="M1178.689,342.342c.63-1.7,1.253-3.411,1.949-5.086q1.079-2.6,2.159-5.189a2.523,2.523,0,0,1,.14-.286.057.057,0,0,1,.053-.031H1187q.04,0,.024.037l-9.1,21.136a.07.07,0,0,1-.07.047h-3.687a1.441,1.441,0,0,1-.284-.027c-.03-.006-.04-.023-.027-.052l2.747-6.4a.07.07,0,0,0,0-.055l-5.949-14.653q-.016-.037.025-.037h4.26a.046.046,0,0,1,.048.034l3.667,10.557C1178.669,342.371,1178.679,342.371,1178.689,342.342Z" transform="translate(-1095.494 -318.347)" fill="#656565"/>
    </g>
  </g>
</svg>
