<svg xmlns="http://www.w3.org/2000/svg" width="215" height="48" viewBox="0 0 215 48">
  <g id="SeeWise" transform="translate(13280 629)">
    <rect id="Rectangle_1425" data-name="Rectangle 1425" width="215" height="48" transform="translate(-13280 -629)" fill="#fff" opacity="0"/>
    <g id="logo-color" transform="translate(-13278 -624)">
      <path id="Path_3167" data-name="Path 3167" d="M487.48,338.75l-.808,1.131a.011.011,0,0,0,.017.012l.79-1.1a.025.025,0,0,1,.018-.011l.017,0" transform="translate(-456.489 -317.744)" fill="none"/>
      <path id="Path_3168" data-name="Path 3168" d="M31.272,21.231l-.808,1.131a.011.011,0,0,0,.017.012l.79-1.1a.025.025,0,0,1,.018-.011l.017,0q3.982,2.8,7.955,5.621c4.577,3.246,10.371,4.788,15.832,2.866a16.558,16.558,0,0,0,8.384-6.811A13.838,13.838,0,0,0,65.2,16.6a9.73,9.73,0,0,0-.042-1.732.029.029,0,0,1,.027-.037l6.791-1.169a.047.047,0,0,1,.061.045q.089.679.112,1.373A21.126,21.126,0,0,1,69.021,27.2,23.344,23.344,0,0,1,55.6,36.9c-7.006,1.806-14.321-.1-20.156-4.193q-4.1-2.875-8.18-5.77a.027.027,0,0,0-.043.007Q25.614,29.231,24,31.5q-.46.649-.744.993a12.938,12.938,0,1,1-2.643-18.786q2.472,1.745,4.928,3.5a.032.032,0,0,0,.045-.007q3.214-4.547,6.428-9.082a18.759,18.759,0,0,1,2.341-2.772,18.34,18.34,0,0,1,30.65,9.391.026.026,0,0,1-.024.035l-6.8,1.239a.029.029,0,0,1-.034-.022,11.356,11.356,0,0,0-19.765-4.757q-.269.322-.745.991Q34.447,16.719,31.272,21.231ZM9.947,19.295a5.978,5.978,0,1,0,8.114,8.487q1.734-2.42,3.436-4.854a.034.034,0,0,0-.008-.048q-2.354-1.674-4.7-3.339A6.029,6.029,0,0,0,9.947,19.295Z" transform="translate(-0.281 -0.225)" fill="#656565"/>
      <path id="Path_3169" data-name="Path 3169" d="M3315.642,188.151a3.071,3.071,0,1,1-3.071-3.071A3.071,3.071,0,0,1,3315.642,188.151Zm-.389-.009a2.672,2.672,0,1,0-2.672,2.672A2.672,2.672,0,0,0,3315.253,188.142Z" transform="translate(-3104.159 -173.609)" fill="#656565"/>
      <path id="Path_3170" data-name="Path 3170" d="M1249.385,203.2c-.566-1.366-2.766-1.869-4.052-2.151-4.192-.92-10.482-1.64-10.623-7.363a7.431,7.431,0,0,1,5.31-7.37,13.385,13.385,0,0,1,6.6-.388,8.731,8.731,0,0,1,7.446,7.31.064.064,0,0,1-.052.074l-4.634.778a.035.035,0,0,1-.046-.033c-.48-3.287-2.6-4.475-5.727-4.372-1.953.064-3.948.939-4.153,3.15a2.46,2.46,0,0,0,1.962,2.615,15.385,15.385,0,0,0,2.212.6q2.383.462,3.263.642c3.349.686,6.9,2.025,7.352,5.956a7.507,7.507,0,0,1-3.041,7.259,11.912,11.912,0,0,1-7.818,1.635c-4.665-.381-8.179-2.828-9.2-7.585a.025.025,0,0,1,0-.019.025.025,0,0,1,.016-.01l4.7-.806a.065.065,0,0,1,.076.054,6.156,6.156,0,0,0,1.06,2.64c1.058,1.38,2.7,1.705,4.346,1.782,2.246.1,5.128-.675,5.159-3.472A2.349,2.349,0,0,0,1249.385,203.2Z" transform="translate(-1157.617 -174.182)" fill="#656565"/>
      <path id="Path_3171" data-name="Path 3171" d="M2181.332,224.563l4.027-16.794a.024.024,0,0,1,.023-.019h4.321a.024.024,0,0,1,.023.03l-6.245,24.431a.024.024,0,0,1-.023.018h-4.387a.024.024,0,0,1-.023-.017l-4.753-16.279a.024.024,0,0,0-.023-.018.024.024,0,0,0-.023.018l-4.8,16.279a.025.025,0,0,1-.023.017H2165a.024.024,0,0,1-.023-.019l-6.134-24.431a.023.023,0,0,1,0-.021.024.024,0,0,1,.019-.009h4.457a.025.025,0,0,1,.024.019l3.983,16.748a.024.024,0,0,0,.047,0l4.932-16.751a.025.025,0,0,1,.023-.017h4.024a.024.024,0,0,1,.023.017l4.909,16.8a.024.024,0,0,0,.047,0Z" transform="translate(-2024.898 -194.873)" fill="#656565"/>
      <ellipse id="Ellipse_13" data-name="Ellipse 13" cx="2.413" cy="2.375" rx="2.413" ry="2.375" transform="matrix(0.999, 0.045, -0.045, 0.999, 165.998, 12.763)" fill="#656565"/>
      <path id="Path_3172" data-name="Path 3172" d="M3331.681,219.892v1.418a.05.05,0,0,1-.048.05l-.287.009a.05.05,0,0,1-.037-.014.051.051,0,0,1-.015-.036v-1.427a.05.05,0,0,0-.05-.05h-.443a.05.05,0,0,1-.051-.05v-.241a.05.05,0,0,1,.051-.05h1.379a.05.05,0,0,1,.05.052l-.009.241a.05.05,0,0,1-.05.048h-.439A.05.05,0,0,0,3331.681,219.892Z" transform="translate(-3124.09 -205.894)" fill="#656565"/>
      <path id="Path_3173" data-name="Path 3173" d="M3358.929,220.156v1.11a.085.085,0,0,1-.087.094l-.2.017a.065.065,0,0,1-.071-.065l-.013-1.762a.044.044,0,0,1,.05-.051h.478a.042.042,0,0,1,.045.035l.3,1.145a.017.017,0,0,0,.016.013.018.018,0,0,0,.018-.013l.3-1.137a.058.058,0,0,1,.055-.043h.481a.033.033,0,0,1,.033.033v1.8a.028.028,0,0,1-.031.032l-.272.006a.05.05,0,0,1-.051-.032c-.065-.144.032-1.277-.021-1.3-.009,0-.015,0-.018.008l-.309,1.282a.047.047,0,0,1-.05.039h-.278a.042.042,0,0,1-.045-.036l-.29-1.175Q3358.929,219.959,3358.929,220.156Z" transform="translate(-3150.174 -205.894)" fill="#656565"/>
      <path id="Path_3174" data-name="Path 3174" d="M2797.17,304.944c-.19-2.023-1.108-3.049-3.2-3.136-1.3-.054-2.86.266-3.014,1.838-.115,1.17,1.41,1.535,2.289,1.714,3.22.657,7.966,1.068,8.287,5.408a5.725,5.725,0,0,1-2.5,5.444c-2.1,1.342-5.074,1.392-7.417.836a6.777,6.777,0,0,1-5.176-4.959q-.135-.476-.234-.962a.033.033,0,0,1,.031-.045l4.223-.666a.068.068,0,0,1,.078.055,4.014,4.014,0,0,0,1.112,2.462,4.156,4.156,0,0,0,2.8.719c1.272-.019,2.674-.4,2.8-1.874.076-.888-.552-1.263-1.284-1.508-2.934-.985-7.872-.907-9.062-4.667a5.729,5.729,0,0,1,.238-3.861,6.428,6.428,0,0,1,5.118-3.588c4.429-.638,8.631,1.328,9.209,6.11a.04.04,0,0,1-.032.043l-4.163.708a.081.081,0,0,1-.063-.016A.08.08,0,0,1,2797.17,304.944Z" transform="translate(-2613.33 -279.558)" fill="#656565"/>
      <path id="Path_3175" data-name="Path 3175" d="M3054.716,310.114a.037.037,0,0,0-.034.053c.827,3.037,3.508,3.95,6.318,3.057a4.083,4.083,0,0,0,2.968-3.3.041.041,0,0,1,.053-.036l4.329.778a.058.058,0,0,1,.038.026.058.058,0,0,1,.008.046c-1.1,4.26-4.638,6.256-8.766,6.656a8.567,8.567,0,0,1-8.607-4.046,11.823,11.823,0,0,1-1.455-7.243c.635-5.237,5.185-8.321,10.251-7.969a7.959,7.959,0,0,1,6.847,4.8,17.393,17.393,0,0,1,1.281,4.91.058.058,0,0,1-.048.067Zm-.687-3.552c0,.062-.011.132-.014.2,0,.024.01.034.034.03l8.45-1.422a.04.04,0,0,0,.028-.018.039.039,0,0,0,0-.033,4.262,4.262,0,0,0-2.355-3.118,4.968,4.968,0,0,0-3.5.107A4.3,4.3,0,0,0,3054.03,306.561Z" transform="translate(-2860.278 -279.618)" fill="#656565"/>
      <path id="Path_3176" data-name="Path 3176" d="M2679.409,322.5h-4.618a.041.041,0,0,1-.041-.041V304.031a.041.041,0,0,1,.041-.041h4.619a.041.041,0,0,1,.041.041v18.425A.041.041,0,0,1,2679.409,322.5Z" transform="translate(-2508.795 -285.141)" fill="#656565"/>
      <path id="Path_3177" data-name="Path 3177" d="M1587.216,315.83a3.987,3.987,0,0,0,3.686,4.267,4.881,4.881,0,0,0,2.01-.165,3.407,3.407,0,0,0,2.061-1.742.056.056,0,0,1,.052-.03h4.565a.047.047,0,0,1,.036.017.047.047,0,0,1,.01.038,4.574,4.574,0,0,1-.591,1.621,7.719,7.719,0,0,1-5.319,3.771,10,10,0,0,1-8.41-1.911,7.237,7.237,0,0,1-2.493-4.684,12.822,12.822,0,0,1,.762-7.1,7.82,7.82,0,0,1,5.778-4.331,10.542,10.542,0,0,1,5.492.432,7.969,7.969,0,0,1,4.9,6.721,20.566,20.566,0,0,1,.1,3.03.043.043,0,0,1-.031.042.728.728,0,0,1-.264-.005h-12.32A.028.028,0,0,0,1587.216,315.83Zm4.213-6.691c-2.388-.068-3.792,1.373-4.1,3.659,0,.017,0,.025.022.025h7.741q.04,0,.036-.039a3.679,3.679,0,0,0-1.958-3.216A4.109,4.109,0,0,0,1591.43,309.139Z" transform="translate(-1484.455 -286.466)" fill="#656565"/>
      <path id="Path_3178" data-name="Path 3178" d="M1888.167,315.678c.027,3.081,2.385,4.772,5.315,4.2a3.487,3.487,0,0,0,2.448-1.847.055.055,0,0,1,.049-.027h4.578q.035,0,.03.035a4.584,4.584,0,0,1-.667,1.794,7.945,7.945,0,0,1-6.113,3.75,9.837,9.837,0,0,1-7.338-1.881,6.567,6.567,0,0,1-2.192-2.933,13.128,13.128,0,0,1-.484-6.563c.939-5.675,6.216-8.023,11.441-6.532,3.424.978,5.32,4.116,5.534,7.548q.074,1.193.047,2.356a.063.063,0,0,1-.071.07l-12.547,0A.029.029,0,0,0,1888.167,315.678Zm3.788-6.687a3.513,3.513,0,0,0-2.7,1.241,5.2,5.2,0,0,0-.985,2.406.028.028,0,0,0,.027.033h7.743c.026,0,.037-.013.035-.038A3.689,3.689,0,0,0,1891.955,308.99Z" transform="translate(-1766.729 -286.313)" fill="#656565"/>
      <path id="Path_3179" data-name="Path 3179" d="M487.48,338.75l.034.029-.017,0a.025.025,0,0,0-.018.011l-.79,1.1a.011.011,0,0,1-.017-.012Z" transform="translate(-456.489 -317.744)" fill="#656565"/>
    </g>
  </g>
</svg>
