<svg xmlns="http://www.w3.org/2000/svg" width="195" height="48" viewBox="0 0 195 48">
  <g id="Shipsy" transform="translate(13722 629)">
    <rect id="Rectangle_1423" data-name="Rectangle 1423" width="195" height="48" transform="translate(-13722 -629)" fill="#fff" opacity="0"/>
    <g id="Group_4040" data-name="Group 4040" transform="translate(-13720 -625)">
      <path id="Path_3159" data-name="Path 3159" d="M362.4,49.653c1.6-2.657-.51-4.873-2.758-5.9q-2.967-1.354-5.938-2.715c-4-1.834-6.908-4.851-6.382-9.521a8.839,8.839,0,0,1,3.728-6.347c4.952-3.654,12.655-2.666,17.2,1.168a.176.176,0,0,1,.046.242l-2.527,4.734a.064.064,0,0,1-.111.023,11.683,11.683,0,0,0-7.8-2.816c-3.66.17-6.425,3.992-2.8,6.784a11.734,11.734,0,0,0,2.43,1.316c4.874,2.093,11.137,3.964,11.487,10.4.335,6.153-4.51,9.976-10.291,10.207a16.5,16.5,0,0,1-12.081-4.44.1.1,0,0,1-.013-.15l3.164-4.386a.13.13,0,0,1,.193-.021,12.706,12.706,0,0,0,8.439,3.438A4.854,4.854,0,0,0,362.4,49.653Z" transform="translate(-293.214 -22.89)" fill="#656565"/>
      <path id="Path_3160" data-name="Path 3160" d="M513.56,37.94a9.843,9.843,0,0,1,8.7-4.909c6.22-.03,8.8,4.459,8.7,10.192-.1,5.2-.03,10.417-.035,15.619a.1.1,0,0,1-.111.111l-5.859.015a.079.079,0,0,1-.089-.089q0-7.36.01-14.72c.005-2.967-.825-5.592-4.36-5.547-4.323.056-6.913,4.214-6.911,8.229q0,6,.005,12a.083.083,0,0,1-.094.094l-5.881.043a.129.129,0,0,1-.13-.129V25.788a.055.055,0,0,1,.063-.063l5.965,0a.069.069,0,0,1,.078.078c.008,4.046.033,8.091-.078,12.132Q513.526,37.994,513.56,37.94Z" transform="translate(-427.597 -25.253)" fill="#656565"/>
      <rect id="Rectangle_1419" data-name="Rectangle 1419" width="6.097" height="5.618" rx="0.52" transform="translate(107.823 0.467) rotate(-0.1)" fill="#656565"/>
      <path id="Path_3161" data-name="Path 3161" d="M41.259,46.459c-8.213-4.185-16.23-10.941-18.14-20.47q-.023-.111.076-.054l36.225,20.5q.1.058,0,.115l-36.2,20.482a.091.091,0,0,1-.134-.1c2.362-9.307,9.638-16.447,18.164-20.376a.048.048,0,0,0,.029-.044A.052.052,0,0,0,41.259,46.459Z" transform="translate(-23.09 -25.416)" fill="#656565"/>
      <path id="Path_3162" data-name="Path 3162" d="M173.269,36.852a29.581,29.581,0,0,1,16.373-11.09.056.056,0,0,1,.057.019.052.052,0,0,1,0,.058l-8.749,15.3a.18.18,0,0,1-.279.076L173.3,37A.086.086,0,0,1,173.269,36.852Z" transform="translate(-148.475 -25.287)" fill="#656565"/>
      <path id="Path_3163" data-name="Path 3163" d="M750.806,73.981a8.954,8.954,0,0,1,6.032-3.9,10.426,10.426,0,0,1,12.332,7.748c1.724,5.971.647,14.136-5.41,17.356-4.114,2.186-9.44,1.552-12.439-2.214a.035.035,0,0,0-.063.023c.162,3.571.1,7.156.094,10.732a.081.081,0,0,1-.081.081h-5.938a.073.073,0,0,1-.082-.082V70.574a.073.073,0,0,1,.082-.082H750.7a.078.078,0,0,1,.089.089l-.045,3.381Q750.745,74.069,750.806,73.981Zm12.817,11.34c.765-4.31-.9-10.095-6.316-9.98-8.995.195-7.83,17.562,1.386,15.6A6.573,6.573,0,0,0,763.622,85.322Z" transform="translate(-626.129 -62.143)" fill="#656565"/>
      <path id="Path_3164" data-name="Path 3164" d="M908.656,77.247c-.274,1.955,2.684,2.938,3.779,3.37,2.733,1.082,6.143,2.474,7.52,5.264a7.186,7.186,0,0,1-.818,7.444,7.852,7.852,0,0,1-4.083,2.626,14.66,14.66,0,0,1-13.622-3.1.092.092,0,0,1-.018-.134l2.8-4.322q.046-.071.109-.012a10.412,10.412,0,0,0,6.326,2.911c3.312.333,5.767-2.906,1.707-4.8-3.944-1.841-9.47-3.271-9.826-8.568-.276-4.061,2.362-6.76,6.252-7.589a13.618,13.618,0,0,1,11.537,2.446.109.109,0,0,1,.031.147l-2.268,4.535q-.038.078-.1.021a9.256,9.256,0,0,0-5.851-2.3C910.8,75.143,908.878,75.652,908.656,77.247Z" transform="translate(-756.517 -62.222)" fill="#656565"/>
      <rect id="Rectangle_1420" data-name="Rectangle 1420" width="6.143" height="25.356" rx="0.47" transform="translate(107.823 8.348)" fill="#656565"/>
      <path id="Path_3165" data-name="Path 3165" d="M1040.106,90.94c.252-.915.49-1.866.8-2.732q2.595-7.321,5.235-14.633a.1.1,0,0,1,.107-.076h5.892q.13,0,.084.122l-12.71,33.116a.117.117,0,0,1-.119.082h-5.438q-.1,0-.064-.1l3.469-8.667a.187.187,0,0,0,0-.139l-9.727-24.334c-.023-.057,0-.086.059-.086h5.927a.121.121,0,0,1,.124.086l6.316,17.356a.025.025,0,0,0,.025.018A.024.024,0,0,0,1040.106,90.94Z" transform="translate(-861.925 -65.152)" fill="#656565"/>
    </g>
  </g>
</svg>
