<svg xmlns="http://www.w3.org/2000/svg" xmlns:xlink="http://www.w3.org/1999/xlink" width="48" height="48" viewBox="0 0 48 48">
  <defs>
    <clipPath id="clip-path">
      <rect id="Rectangle_1502" data-name="Rectangle 1502" width="36.58" height="45" fill="#b85bcf" stroke="#b85bcf" stroke-width="1"/>
    </clipPath>
  </defs>
  <g id="Automated_Data_Collection" data-name="Automated Data Collection" transform="translate(1284 -4390)">
    <rect id="Rectangle_1442" data-name="Rectangle 1442" width="48" height="48" transform="translate(-1284 4390)" fill="#b85bcf" opacity="0"/>
    <g id="Group_6631" data-name="Group 6631" transform="translate(-1278 4392)">
      <g id="Group_6630" data-name="Group 6630" transform="translate(0 0)" clip-path="url(#clip-path)">
        <path id="Path_3694" data-name="Path 3694" d="M16.851,11.859h9.387a.719.719,0,0,1,0,1.437H16.851a.719.719,0,0,1,0-1.437m-5.255,4H26.238a.719.719,0,0,1,0,1.437H11.6a.719.719,0,0,1,0-1.437m0,4H26.238a.719.719,0,0,1,0,1.437H11.6a.719.719,0,0,1,0-1.437M35.67,5.481,16,.54a1.3,1.3,0,0,0-1.572.943l-.359,1.482-12.756,4A1.116,1.116,0,0,0,.547,8.355L5.218,23.267A1.832,1.832,0,0,0,3.87,25.019V43.255a1.8,1.8,0,0,0,1.8,1.8H31.493a1.8,1.8,0,0,0,1.8-1.8V27.714a1.786,1.786,0,0,0-1.437-1.752L36.569,7.1a1.237,1.237,0,0,0-.9-1.617M2.029,8.221,13.662,4.583l-.9,3.458h-4A1.112,1.112,0,0,0,7.643,9.164V23.177H6.7ZM28.753,9.478V25.872H15.683a.32.32,0,0,1-.269-.135l-1.707-1.931a1.842,1.842,0,0,0-1.392-.629H9.081V9.478ZM31.9,43.255a.354.354,0,0,1-.359.359H5.712a.354.354,0,0,1-.359-.359V25.019c0-.494.539-.359.853-.4,1.347,0,4.761,0,6.153-.045a.408.408,0,0,1,.314.135l1.707,1.931a1.842,1.842,0,0,0,1.392.629h15.81a.354.354,0,0,1,.359.359v15.63ZM30.46,25.872h-.225V9.164a1.112,1.112,0,0,0-1.123-1.123H14.291c.314-1.213,1.213-4.9,1.527-6.064l19.4,4.851Z" transform="translate(-0.275 -0.276)" fill="#b85bcf" stroke="#b85bcf" stroke-width="1"/>
        <path id="Path_3695" data-name="Path 3695" d="M16.851,11.859h9.387a.719.719,0,0,1,0,1.437H16.851A.719.719,0,0,1,16.851,11.859Zm-5.255,4H26.238a.719.719,0,0,1,0,1.437H11.6A.719.719,0,0,1,11.6,15.856Zm0,4H26.238a.719.719,0,0,1,0,1.437H11.6A.719.719,0,0,1,11.6,19.854ZM35.67,5.481,16,.54a1.3,1.3,0,0,0-1.572.943l-.359,1.482-12.756,4A1.116,1.116,0,0,0,.547,8.355L5.218,23.267A1.832,1.832,0,0,0,3.87,25.019V43.255a1.8,1.8,0,0,0,1.8,1.8H31.493a1.8,1.8,0,0,0,1.8-1.8V27.714a1.786,1.786,0,0,0-1.437-1.752L36.569,7.1A1.237,1.237,0,0,0,35.67,5.481ZM2.029,8.221,13.662,4.583l-.9,3.458h-4A1.112,1.112,0,0,0,7.643,9.164V23.177H6.7ZM28.753,9.478V25.872H15.683a.32.32,0,0,1-.269-.135l-1.707-1.931a1.842,1.842,0,0,0-1.392-.629H9.081V9.478ZM31.9,43.255a.354.354,0,0,1-.359.359H5.712a.354.354,0,0,1-.359-.359V25.019c0-.494.539-.359.853-.4,1.347,0,4.761,0,6.153-.045a.408.408,0,0,1,.314.135l1.707,1.931a1.842,1.842,0,0,0,1.392.629h15.81a.354.354,0,0,1,.359.359v15.63ZM30.46,25.872h-.225V9.164a1.112,1.112,0,0,0-1.123-1.123H14.291c.314-1.213,1.213-4.9,1.527-6.064l19.4,4.851Z" transform="translate(-0.275 -0.276)" fill="#b85bcf" stroke="#b85bcf" stroke-width="1"/>
      </g>
    </g>
  </g>
</svg>
