<svg xmlns="http://www.w3.org/2000/svg" width="48" height="48" viewBox="0 0 48 48">
  <g id="Automated_Reporting" data-name="Automated Reporting" transform="translate(698 -4390)">
    <rect id="Rectangle_1506" data-name="Rectangle 1506" width="48" height="48" transform="translate(-698 4390)" fill="#e01538" opacity="0"/>
    <path id="analytics_FILL0_wght400_GRAD0_opsz48" d="M130.022-805.594h3.667v-12.528h-3.667Zm20.289,0h3.667v-25.667h-3.667Zm-10.144,0h3.667v-7.211h-3.667Zm0-12.528h3.667v-3.667h-3.667ZM123.667-796a3.518,3.518,0,0,1-2.567-1.1,3.518,3.518,0,0,1-1.1-2.567v-36.667a3.518,3.518,0,0,1,1.1-2.567,3.518,3.518,0,0,1,2.567-1.1h36.667a3.518,3.518,0,0,1,2.567,1.1,3.518,3.518,0,0,1,1.1,2.567v36.667a3.518,3.518,0,0,1-1.1,2.567,3.518,3.518,0,0,1-2.567,1.1Zm0-3.667h36.667v-36.667H123.667Zm0-36.667v0Z" transform="translate(-816 5232)" fill="#e01538"/>
  </g>
</svg>
