<svg xmlns="http://www.w3.org/2000/svg" width="48" height="48" viewBox="0 0 48 48">
  <g id="Competitor" transform="translate(1030 -4384)">
    <rect id="Rectangle_1504" data-name="Rectangle 1504" width="48" height="48" transform="translate(-1030 4384)" fill="#22b10d" opacity="0"/>
    <g id="Group_6635" data-name="Group 6635" transform="translate(72.278 -59.92)">
      <path id="Path_3696" data-name="Path 3696" d="M44.943,61.034A1.03,1.03,0,0,1,43.913,60V49.064a1.03,1.03,0,0,1,.438-.845,11.522,11.522,0,1,0-18.542-9.137,1.03,1.03,0,0,1-.144.515l-3.559,6.052,2.266.834a1.03,1.03,0,0,1,.68.963v5.444a1.061,1.061,0,0,0,1.061,1.061h6.279a1.03,1.03,0,0,1,1.03,1.03V60a1.03,1.03,0,0,1-2.06,0V56.012H26.113a3.126,3.126,0,0,1-3.121-3.121V48.168l-2.756-1.03a1.036,1.036,0,0,1-.531-1.494l4.043-6.876a13.587,13.587,0,1,1,22.225,10.8V60A1.03,1.03,0,0,1,44.943,61.034Z" transform="translate(-1114.587 4429.806)" fill="#22b10d" stroke="#22b10d" stroke-width="0.6"/>
      <path id="Path_3697" data-name="Path 3697" d="M53.09,12.711a1.03,1.03,0,0,1-1.03-1.03V6.53a1.03,1.03,0,0,1,2.06,0v5.151A1.03,1.03,0,0,1,53.09,12.711Z" transform="translate(-1130.346 4439.5)" fill="#22b10d" stroke="#22b10d" stroke-width="0.6"/>
      <path id="Path_3698" data-name="Path 3698" d="M64.85,15.073a.917.917,0,0,1-.35-.062,1.03,1.03,0,0,1-.618-1.319l1.761-4.842a1.031,1.031,0,0,1,1.937.706L65.819,14.4A1.03,1.03,0,0,1,64.85,15.073Z" transform="translate(-1136.049 4438.204)" fill="#22b10d" stroke="#22b10d" stroke-width="0.6"/>
      <path id="Path_3699" data-name="Path 3699" d="M75.192,21.887A1.028,1.028,0,0,1,74.4,20.2l3.307-3.945a1.031,1.031,0,1,1,1.581,1.324L75.98,21.521A1.03,1.03,0,0,1,75.192,21.887Z" transform="translate(-1141.065 4434.464)" fill="#22b10d" stroke="#22b10d" stroke-width="0.6"/>
      <path id="Path_3700" data-name="Path 3700" d="M27.865,21.855a1.03,1.03,0,0,1-.793-.366l-3.327-3.945A1.03,1.03,0,1,1,25.32,16.22l3.312,3.945a1.031,1.031,0,0,1-.767,1.689Z" transform="translate(-1116.483 4434.497)" fill="#22b10d" stroke="#22b10d" stroke-width="0.6"/>
      <path id="Path_3701" data-name="Path 3701" d="M39.695,15.13a1.03,1.03,0,0,1-.968-.675L36.96,9.614a1.03,1.03,0,0,1,1.931-.706l1.767,4.842a1.03,1.03,0,0,1-.608,1.319.948.948,0,0,1-.355.062Z" transform="translate(-1123.003 4438.147)" fill="#22b10d" stroke="#22b10d" stroke-width="0.6"/>
      <path id="Path_3702" data-name="Path 3702" d="M51.289,46.374H46.138a1.03,1.03,0,0,1-1.03-1.03v-1.8a5.675,5.675,0,1,1,7.211,0v1.8A1.03,1.03,0,0,1,51.289,46.374Zm-4.12-2.06h3.09v-1.03a1.545,1.545,0,0,1,.623-1.236,3.575,3.575,0,0,0,1.437-2.91,3.677,3.677,0,0,0-3.5-3.574,3.605,3.605,0,0,0-2.271,6.485,1.545,1.545,0,0,1,.623,1.236ZM52.123,43.685Z" transform="translate(-1125.97 4425.924)" fill="#22b10d" stroke="#22b10d" stroke-width="0.6"/>
      <path id="Path_3703" data-name="Path 3703" d="M53.2,62.56H49.59a1.03,1.03,0,1,1,0-2.06H53.2a1.03,1.03,0,0,1,0,2.06Z" transform="translate(-1128.649 4412.828)" fill="#22b10d" stroke="#22b10d" stroke-width="0.6"/>
    </g>
  </g>
</svg>
