<svg xmlns="http://www.w3.org/2000/svg" width="48" height="48" viewBox="0 0 48 48">
  <g id="Customer_Journey_Mapping" data-name="Customer Journey Mapping" transform="translate(508 -4390)">
    <rect id="Rectangle_1506" data-name="Rectangle 1506" width="48" height="48" transform="translate(-508 4390)" fill="#fff" opacity="0"/>
    <path id="Path_3719" data-name="Path 3719" d="M44.682,28.482a4.6,4.6,0,0,0-6.385,0,4.322,4.322,0,0,0-.51,5.625l-6.519,6.356a4.614,4.614,0,0,0-5.316-.061l-5.757-5.614a4.325,4.325,0,0,0-.472-5.673,4.606,4.606,0,0,0-6.386,0,4.323,4.323,0,0,0-.471,5.677L8.144,39.4a4.609,4.609,0,0,0-5.823.459,4.329,4.329,0,0,0,0,6.225,4.6,4.6,0,0,0,6.384,0,4.324,4.324,0,0,0,.5-5.642l4.733-4.614a4.616,4.616,0,0,0,5.192,0l5.762,5.618a4.321,4.321,0,0,0,.486,5.656,4.6,4.6,0,0,0,6.384,0,4.326,4.326,0,0,0,.549-5.574l6.534-6.37a4.605,4.605,0,0,0,5.839-.446A4.33,4.33,0,0,0,44.682,28.482ZM7.607,45.009a3.016,3.016,0,0,1-4.186,0,2.838,2.838,0,0,1,0-4.084,3.017,3.017,0,0,1,4.186,0A2.838,2.838,0,0,1,7.607,45.009Zm6.83-10.741a2.837,2.837,0,0,1,0-4.083,3.016,3.016,0,0,1,4.186,0,2.837,2.837,0,0,1,0,4.083A3.016,3.016,0,0,1,14.437,34.269ZM30.661,46.026a3.018,3.018,0,0,1-4.187,0,2.839,2.839,0,0,1,0-4.084,3.018,3.018,0,0,1,4.187,0A2.838,2.838,0,0,1,30.661,46.026ZM43.582,33.634a3.016,3.016,0,0,1-4.187,0,2.837,2.837,0,0,1,0-4.083,3.017,3.017,0,0,1,4.187,0A2.837,2.837,0,0,1,43.582,33.634Z" transform="translate(-507.5 4376.305)" fill="coral" stroke="coral" stroke-width="1"/>
    <g id="Group_6652" data-name="Group 6652" transform="translate(-21.728 0.272)">
      <circle id="Ellipse_27" data-name="Ellipse 27" cx="4" cy="4" r="4" transform="translate(-448.272 4403.728)" fill="coral"/>
      <g id="Group_6651" data-name="Group 6651" transform="translate(-447.103 4404.897)">
        <path id="Path_3720" data-name="Path 3720" d="M8.855,958.362a2.855,2.855,0,1,0,2.855,2.853A2.855,2.855,0,0,0,8.855,958.362Zm-1.172,1.3H7.7a.13.13,0,0,1,.083.031l.495.409a.13.13,0,0,1,0,.2l-.495.409a.13.13,0,1,1-.164-.2l.373-.308-.373-.308a.13.13,0,0,1,.069-.231Zm2.169,0h.012a.13.13,0,0,1,.085.231l-.373.308.373.308a.13.13,0,1,1-.164.2l-.495-.409a.13.13,0,0,1,0-.2l.495-.409A.13.13,0,0,1,9.852,959.664ZM7.5,961.655a.132.132,0,0,1,.039,0,4.777,4.777,0,0,0,2.622,0,.133.133,0,0,1,.039-.006.13.13,0,0,1,.126.15,1.492,1.492,0,0,1-2.948,0,.13.13,0,0,1,.124-.15Z" transform="translate(-6 -958.362)" fill="#fff" fill-rule="evenodd"/>
      </g>
    </g>
  </g>
</svg>
