<svg xmlns="http://www.w3.org/2000/svg" width="48" height="48" viewBox="0 0 48 48">
  <g id="Dynamic_Learning" data-name="Dynamic Learning" transform="translate(901 -4394)">
    <rect id="Rectangle_1506" data-name="Rectangle 1506" width="48" height="48" transform="translate(-901 4394)" fill="#fff" opacity="0"/>
    <g id="Group_6642" data-name="Group 6642" transform="translate(-917.88 4377)">
      <rect id="Rectangle_1507" data-name="Rectangle 1507" width="4.15" height="11.067" transform="translate(22.038 50.05)" fill="#ffb202" stroke="#fff" stroke-width="1"/>
      <path id="Path_3709" data-name="Path 3709" d="M36.646,29.217a2.075,2.075,0,0,0-2.933,0L19.88,43.05l2.933,2.933L35.18,33.616l6.834,6.834a2.075,2.075,0,0,0,2.933,0L57.313,28.083v8.134h4.15V23.075A2.075,2.075,0,0,0,59.388,21H46.246v4.15H54.38l-10.9,10.9Z" fill="#ffb202" stroke="#fff" stroke-width="1"/>
      <rect id="Rectangle_1508" data-name="Rectangle 1508" width="4.15" height="16.6" transform="translate(33.105 44.516)" fill="#ffb202" stroke="#fff" stroke-width="1"/>
      <rect id="Rectangle_1509" data-name="Rectangle 1509" width="4.15" height="11.067" transform="translate(44.171 50.05)" fill="#ffb202" stroke="#fff" stroke-width="1"/>
      <rect id="Rectangle_1510" data-name="Rectangle 1510" width="4.15" height="19.366" transform="translate(55.238 41.75)" fill="#ffb202" stroke="#fff" stroke-width="1"/>
    </g>
  </g>
</svg>
