<svg xmlns="http://www.w3.org/2000/svg" width="48" height="48" viewBox="0 0 48 48">
  <g id="Feedback_Integration" data-name="Feedback Integration" transform="translate(489 -4397)">
    <rect id="Rectangle_1506" data-name="Rectangle 1506" width="48" height="48" transform="translate(-489 4397)" fill="#22b10d" opacity="0"/>
    <path id="edit_square_FILL0_wght400_GRAD0_opsz48" d="M123.188-796.947a3.059,3.059,0,0,1-2.232-.956,3.059,3.059,0,0,1-.957-2.232v-31.884a3.059,3.059,0,0,1,.957-2.232,3.059,3.059,0,0,1,2.232-.957H144.71l-3.188,3.188H123.188v31.884h31.884v-18.493l3.188-3.188v21.681a3.059,3.059,0,0,1-.957,2.232,3.059,3.059,0,0,1-2.232.956ZM139.13-816.077Zm9.672-18.705,2.285,2.232-15.145,15.092v4.57h4.517l15.2-15.2,2.232,2.232-16.1,16.155h-9.034v-9.034Zm9.087,8.928-9.087-8.928,5.314-5.314a3.052,3.052,0,0,1,2.248-.9,3.03,3.03,0,0,1,2.269.956l4.464,4.517a3.178,3.178,0,0,1,.9,2.257,2.926,2.926,0,0,1-.957,2.207Z" transform="translate(-607 5240)" fill="#22b10d"/>
  </g>
</svg>
