<svg xmlns="http://www.w3.org/2000/svg" width="48" height="48" viewBox="0 0 48 48">
  <g id="Key" transform="translate(1120 -4396)">
    <rect id="Rectangle_1503" data-name="Rectangle 1503" width="48" height="48" transform="translate(-1120 4396)" fill="#ffb202" opacity="0"/>
    <path id="key_FILL0_wght400_GRAD0_opsz48" d="M52-704.6a3.273,3.273,0,0,1-2.4-1,3.273,3.273,0,0,1-1-2.4,3.273,3.273,0,0,1,1-2.4,3.273,3.273,0,0,1,2.4-1,3.273,3.273,0,0,1,2.4,1,3.273,3.273,0,0,1,1,2.4,3.273,3.273,0,0,1-1,2.4A3.273,3.273,0,0,1,52-704.6Zm0,8.6a11.572,11.572,0,0,1-8.5-3.5A11.572,11.572,0,0,1,40-708a11.572,11.572,0,0,1,3.5-8.5A11.572,11.572,0,0,1,52-720a11.573,11.573,0,0,1,6.3,1.7,11.369,11.369,0,0,1,4.25,5.15h17.8L86-707.5l-8.35,7.65-4.4-3.2-4.4,3.2-3.75-3H62.55a11.336,11.336,0,0,1-3.925,4.925A11.046,11.046,0,0,1,52-696Zm0-3a8.474,8.474,0,0,0,5.35-1.925,8.579,8.579,0,0,0,3.15-4.925h5.7l2.7,2.25,4.4-3.15,4.1,3.1,4.25-3.95-2.55-2.55H60.5a8.566,8.566,0,0,0-3-4.825A8.285,8.285,0,0,0,52-717a8.679,8.679,0,0,0-6.375,2.625A8.679,8.679,0,0,0,43-708a8.679,8.679,0,0,0,2.625,6.375A8.679,8.679,0,0,0,52-699Z" transform="translate(-1159 5128)" fill="#ffb202"/>
  </g>
</svg>
