<svg xmlns="http://www.w3.org/2000/svg" width="48" height="48" viewBox="0 0 48 48">
  <g id="Performance_Benchmarking" data-name="Performance Benchmarking" transform="translate(628 -4390)">
    <rect id="Rectangle_1506" data-name="Rectangle 1506" width="48" height="48" transform="translate(-628 4390)" fill="#06b4bb" opacity="0"/>
    <g id="Group_6648" data-name="Group 6648" transform="translate(-80.53 13.991)">
      <path id="Path_3715" data-name="Path 3715" d="M42.242,34.218V9.224A4.224,4.224,0,0,0,38.018,5H7.04A4.224,4.224,0,0,0,2.816,9.224V34.218a4.576,4.576,0,0,0,1.76,8.8H40.482a4.576,4.576,0,0,0,1.76-8.8ZM5.632,9.224A1.408,1.408,0,0,1,7.04,7.816H38.018a1.408,1.408,0,0,1,1.408,1.408V33.866h-8.8a1.408,1.408,0,0,0-1.408,1.408v.7H15.841v-.7a1.408,1.408,0,0,0-1.408-1.408h-8.8ZM40.482,40.2H4.576a1.76,1.76,0,1,1,0-3.52h8.448v.7a1.408,1.408,0,0,0,1.408,1.408H30.625a1.408,1.408,0,0,0,1.408-1.408v-.7h8.448a1.76,1.76,0,1,1,0,3.52Z" transform="translate(-545.999 4376)" fill="#06b4bb"/>
      <path id="Path_3716" data-name="Path 3716" d="M18.3,26.933H12.394a13.025,13.025,0,0,1,25.895,0H25.341v2.816H39.774a1.408,1.408,0,0,0,1.408-1.408,15.841,15.841,0,1,0-31.682,0,1.408,1.408,0,0,0,1.408,1.408H18.3Z" transform="translate(-548.811 4373.78)" fill="#06b4bb"/>
      <path id="Path_3717" data-name="Path 3717" d="M28.256,34.41a3.52,3.52,0,0,0-.669.07l-5.914-8.61L19.35,27.461l5.928,8.617a3.478,3.478,0,0,0-.542,1.852,3.52,3.52,0,1,0,3.52-3.52Zm0,4.224a.7.7,0,1,1,.7-.7A.7.7,0,0,1,28.256,38.634Z" transform="translate(-551.726 4369.823)" fill="#06b4bb"/>
    </g>
  </g>
</svg>
