<svg xmlns="http://www.w3.org/2000/svg" width="48" height="48" viewBox="0 0 48 48">
  <g id="Sentiment_Analysis" data-name="Sentiment Analysis" transform="translate(1217 -4386)">
    <rect id="Rectangle_1503" data-name="Rectangle 1503" width="48" height="48" transform="translate(-1217 4386)" fill="#e01538" opacity="0"/>
    <path id="sentiment_very_satisfied_FILL0_wght400_GRAD0_opsz48_1_" data-name="sentiment_very_satisfied_FILL0_wght400_GRAD0_opsz48 (1)" d="M103-844.408a12.709,12.709,0,0,0,6.986-2.041A11.706,11.706,0,0,0,114.615-852H91.385a12.1,12.1,0,0,0,4.658,5.549A12.569,12.569,0,0,0,103-844.408Zm-10.235-15.64,2.588-2.587,2.588,2.587,2.07-2.07-4.658-4.657-4.658,4.657Zm15.353,0,2.588-2.587,2.588,2.587,2.07-2.07-4.658-4.657-4.658,4.657ZM103-834a22.4,22.4,0,0,1-8.97-1.811,23.227,23.227,0,0,1-7.3-4.916,23.227,23.227,0,0,1-4.916-7.3A22.4,22.4,0,0,1,80-857a22.4,22.4,0,0,1,1.811-8.97,23.227,23.227,0,0,1,4.916-7.3,23.227,23.227,0,0,1,7.3-4.916A22.4,22.4,0,0,1,103-880a22.4,22.4,0,0,1,8.97,1.811,23.227,23.227,0,0,1,7.3,4.916,23.227,23.227,0,0,1,4.916,7.3A22.4,22.4,0,0,1,126-857a22.4,22.4,0,0,1-1.811,8.97,23.227,23.227,0,0,1-4.916,7.3,23.227,23.227,0,0,1-7.3,4.916A22.4,22.4,0,0,1,103-834ZM103-857Zm0,19.55a18.868,18.868,0,0,0,13.868-5.682A18.868,18.868,0,0,0,122.55-857a18.868,18.868,0,0,0-5.682-13.868A18.868,18.868,0,0,0,103-876.55a18.868,18.868,0,0,0-13.868,5.682A18.868,18.868,0,0,0,83.45-857a18.868,18.868,0,0,0,5.682,13.868A18.868,18.868,0,0,0,103-837.45Z" transform="translate(-1296 5267)" fill="#e01538"/>
  </g>
</svg>
