<svg xmlns="http://www.w3.org/2000/svg" width="48" height="48" viewBox="0 0 48 48">
  <g id="Visual_Insights" data-name="Visual Insights" transform="translate(834 -4461)">
    <rect id="Rectangle_1506" data-name="Rectangle 1506" width="48" height="48" transform="translate(-834 4461)" fill="#fff" opacity="0"/>
    <g id="Group_6654" data-name="Group 6654" transform="translate(44.002 -72)">
      <path id="Path_3721" data-name="Path 3721" d="M44.518,24.457A24.325,24.325,0,0,0,33.682,13.994l3.665-6.1L34.909,6.423,31.017,12.9a24.151,24.151,0,0,0-6.264-1.133V5.73H21.9v6.038A24.151,24.151,0,0,0,15.636,12.9L11.744,6.423,9.318,7.889l3.665,6.1A24.325,24.325,0,0,0,2.134,24.457a1.426,1.426,0,0,0,0,1.213A23.751,23.751,0,0,0,23.326,38.438,23.751,23.751,0,0,0,44.518,25.683,1.426,1.426,0,0,0,44.518,24.457ZM23.326,35.586A20.886,20.886,0,0,1,5.039,25.07,21.126,21.126,0,0,1,23.326,14.54,20.886,20.886,0,0,1,41.613,25.057a21.126,21.126,0,0,1-18.287,10.53Z" transform="translate(-877 4535.27)" fill="#b85bcf" stroke="#b85bcf" stroke-width="1"/>
      <path id="Path_3722" data-name="Path 3722" d="M19.774,14.9a7.1,7.1,0,1,0,7.1,7.1A7.1,7.1,0,0,0,19.774,14.9Zm0,11.369a1.768,1.768,0,1,1,0,.013Z" transform="translate(-873.448 4538.322)" fill="#b85bcf" stroke="#b85bcf" stroke-width="1"/>
    </g>
  </g>
</svg>
