<svg xmlns="http://www.w3.org/2000/svg" width="48" height="48" viewBox="0 0 48 48">
  <g id="Campaign" transform="translate(4678 606)">
    <rect id="Rectangle_1319" data-name="Rectangle 1319" width="48" height="48" transform="translate(-4678 -606)" fill="#e01538" opacity="0"/>
    <path id="campaign_FILL0_wght400_GRAD0_opsz48" d="M117.968-779.556v-3.5h8.762v3.5Zm2.921,16.939-7.068-5.257,2.1-2.8,7.068,5.257ZM116.1-792l-2.1-2.8,6.893-5.2,2.1,2.8Zm-28.5,27.045V-774.3H83.5a3.375,3.375,0,0,1-2.475-1.029A3.375,3.375,0,0,1,80-777.8v-7.009a3.375,3.375,0,0,1,1.03-2.475,3.375,3.375,0,0,1,2.475-1.03H94.019l11.682-7.009v28.038L94.019-774.3H91.1v9.346ZM92.851-781.308Zm15.187,7.827v-15.654a10.67,10.67,0,0,1,2.541,3.417,10.088,10.088,0,0,1,.964,4.41,10.088,10.088,0,0,1-.964,4.41A10.67,10.67,0,0,1,108.038-773.481ZM83.5-784.813v7.009H94.953l7.243,4.322v-15.654l-7.243,4.322Z" transform="translate(-4757 199)" fill="#e01538"/>
  </g>
</svg>
