<svg xmlns="http://www.w3.org/2000/svg" xmlns:xlink="http://www.w3.org/1999/xlink" width="48" height="48" viewBox="0 0 48 48">
  <defs>
    <clipPath id="clip-path">
      <rect id="Rectangle_1439" data-name="Rectangle 1439" width="38.534" height="41.942" fill="#ffb202"/>
    </clipPath>
  </defs>
  <g id="Content_Management" data-name="Content Management" transform="translate(4580 523)">
    <rect id="Rectangle_1438" data-name="Rectangle 1438" width="48" height="48" transform="translate(-4580 -523)" fill="#ffb202" opacity="0"/>
    <g id="Group_6430" data-name="Group 6430" transform="translate(60 -8)">
      <g id="Group_6429" data-name="Group 6429" transform="translate(-4635 -512)">
        <g id="Group_6428" data-name="Group 6428" clip-path="url(#clip-path)">
          <path id="Path_3619" data-name="Path 3619" d="M3.146,3.146v0Zm5.19,20.971h9.7a15.148,15.148,0,0,1,1.258-1.678,12.164,12.164,0,0,1,1.52-1.468H8.336Zm0,8.913h8.179q-.157-.786-.236-1.573a9.5,9.5,0,0,1-.026-1.573H8.336Zm-5.19,8.913A3.018,3.018,0,0,1,.944,41,3.018,3.018,0,0,1,0,38.8V3.146A3.018,3.018,0,0,1,.944.944,3.018,3.018,0,0,1,3.146,0H22.072L33.554,11.482v8.074a11.708,11.708,0,0,0-1.52-.629,12.427,12.427,0,0,0-1.625-.419V12.9H20.5V3.146H3.146V38.8H19.66a11.508,11.508,0,0,0,2.333,1.887,12.365,12.365,0,0,0,2.8,1.258Zm23.959-.881-.262-2.517a9.655,9.655,0,0,1-2.2-.97,10.624,10.624,0,0,1-1.73-1.284l-2.2,1.049-1.835-2.831,1.992-1.573a9.16,9.16,0,0,1,0-4.351l-1.992-1.573,1.835-2.884,2.2,1.049a13.014,13.014,0,0,1,1.73-1.232,9.655,9.655,0,0,1,2.2-.97l.262-2.569h3.146l.315,2.569a9.655,9.655,0,0,1,2.2.97,13.015,13.015,0,0,1,1.73,1.232l2.2-1.049,1.835,2.884-1.992,1.573a9.16,9.16,0,0,1,0,4.351l1.992,1.573L36.7,37.339,34.5,36.29a10.624,10.624,0,0,1-1.73,1.284,9.655,9.655,0,0,1-2.2.97l-.315,2.517Zm1.573-4.981a5.2,5.2,0,0,0,5.348-5.348,5.2,5.2,0,0,0-5.348-5.348,5.2,5.2,0,0,0-5.348,5.348,5.2,5.2,0,0,0,5.348,5.348" fill="#ffb202"/>
        </g>
      </g>
    </g>
  </g>
</svg>
