<svg xmlns="http://www.w3.org/2000/svg" width="48" height="48" viewBox="0 0 48 48">
  <g id="data_integration" data-name="data integration" transform="translate(4240 379)">
    <rect id="Rectangle_1441" data-name="Rectangle 1441" width="48" height="48" transform="translate(-4240 -379)" fill="#b85bcf" opacity="0"/>
    <g id="Group_6453" data-name="Group 6453" transform="translate(89.348 84.257)">
      <path id="Path_3635" data-name="Path 3635" d="M115.866,78.351c-.087-1.963-.278-3.594,2.056-3.6q2.324-.008,4.647,0c1.388,0,2.155.417,2.155,1.866q0,1.305,0,2.591a.144.144,0,0,0,.107.138,16.98,16.98,0,0,1,3.715,1.5.127.127,0,0,0,.16-.02c1.181-1.09,2.688-3.574,4.5-1.767q1.773,1.771,3.543,3.549c1.8,1.8-.448,3.219-1.609,4.368a.138.138,0,0,0-.024.182,19.1,19.1,0,0,1,1.69,3.811.148.148,0,0,0,.15.113c1.706.049,4.112-.6,4.121,2q.008,2.461.01,4.919c0,2.5-2.287,1.983-3.926,1.977a.108.108,0,0,0-.117.091,18.732,18.732,0,0,1-1.588,4.114.224.224,0,0,0,.047.292c1.041.976,2.921,2.332,1.349,3.9q-1.848,1.848-3.709,3.683c-1.613,1.59-2.824-.233-3.859-1.26a.124.124,0,0,0-.166-.022,18.526,18.526,0,0,1-4.277,1.823.132.132,0,0,0-.1.13c-.067,1.5.45,3.576-1.835,3.584q-2.443.008-4.886,0c-2,0-2.273-.972-2.158-2.786a.1.1,0,0,0-.117-.124h-5.577a.116.116,0,0,0-.118.085,2.985,2.985,0,0,1-5.451.693c-2.087-3.756,4.1-6.511,5.421-2.261a.128.128,0,0,0,.134.1q3.079,0,6.148,0c1.386,0,.981,1.886.966,2.79a.121.121,0,0,0,.034.086.117.117,0,0,0,.084.036H123.2a.141.141,0,0,0,.142-.138c.008-.861-.186-2.206.316-2.944.391-.573,1.41-.768,2.064-1a20.778,20.778,0,0,0,2.794-1.313c1.232-.66,2.5.962,3.245,1.746a.145.145,0,0,0,.237,0l4.064-4.06a.164.164,0,0,0,0-.233c-1.122-1.116-2.559-1.916-1.679-3.738a22.608,22.608,0,0,0,1.353-3.529c.452-1.564,2.514-1.141,3.707-1.132a.243.243,0,0,0,.245-.243V92.613a.106.106,0,0,0-.113-.118c-1.183-.059-3.555.417-4.044-1.033a22.215,22.215,0,0,0-1.479-3.414,1.6,1.6,0,0,1,.17-2.111q.885-.938,1.831-1.843a.174.174,0,0,0,0-.251L132,79.773a.158.158,0,0,0-.223,0l-2.188,2.115a1.6,1.6,0,0,1-1.85.061,22.415,22.415,0,0,0-3.045-1.23c-.758-.243-1.353-.7-1.349-1.491q.008-1.483-.014-2.966a.118.118,0,0,0-.134-.132h-5.818a.132.132,0,0,0-.132.132q-.018,1.519-.026,3.025c0,.346-.357.529-.7.537q-3.185.079-6.369.055a.124.124,0,0,0-.132.1c-1.23,3.971-6.987,1.951-5.626-1.807a2.968,2.968,0,0,1,5.624.233.141.141,0,0,0,.146.1l5.567-.022A.11.11,0,0,0,115.866,78.351Zm-7.127.853a1.564,1.564,0,1,0-1.564,1.564A1.564,1.564,0,0,0,108.739,79.2Zm0,33.515a1.566,1.566,0,1,0-1.566,1.566A1.566,1.566,0,0,0,108.739,112.719Z" transform="translate(-4424.505 -535)" fill="#b85bcf" stroke="#b85bcf" stroke-width="1.2"/>
      <path id="Path_3636" data-name="Path 3636" d="M86.13,112.493q.059,2.158,0,4.315c-.016.618-.387.756-.954.756q-5.135-.006-10.267,0a.128.128,0,0,0-.13.091,2.977,2.977,0,1,1-.024-1.57.124.124,0,0,0,.13.095h9.775a.086.086,0,0,0,.1-.1q.012-2.232,0-4.445a.714.714,0,0,1,.782-.638q3.5-.01,6.993,0c1.2,0,1.1,1.347.184,1.351l-6.491.038A.089.089,0,0,0,86.13,112.493Zm-12.659,4.38a1.564,1.564,0,1,0-1.564,1.564A1.564,1.564,0,0,0,73.471,116.873Z" transform="translate(-4396.246 -564.093)" fill="#b85bcf" stroke="#b85bcf" stroke-width="1.2"/>
      <path id="Path_3637" data-name="Path 3637" d="M171.439,139.647a8.066,8.066,0,0,0-7.141-14.338c-1.013.332-1.27-.8-.322-1.1a9.333,9.333,0,0,1,6.8.286,9.2,9.2,0,0,1-7,17.015c-.709-.261-.445-1.3.5-1A8.046,8.046,0,0,0,171.439,139.647Z" transform="translate(-4469.554 -572.378)" fill="#b85bcf" stroke="#b85bcf" stroke-width="1.2"/>
      <path id="Path_3638" data-name="Path 3638" d="M116.536,168.554c-.642,2.469-4.281,2.482-4.777-.015a2.458,2.458,0,0,1,4.744-1.271.11.11,0,0,0,.111.077h7.44a1.669,1.669,0,0,1,.621.078c.551.25.293,1.064-.423,1.064q-3.8,0-7.633,0A.087.087,0,0,0,116.536,168.554Zm-1.095-.569a1.293,1.293,0,1,0-1.293,1.293A1.293,1.293,0,0,0,115.441,167.986Z" transform="translate(-4426.324 -607.387)" fill="#b85bcf" stroke="#b85bcf" stroke-width="1.2"/>
      <path id="Path_3639" data-name="Path 3639" d="M86.044,213.9l6.276-.014c1.116,0,1.161,1.386.047,1.388q-3.6.008-7.206,0c-.476,0-.636-.46-.638-.895q-.006-2.109,0-4.2a.075.075,0,0,0-.085-.085l-9.8,0a.129.129,0,0,0-.134.1c-1.495,4.5-7.852,1.13-5.223-2.551a2.973,2.973,0,0,1,5.245.976.124.124,0,0,0,.13.095q5.229.006,10.457,0,.829,0,.782.9-.061,1.191.036,4.177A.1.1,0,0,0,86.044,213.9Zm-12.821-4.51a1.56,1.56,0,1,0-1.56,1.56A1.56,1.56,0,0,0,73.223,209.394Z" transform="translate(-4396 -640.683)" fill="#b85bcf" stroke="#b85bcf" stroke-width="1.2"/>
    </g>
  </g>
</svg>
