<svg xmlns="http://www.w3.org/2000/svg" width="48" height="48" viewBox="0 0 48 48">
  <g id="Email" transform="translate(4580 606)">
    <rect id="Rectangle_1430" data-name="Rectangle 1430" width="48" height="48" transform="translate(-4580 -606)" fill="#ffb202" opacity="0"/>
    <path id="drafts_FILL0_wght400_GRAD0_opsz48_1_" data-name="drafts_FILL0_wght400_GRAD0_opsz48 (1)" d="M101.482-920l19.924,11.922a2.512,2.512,0,0,1,1.235,1.316,4.516,4.516,0,0,1,.322,1.638v24.865A3.091,3.091,0,0,1,122-878a3.091,3.091,0,0,1-2.256.967H83.222A3.091,3.091,0,0,1,80.967-878,3.091,3.091,0,0,1,80-880.258v-24.865a4.214,4.214,0,0,1,.349-1.638,2.683,2.683,0,0,1,1.208-1.316Zm0,25.026,18.045-10.58L101.482-916.4,83.437-905.553Zm0,3.6-18.26-10.741v21.858h36.519v-21.858Zm0,11.117h0Z" transform="translate(-4657 317)" fill="#ffb202"/>
  </g>
</svg>
