<svg xmlns="http://www.w3.org/2000/svg" xmlns:xlink="http://www.w3.org/1999/xlink" width="48" height="48" viewBox="0 0 48 48">
  <defs>
    <clipPath id="clip-path">
      <rect id="Rectangle_1449" data-name="Rectangle 1449" width="45.871" height="37.894" fill="coral"/>
    </clipPath>
  </defs>
  <g id="MQL" transform="translate(4509 122)">
    <rect id="Rectangle_1318" data-name="Rectangle 1318" width="48" height="48" transform="translate(-4509 -122)" fill="coral" opacity="0"/>
    <g id="Group_6450" data-name="Group 6450" transform="translate(-4507.936 -116.947)">
      <path id="Path_3621" data-name="Path 3621" d="M27.875,26.471l-3.464-3.012,4.569-.4,1.782-4.193,1.782,4.217,4.568.4L33.648,26.5,34.7,30.964,30.762,28.58l-3.94,2.361Zm.075-4.819-7.228.626,5.471,4.745-1.631,7.053,6.2-3.739,6.2,3.739L35.33,27.024,40.8,22.279l-7.23-.626L30.762,15Z" transform="translate(3.908 2.829)" fill="coral"/>
      <g id="Group_6449" data-name="Group 6449" transform="translate(0 0)">
        <g id="Group_6448" data-name="Group 6448" clip-path="url(#clip-path)">
          <path id="Path_3622" data-name="Path 3622" d="M26.821,30.939l3.94-2.359L34.7,30.964,33.648,26.5l3.464-3.012-4.568-.4-1.783-4.217-1.782,4.192-4.569.4,3.465,3.012Zm-2.26,3.138,1.632-7.053-5.472-4.745,7.229-.628L30.761,15l2.812,6.651,7.229.628L35.33,27.024l1.632,7.053-6.2-3.741Z" transform="translate(3.908 2.83)" fill="coral" stroke="coral" stroke-width="0.8"/>
          <path id="Path_3623" data-name="Path 3623" d="M19.018,17.829A8.55,8.55,0,0,1,10.1,8.915,8.55,8.55,0,0,1,19.018,0a8.55,8.55,0,0,1,8.915,8.915,8.55,8.55,0,0,1-8.915,8.915M0,36.906V31.32a6.92,6.92,0,0,1,1.04-3.744,6.7,6.7,0,0,1,3-2.556,43.538,43.538,0,0,1,7.934-2.734,31.688,31.688,0,0,1,7.043-.832h1.367a9.254,9.254,0,0,0-.535,1.634,17.618,17.618,0,0,0-.3,1.931h-.535a30.583,30.583,0,0,0-6.745.743,30.852,30.852,0,0,0-6.8,2.466,3.232,3.232,0,0,0-1.426,1.337,3.586,3.586,0,0,0-.475,1.753v2.021H19.553a11.612,11.612,0,0,0,.713,1.931,9.323,9.323,0,0,0,1.01,1.634ZM19.018,14.263a5.183,5.183,0,0,0,5.349-5.349,5.183,5.183,0,0,0-5.349-5.349,5.183,5.183,0,0,0-5.349,5.349,5.183,5.183,0,0,0,5.349,5.349" transform="translate(0 0)" fill="coral"/>
        </g>
      </g>
    </g>
  </g>
</svg>
