<svg xmlns="http://www.w3.org/2000/svg" width="48" height="48" viewBox="0 0 48 48">
  <g id="outreach" transform="translate(4609 380)">
    <rect id="Rectangle_1442" data-name="Rectangle 1442" width="48" height="48" transform="translate(-4609 -380)" fill="#22b10d" opacity="0"/>
    <path id="hub_FILL0_wght400_GRAD0_opsz48" d="M11.212-915.917a5.268,5.268,0,0,1-3.869-1.593,5.268,5.268,0,0,1-1.593-3.869,5.268,5.268,0,0,1,1.593-3.869,5.268,5.268,0,0,1,3.869-1.593,5.105,5.105,0,0,1,1.174.12,5.663,5.663,0,0,1,1.03.359l4.073-5.079a7.885,7.885,0,0,1-1.39-2.516,6.11,6.11,0,0,1-.24-2.947l-5.8-1.965A5.177,5.177,0,0,1,8.17-937a5.36,5.36,0,0,1-2.707.671,5.268,5.268,0,0,1-3.869-1.593A5.268,5.268,0,0,1,0-941.792a5.268,5.268,0,0,1,1.593-3.869,5.268,5.268,0,0,1,3.869-1.593,5.268,5.268,0,0,1,3.869,1.593,5.268,5.268,0,0,1,1.593,3.869v.192l5.846,2.012a6.686,6.686,0,0,1,2.084-2.348,8.018,8.018,0,0,1,2.707-1.15v-6.181a5.219,5.219,0,0,1-2.947-2.06,5.5,5.5,0,0,1-1.078-3.21,5.268,5.268,0,0,1,1.593-3.869A5.268,5.268,0,0,1,23-960a5.268,5.268,0,0,1,3.869,1.593,5.268,5.268,0,0,1,1.593,3.869,5.42,5.42,0,0,1-1.1,3.21,5.326,5.326,0,0,1-2.923,2.06v6.181a8.28,8.28,0,0,1,2.731,1.15,6.588,6.588,0,0,1,2.108,2.348l5.8-2.012v-.192a5.268,5.268,0,0,1,1.593-3.869,5.268,5.268,0,0,1,3.869-1.593,5.268,5.268,0,0,1,3.869,1.593A5.268,5.268,0,0,1,46-941.792a5.268,5.268,0,0,1-1.593,3.869,5.268,5.268,0,0,1-3.869,1.593A5.493,5.493,0,0,1,37.806-937a4.778,4.778,0,0,1-1.869-1.869l-5.8,1.965a6.308,6.308,0,0,1-.216,2.947,7.116,7.116,0,0,1-1.414,2.516l4.073,5.079a5.663,5.663,0,0,1,1.03-.359,5,5,0,0,1,1.153-.12,5.282,5.282,0,0,1,3.9,1.593,5.288,5.288,0,0,1,1.581,3.869,5.268,5.268,0,0,1-1.593,3.869,5.268,5.268,0,0,1-3.869,1.593,5.268,5.268,0,0,1-3.869-1.593,5.268,5.268,0,0,1-1.593-3.869,5.286,5.286,0,0,1,.264-1.725,6.463,6.463,0,0,1,.743-1.485l-4.073-5.079a6.922,6.922,0,0,1-3.285.815,6.887,6.887,0,0,1-3.279-.815l-4.025,5.127a6.638,6.638,0,0,1,.743,1.461,5.073,5.073,0,0,1,.264,1.7,5.268,5.268,0,0,1-1.593,3.869A5.268,5.268,0,0,1,11.212-915.917ZM5.464-939.2a2.5,2.5,0,0,0,1.843-.744,2.508,2.508,0,0,0,.743-1.845,2.5,2.5,0,0,0-.744-1.843,2.508,2.508,0,0,0-1.845-.743,2.5,2.5,0,0,0-1.843.744,2.508,2.508,0,0,0-.743,1.845,2.5,2.5,0,0,0,.744,1.843A2.508,2.508,0,0,0,5.464-939.2Zm5.75,20.412a2.5,2.5,0,0,0,1.843-.744,2.508,2.508,0,0,0,.743-1.845,2.5,2.5,0,0,0-.744-1.843,2.508,2.508,0,0,0-1.845-.743,2.5,2.5,0,0,0-1.843.744,2.508,2.508,0,0,0-.743,1.845,2.5,2.5,0,0,0,.744,1.843A2.508,2.508,0,0,0,11.214-918.792ZM23-951.95a2.5,2.5,0,0,0,1.843-.744,2.508,2.508,0,0,0,.743-1.845,2.5,2.5,0,0,0-.744-1.843A2.508,2.508,0,0,0,23-957.125a2.5,2.5,0,0,0-1.843.744,2.508,2.508,0,0,0-.743,1.845,2.5,2.5,0,0,0,.744,1.843A2.508,2.508,0,0,0,23-951.95Zm.022,20.221A4.1,4.1,0,0,0,26.067-933a4.219,4.219,0,0,0,1.246-3.067,4.131,4.131,0,0,0-1.251-3.043A4.172,4.172,0,0,0,23-940.354a4.183,4.183,0,0,0-3.043,1.251,4.132,4.132,0,0,0-1.27,3.062A4.151,4.151,0,0,0,19.957-933,4.179,4.179,0,0,0,23.024-931.729Zm11.765,12.938a2.5,2.5,0,0,0,1.843-.744,2.508,2.508,0,0,0,.743-1.845,2.5,2.5,0,0,0-.744-1.843,2.508,2.508,0,0,0-1.845-.743,2.5,2.5,0,0,0-1.843.744,2.508,2.508,0,0,0-.743,1.845,2.5,2.5,0,0,0,.744,1.843,2.508,2.508,0,0,0,1.845.743Zm5.75-20.412a2.5,2.5,0,0,0,1.843-.744,2.508,2.508,0,0,0,.743-1.845,2.5,2.5,0,0,0-.744-1.843,2.508,2.508,0,0,0-1.845-.743,2.5,2.5,0,0,0-1.843.744,2.508,2.508,0,0,0-.743,1.845,2.5,2.5,0,0,0,.744,1.843,2.508,2.508,0,0,0,1.845.743ZM23-954.537ZM5.463-941.792ZM23-936.042ZM40.537-941.792ZM11.212-921.379ZM34.787-921.379Z" transform="translate(-4608 582)" fill="#22b10d"/>
  </g>
</svg>
