<svg xmlns="http://www.w3.org/2000/svg" width="48" height="48" viewBox="0 0 48 48">
  <g id="reporting" transform="translate(4486 606)">
    <rect id="Rectangle_1431" data-name="Rectangle 1431" width="48" height="48" transform="translate(-4486 -606)" fill="#06b4bb" opacity="0"/>
    <path id="description_FILL0_wght400_GRAD0_opsz48" d="M168.58-846h17.376v-3.238H168.58Zm0-9.174h17.376v-3.238H168.58Zm-5.342,18.348a3.106,3.106,0,0,1-2.266-.971,3.106,3.106,0,0,1-.971-2.266v-36.7a3.106,3.106,0,0,1,.971-2.266,3.106,3.106,0,0,1,2.266-.971h19.481l11.818,11.818v28.115a3.106,3.106,0,0,1-.971,2.266,3.106,3.106,0,0,1-2.266.971Zm17.862-29.9v-10.037H163.238v36.7H191.3v-26.658Zm-17.862-10.037v0Z" transform="translate(-4639 276)" fill="#06b4bb"/>
  </g>
</svg>
