<svg xmlns="http://www.w3.org/2000/svg" width="156" height="48" viewBox="0 0 156 48">
  <g id="Amazon" transform="translate(-3162 -1476)">
    <rect id="Rectangle_1556" data-name="Rectangle 1556" width="156" height="48" transform="translate(3162 1476)" fill="#fff" opacity="0"/>
    <g id="Amazon_logo" transform="translate(3168.636 1478.754)">
      <path id="path8" d="M153.546,122.237c-8.292,6.112-20.311,9.373-30.658,9.373a55.478,55.478,0,0,1-37.453-14.292c-.776-.7-.081-1.658.851-1.112a75.381,75.381,0,0,0,37.472,9.938,74.514,74.514,0,0,0,28.584-5.845c1.4-.6,2.578.919,1.2,1.938" transform="translate(-64.661 -88.364)" fill="#f90"/>
      <path id="path10" d="M355.169,113.49c-1.056-1.354-7.006-.64-9.677-.323-.814.1-.938-.609-.2-1.118,4.739-3.335,12.516-2.373,13.422-1.255s-.236,8.919-4.689,12.64c-.683.571-1.335.267-1.031-.491,1-2.5,3.242-8.093,2.18-9.453" transform="translate(-262.836 -83.56)" fill="#f90"/>
      <path id="path12" d="M345.837,6.982V3.74a.8.8,0,0,1,.82-.82h14.516a.808.808,0,0,1,.839.82V6.516a4.568,4.568,0,0,1-1.093,2.037L353.4,19.293a16.027,16.027,0,0,1,8.28,1.776,1.477,1.477,0,0,1,.77,1.261v3.46c0,.472-.522,1.025-1.068.739a16.721,16.721,0,0,0-15.335.025c-.5.273-1.031-.273-1.031-.745V22.523a3.921,3.921,0,0,1,.534-2.23l8.714-12.5h-7.584a.8.8,0,0,1-.839-.814" transform="translate(-262.994 -2.041)" fill="#221f1f"/>
      <path id="path14" d="M108.234,25.872h-4.416a.834.834,0,0,1-.789-.752V2.456a.829.829,0,0,1,.851-.814H108a.832.832,0,0,1,.8.758V5.362h.081a5.829,5.829,0,0,1,5.814-4.2c2.764,0,4.491,1.335,5.733,4.2a6.522,6.522,0,0,1,11.211-1.721c1.4,1.907,1.112,4.677,1.112,7.106l-.006,14.3a.834.834,0,0,1-.851.82h-4.41a.839.839,0,0,1-.8-.82V13.039a28.37,28.37,0,0,0-.124-4.248,2.3,2.3,0,0,0-2.6-1.95,2.934,2.934,0,0,0-2.64,1.857,13.721,13.721,0,0,0-.41,4.342V25.052a.834.834,0,0,1-.851.82h-4.41a.835.835,0,0,1-.8-.82l-.006-12.012c0-2.528.416-6.248-2.721-6.248-3.174,0-3.05,3.627-3.05,6.248V25.052a.834.834,0,0,1-.851.82" transform="translate(-78.342 -0.7)" fill="#221f1f"/>
      <path id="path16" d="M437.505,1.164c6.553,0,10.1,5.627,10.1,12.783,0,6.913-3.919,12.4-10.1,12.4-6.435,0-9.938-5.627-9.938-12.64,0-7.056,3.547-12.54,9.938-12.54m.037,4.627c-3.255,0-3.46,4.435-3.46,7.2s-.044,8.683,3.422,8.683c3.422,0,3.584-4.77,3.584-7.677a20.953,20.953,0,0,0-.658-6.012,2.763,2.763,0,0,0-2.888-2.193" transform="translate(-325.992 -0.7)" fill="#221f1f"/>
      <path id="path18" d="M531.263,25.872h-4.4a.839.839,0,0,1-.8-.82l-.006-22.671a.835.835,0,0,1,.851-.739h4.093a.845.845,0,0,1,.789.634V5.741h.081c1.236-3.1,2.969-4.578,6.019-4.578a5.794,5.794,0,0,1,5.155,2.671c1.155,1.814,1.155,4.863,1.155,7.056V25.157a.848.848,0,0,1-.851.714h-4.429a.836.836,0,0,1-.783-.714V12.847c0-2.478.286-6.106-2.764-6.106a2.886,2.886,0,0,0-2.553,1.814,10.031,10.031,0,0,0-.7,4.292v12.2a.849.849,0,0,1-.863.82" transform="translate(-401.153 -0.7)" fill="#221f1f"/>
      <path id="use28" d="M13.376,14.345v-.957c-3.193,0-6.565.683-6.565,4.447,0,1.907.988,3.2,2.683,3.2a3.581,3.581,0,0,0,3.056-2.006,8.639,8.639,0,0,0,.826-4.683M17.83,25.109a.922.922,0,0,1-1.043.106,10.873,10.873,0,0,1-2.534-2.944c-2.422,2.472-4.137,3.211-7.28,3.211C3.258,25.482.364,23.19.364,18.6a7.5,7.5,0,0,1,4.708-7.217c2.4-1.056,5.745-1.242,8.3-1.534V9.277a5.682,5.682,0,0,0-.534-3.2,2.955,2.955,0,0,0-2.478-1.149A3.366,3.366,0,0,0,6.811,7.581a.924.924,0,0,1-.764.807l-4.286-.46A.782.782,0,0,1,1.1,7C2.091,1.811,6.78.246,10.979.246c2.149,0,4.957.571,6.652,2.2,2.149,2.006,1.944,4.683,1.944,7.6v6.882a6.04,6.04,0,0,0,1.665,4.093.83.83,0,0,1-.012,1.174c-.9.752-2.5,2.149-3.385,2.932l-.012-.012" transform="translate(57.894 0)" fill="#221f1f"/>
      <path id="path30" d="M13.376,14.345v-.957c-3.193,0-6.565.683-6.565,4.447,0,1.907.988,3.2,2.683,3.2a3.581,3.581,0,0,0,3.056-2.006,8.639,8.639,0,0,0,.826-4.683M17.83,25.109a.922.922,0,0,1-1.043.106,10.873,10.873,0,0,1-2.534-2.944c-2.422,2.472-4.137,3.211-7.28,3.211C3.258,25.482.364,23.19.364,18.6a7.5,7.5,0,0,1,4.708-7.217c2.4-1.056,5.745-1.242,8.3-1.534V9.277a5.682,5.682,0,0,0-.534-3.2,2.955,2.955,0,0,0-2.478-1.149A3.366,3.366,0,0,0,6.811,7.581a.924.924,0,0,1-.764.807l-4.286-.46A.782.782,0,0,1,1.1,7C2.091,1.811,6.78.246,10.979.246c2.149,0,4.957.571,6.652,2.2,2.149,2.006,1.944,4.683,1.944,7.6v6.882a6.04,6.04,0,0,0,1.665,4.093.83.83,0,0,1-.012,1.174c-.9.752-2.5,2.149-3.385,2.932l-.012-.012" transform="translate(0 0)" fill="#221f1f"/>
    </g>
  </g>
</svg>
