<svg xmlns="http://www.w3.org/2000/svg" xmlns:xlink="http://www.w3.org/1999/xlink" width="107" height="48" viewBox="0 0 107 48">
  <defs>
    <clipPath id="clip-path">
      <rect id="Rectangle_1552" data-name="Rectangle 1552" width="100.518" height="40.728" fill="none"/>
    </clipPath>
  </defs>
  <g id="BCG" transform="translate(-3203 -1804)">
    <rect id="Rectangle_1520" data-name="Rectangle 1520" width="107" height="48" transform="translate(3203 1804)" fill="#fff" opacity="0"/>
    <g id="Group_6783" data-name="Group 6783" transform="translate(3206 1808)">
      <g id="Group_6782" data-name="Group 6782" clip-path="url(#clip-path)">
        <path id="Path_3829" data-name="Path 3829" d="M31.163,34.063a12.25,12.25,0,0,1-9.13,5.705,23.894,23.894,0,0,1-2.537.1q-9.719.014-19.432,0A.056.056,0,0,1,0,39.808V.932A.065.065,0,0,1,.065.867q8.736,0,17.5,0,1.759,0,2.537.088a11.573,11.573,0,0,1,9.916,7.414q.029.084.084.014Q31.187,7,31.55,6.622A21.191,21.191,0,0,1,51.46.456,19.013,19.013,0,0,1,58.649,3.43a.078.078,0,0,1,.023.107L54.438,10.19a.05.05,0,0,1-.08.017,12.846,12.846,0,0,0-20.042,7.776,12.565,12.565,0,0,0,7.132,13.7A12.425,12.425,0,0,0,55.375,29.43c2.249-2.149,3.208-4.741,3.888-7.706a60.288,60.288,0,0,1,2.119-8.235A20.655,20.655,0,0,1,75.868.592a21.62,21.62,0,0,1,16.98,2.947.083.083,0,0,1,.023.111L88.7,10.286a.079.079,0,0,1-.13.025,12.72,12.72,0,0,0-13.38-1.024,12.566,12.566,0,0,0,5.461,23.634A11.265,11.265,0,0,0,91.77,24.545q.014-.046-.034-.046H79.724a.046.046,0,0,1-.038-.07L84.422,17a.122.122,0,0,1,.1-.057h15.663a.054.054,0,0,1,.053.046C101.9,27.1,95.978,37.177,86.055,39.971A20.933,20.933,0,0,1,65.7,34.6a23.747,23.747,0,0,1-2.085-2.537q-.048-.065-.1,0a20.06,20.06,0,0,1-13.657,8.409A20.831,20.831,0,0,1,31.28,34.051a.074.074,0,0,0-.1,0,.078.078,0,0,0-.013.015M8.5,8.247l.015,8.277a.117.117,0,0,0,.117.116l9.517-.017a4.279,4.279,0,0,0,4.31-4.248v-.03a4.279,4.279,0,0,0-4.325-4.233h0l-9.517.017a.117.117,0,0,0-.117.117h0m.011,15.6v8.679a.083.083,0,0,0,.083.083H19.983a4.519,4.519,0,0,0,4.639-4.389V28.15a4.519,4.519,0,0,0-4.639-4.389H8.6a.083.083,0,0,0-.083.083" transform="translate(0 -0.001)" fill="#137b58"/>
      </g>
    </g>
  </g>
</svg>
