<svg xmlns="http://www.w3.org/2000/svg" xmlns:xlink="http://www.w3.org/1999/xlink" width="183" height="48" viewBox="0 0 183 48">
  <defs>
    <clipPath id="clip-path">
      <path id="Path_3753" data-name="Path 3753" d="M679.854,41.3a.257.257,0,0,0-.069.144q0,17.187-.006,34.368a2.781,2.781,0,0,0,.88,1.584c.019.006.063.012.081.019a2.167,2.167,0,0,0,.873.474,1.421,1.421,0,0,1,.325.033,1.272,1.272,0,0,0,.361.03h18.338c.048,0,.1,0,.144,0a.923.923,0,0,0,.38-.044c.006-.025.013-.069.019-.093s.013-.1.019-.137c.393-2.2.774-4.4,1.192-6.593l.037-.281c-1.7-.006-3.4,0-5.1-.006-.412-.012-.836,0-1.247-.05-.7-.031-1.416-.006-2.121-.075-.873,0-1.74-.081-2.614-.081-.686-.069-1.378-.044-2.071-.075-.449-.056-.911-.031-1.366-.05-.742-.081-1.5-.025-2.239-.106-.786.006-1.572-.062-2.358-.081a.089.089,0,0,0,.012-.037c.262.006.518-.012.78-.019.58-.075,1.166-.025,1.746-.106.605,0,1.2-.081,1.809-.081.536-.075,1.079-.031,1.615-.106.63,0,1.247-.081,1.878-.087.518-.069,1.042-.031,1.559-.1.3,0,.6-.019.9-.041s.6-.044.905-.04c.593-.069,1.2-.05,1.79-.112-.056-.231-.1-.462-.149-.693-.044-.143-.218-.112-.331-.131q-2.03-.29-4.048-.574a.319.319,0,0,1,.211-.047.715.715,0,0,0,.1,0c1.048-.081,2.09-.174,3.137-.249.237-.012.468-.056.7-.062a8.109,8.109,0,0,0-.312-.979c-2.239-.343-4.479-.649-6.712-1.017.58-.094,1.167-.137,1.747-.2l.05-.019c1.852-.193,3.711-.412,5.564-.593,2.351-.012,4.7-.006,7.048,0a.421.421,0,0,1,.066,0c.068,0,.143,0,.152-.078.193-1.01.38-2.021.574-3.031a15.148,15.148,0,0,1,1.347-4.067,12,12,0,0,1,4.641-4.965,13.374,13.374,0,0,1,6.132-1.709,9.634,9.634,0,0,1,2.077.044,2.9,2.9,0,0,1,1.266.536,2.127,2.127,0,0,1,.6.936,14.89,14.89,0,0,1,.586,2.557,1.977,1.977,0,0,1-.118,1.06,1.341,1.341,0,0,1-.854.555c-1.2.312-2.464.019-3.668.312a4.462,4.462,0,0,0-2.545,1.553A7.236,7.236,0,0,0,712.22,61.9c-.168,1.023-.38,2.046-.549,3.075.509,0,1.019,0,1.53,0,.678,0,1.358,0,2.038.005a1.256,1.256,0,0,1,1.154.711,3.433,3.433,0,0,1,.112,1.828,6.655,6.655,0,0,1-.568,1.977,2.233,2.233,0,0,1-1.26,1.2,2.514,2.514,0,0,1-.942.094c-1.048,0-2.1.012-3.144,0-.168.767-.281,1.553-.43,2.333-.275,1.516-.543,3.038-.817,4.56-.006.05-.012.156-.012.212.281.014.564.012.845.01.211,0,.422,0,.633,0,3.655,0,7.317-.006,10.978,0a2.184,2.184,0,0,0,1.135-.275c.206-.075.331-.255.511-.355s.225-.306.374-.437a2.079,2.079,0,0,0,.343-.923.55.55,0,0,0,.093-.013c-.019-11.477,0-22.954-.013-34.43-.019-.062-.038-.125-.062-.187q-22.165.009-44.317.006" transform="translate(-679.779 -41.294)" fill="none"/>
    </clipPath>
    <linearGradient id="linear-gradient" x1="-2.764" y1="1" x2="-2.76" y2="1" gradientUnits="objectBoundingBox">
      <stop offset="0" stop-color="#f7e830"/>
      <stop offset="1" stop-color="#fdcb06"/>
    </linearGradient>
    <clipPath id="clip-path-2">
      <rect id="Rectangle_1541" data-name="Rectangle 1541" width="167.381" height="44.135" fill="none"/>
    </clipPath>
    <clipPath id="clip-path-3">
      <path id="Path_3763" data-name="Path 3763" d="M692.773,5.095a1.357,1.357,0,0,1-.7-.48,1.171,1.171,0,0,1-.094-1.135,1.116,1.116,0,0,1,.817-.668,1.175,1.175,0,0,1,1.4,1.167,1.2,1.2,0,0,1-1.179,1.144,1.017,1.017,0,0,1-.237-.028m17.839-.368a1.164,1.164,0,1,1,1.435.243,1.124,1.124,0,0,1-.545.139,1.239,1.239,0,0,1-.89-.382M686.285.579a2.443,2.443,0,0,0-.405.106c-.8.306-1.6.6-2.4.9-.106.019-.162.112-.218.193a1.856,1.856,0,0,1,.013.187c.549.231,1.135.362,1.69.586.3.118.393.443.524.7l.043.044c.044.324.013.655.025.979-.019.973.019,1.952-.025,2.925-1.815,0-3.63-.012-5.445,0-.031.112.025.206.143.175.784,0,1.567,0,2.35,0,1.173,0,2.345,0,3.52-.016,2.913,0,5.82.006,8.732,0l.044-.019a1.692,1.692,0,0,0,.4.019q7.915,0,15.837,0c1.659.006,3.324,0,4.99,0,2.744,0,5.5.025,8.24.013.081-.019.106-.075.075-.175q-1.167,0-2.331,0c-1.035,0-2.07,0-3.108.005a7.414,7.414,0,0,1-.019-.742c0-1-.013-2-.006-2.994a.388.388,0,0,1,.062-.218c.131-.262.231-.58.53-.7.555-.218,1.135-.368,1.691-.586a.344.344,0,0,0-.1-.349c-.749-.268-1.491-.555-2.233-.83a2.553,2.553,0,0,0-.736-.212Z" transform="translate(-680.077 -0.579)" fill="none"/>
    </clipPath>
    <radialGradient id="radial-gradient" cx="0.496" cy="3.523" r="4.362" gradientUnits="objectBoundingBox">
      <stop offset="0" stop-color="#f29405"/>
      <stop offset="0.596" stop-color="#f29405"/>
      <stop offset="0.736" stop-color="#f7d01e"/>
      <stop offset="1" stop-color="#fdcb06"/>
    </radialGradient>
    <clipPath id="clip-path-5">
      <path id="Path_3765" data-name="Path 3765" d="M855.863,48.683a.813.813,0,0,1-.211.068c-.106.025.436.564.348.545l.082.421c.012.312.193.362.137.667a.6.6,0,0,0,.316-.137,1.129,1.129,0,0,0,.344-.53c.052-.208.165-.769-.292-1.008a.8.8,0,0,0-.375-.094,1.03,1.03,0,0,0-.35.068" transform="translate(-855.638 -48.615)" fill="none"/>
    </clipPath>
    <linearGradient id="linear-gradient-2" x1="-102.41" y1="19.8" x2="-102.29" y2="19.8" gradientUnits="objectBoundingBox">
      <stop offset="0" stop-color="#fada1c"/>
      <stop offset="1" stop-color="#fdcb06"/>
    </linearGradient>
    <clipPath id="clip-path-7">
      <path id="Path_3767" data-name="Path 3767" d="M742.992,48.249c-.457.24-.344.8-.292,1.008a1.132,1.132,0,0,0,.344.53.6.6,0,0,0,.316.137c-.056-.306.125-.355.137-.667l.082-.421c-.087.019.454-.521.348-.545a.811.811,0,0,1-.211-.068,1.03,1.03,0,0,0-.35-.068.8.8,0,0,0-.375.094" transform="translate(-742.649 -48.155)" fill="none"/>
    </clipPath>
    <linearGradient id="linear-gradient-3" x1="-75.049" y1="23.379" x2="-74.948" y2="23.379" xlink:href="#linear-gradient-2"/>
    <clipPath id="clip-path-9">
      <path id="Path_3780" data-name="Path 3780" d="M765.374,48.792c-.25.337-.131.767-.144,1.148,0,.025.006.069.006.093a4.377,4.377,0,0,1-.075.755.535.535,0,0,0-.056.243,5.749,5.749,0,0,1-.605,1.7.633.633,0,0,0-.119.243,8.444,8.444,0,0,1-.642.923.8.8,0,0,0-.1.106,6.066,6.066,0,0,1-.518.543c-.044.025-.075.056-.112.081a4.063,4.063,0,0,1-.7.555c-.031.019-.062.044-.1.068a10.028,10.028,0,0,1-5.426,1.51,10.136,10.136,0,0,1-4.666-.986c-.025-.012-.087-.037-.112-.05a6.216,6.216,0,0,1-.717-.405c-.05-.025-.1-.056-.156-.081a4.775,4.775,0,0,1-.655-.462c-.068-.063-.143-.112-.218-.169a5.308,5.308,0,0,1-.649-.592c-.05-.056-.1-.106-.15-.156a6.215,6.215,0,0,1-1.491-2.5,7.7,7.7,0,0,1-.262-2.333.836.836,0,0,0-1.073-.324c-.156.112-.175.318-.293.462a7.327,7.327,0,0,0,2.09,5.6.1.1,0,0,0,.069.1c.249.231.493.468.742.692a.97.97,0,0,0,.15.125c.25.206.518.393.78.586a1.333,1.333,0,0,0,.156.1,7,7,0,0,0,1.035.574.789.789,0,0,0,.094.063,11.252,11.252,0,0,0,3.773,1.079,2.023,2.023,0,0,1,.43.044c.624.038,1.248.019,1.871.006a11.223,11.223,0,0,0,5.526-1.771l.019.025c.05-.044.094-.081.143-.119.256-.187.505-.387.755-.592a1.934,1.934,0,0,0,.175-.15,8.224,8.224,0,0,0,.823-.917l.037.019c.019-.031.05-.094.069-.125.212-.287.405-.586.592-.886.012-.019.044-.05.056-.069l-.025-.025c.019-.025.063-.075.081-.1a7.316,7.316,0,0,0,.755-2.2.107.107,0,0,0,.069-.1,5.845,5.845,0,0,0,.069-.736,4.255,4.255,0,0,0,.049-.93.662.662,0,0,1-.056-.312l-.05.006a.709.709,0,0,0-.605-.549c-.048,0-.1-.007-.149-.007a.535.535,0,0,0-.488.206" transform="translate(-746.311 -48.586)" fill="none"/>
    </clipPath>
  </defs>
  <g id="Flipkart" transform="translate(-3004 -1223)">
    <rect id="Rectangle_1523" data-name="Rectangle 1523" width="183" height="48" transform="translate(3004 1223)" fill="#fff" opacity="0"/>
    <g id="Group_6775" data-name="Group 6775" transform="translate(3012 1225)">
      <g id="Group_6756" data-name="Group 6756" transform="translate(122.888 7.465)">
        <g id="Group_6755" data-name="Group 6755" clip-path="url(#clip-path)">
          <rect id="Rectangle_1540" data-name="Rectangle 1540" width="44.467" height="36.671" transform="translate(0 0)" fill="url(#linear-gradient)"/>
        </g>
      </g>
      <g id="Group_6758" data-name="Group 6758">
        <g id="Group_6757" data-name="Group 6757" clip-path="url(#clip-path-2)">
          <path id="Path_3754" data-name="Path 3754" d="M724.234,41.481c-.019-.062-.038-.125-.062-.187q-22.165.009-44.317.006a.258.258,0,0,0-.069.144q0,17.187-.006,34.368a2.781,2.781,0,0,0,.88,1.584c.019.006.062.012.081.019a2.171,2.171,0,0,0,.873.474c.231-.012.455.087.686.062h18.338a1.482,1.482,0,0,0,.524-.044c.006-.025.013-.069.019-.094s.012-.1.019-.137c.393-2.2.773-4.4,1.192-6.593l.037-.281c-1.7-.006-3.4,0-5.1-.006-.412-.012-.836,0-1.247-.05-.7-.031-1.416-.006-2.121-.075-.873,0-1.74-.081-2.614-.081-.686-.069-1.378-.044-2.071-.075-.449-.056-.911-.031-1.366-.05-.742-.081-1.5-.025-2.239-.106-.786.007-1.572-.062-2.358-.081a.089.089,0,0,0,.013-.037c.262.006.518-.012.78-.019.58-.075,1.166-.025,1.746-.106.605,0,1.2-.081,1.809-.081.536-.075,1.079-.031,1.615-.106.63,0,1.247-.081,1.878-.087.518-.069,1.042-.031,1.559-.1.605.006,1.2-.087,1.809-.081.593-.069,1.2-.05,1.79-.112-.056-.231-.1-.462-.15-.692-.044-.143-.218-.112-.33-.131q-2.031-.29-4.048-.574c.087-.069.206-.037.306-.05,1.048-.081,2.089-.175,3.137-.249.237-.012.468-.056.7-.062a8.2,8.2,0,0,0-.312-.979c-2.239-.343-4.479-.649-6.712-1.017.58-.094,1.166-.137,1.746-.2l.05-.019c1.852-.193,3.711-.412,5.564-.593,2.351-.012,4.7-.006,7.048,0,.075-.012.206.025.218-.081.193-1.01.38-2.021.574-3.031a15.132,15.132,0,0,1,1.347-4.067,11.994,11.994,0,0,1,4.641-4.965,13.371,13.371,0,0,1,6.131-1.709,9.634,9.634,0,0,1,2.077.044,2.9,2.9,0,0,1,1.266.537,2.124,2.124,0,0,1,.6.936,14.89,14.89,0,0,1,.586,2.557,1.975,1.975,0,0,1-.118,1.06,1.342,1.342,0,0,1-.854.555c-1.2.312-2.464.019-3.668.312a4.462,4.462,0,0,0-2.545,1.553A7.235,7.235,0,0,0,712.22,61.9c-.168,1.023-.38,2.046-.549,3.075,1.185.006,2.377-.006,3.568.006a1.255,1.255,0,0,1,1.154.711,3.429,3.429,0,0,1,.112,1.828,6.663,6.663,0,0,1-.568,1.977,2.233,2.233,0,0,1-1.26,1.2,2.513,2.513,0,0,1-.942.094c-1.048,0-2.1.012-3.144,0-.169.767-.281,1.553-.43,2.333-.274,1.516-.542,3.038-.817,4.56-.006.05-.013.156-.013.212.493.025.986,0,1.478.012,3.655,0,7.316-.006,10.978,0a2.184,2.184,0,0,0,1.135-.274c.206-.075.331-.256.511-.355s.225-.306.374-.437a2.078,2.078,0,0,0,.343-.923.564.564,0,0,0,.094-.012C724.227,64.435,724.246,52.958,724.234,41.481Z" transform="translate(-556.891 -33.829)" fill="none" stroke="#fcd109" stroke-width="0.094"/>
          <path id="Path_3755" data-name="Path 3755" d="M685.565.144A6.772,6.772,0,0,1,687.193.05q15.279.009,30.557,0a5.142,5.142,0,0,1,1.7.493c.449.181.917.324,1.366.518a.746.746,0,0,1,.231.187c-.006.823,0,1.653,0,2.482a2.1,2.1,0,0,0,.044.655c.131.019.2.119.287.2a8.451,8.451,0,0,1,1.135.742c.561.4,1.16.749,1.709,1.16a1.039,1.039,0,0,1-.044.48,2.614,2.614,0,0,0-.037.536q-22.165.009-44.317.006a2.166,2.166,0,0,0-.062-.6c-.013-.162-.068-.374.087-.487.624-.437,1.285-.83,1.9-1.291.38-.243.748-.493,1.116-.742a.793.793,0,0,0,.05-.418c0-.9,0-1.809.006-2.713.212-.274.58-.306.873-.443.593-.225,1.192-.443,1.778-.667M685.6.25c-.8.306-1.6.6-2.4.9-.106.019-.162.112-.218.193a1.852,1.852,0,0,1,.012.187c-.006.748,0,1.5-.006,2.245a1.567,1.567,0,0,0,.05.543,1.542,1.542,0,0,1-.268.225c-.9.586-1.778,1.223-2.682,1.8-.156.093-.331.218-.281.424-.031.112.025.206.144.175,1.959-.012,3.911.012,5.87-.019,2.913,0,5.82.006,8.732,0l.044-.019a1.7,1.7,0,0,0,.4.019q7.915,0,15.837,0c1.659.006,3.325,0,4.99,0,2.744,0,5.5.025,8.24.012.081-.019.106-.075.075-.175-.006-.1.031-.237-.075-.3-.437-.206-.811-.524-1.229-.773-.149-.125-.343-.193-.455-.362-.43-.243-.83-.543-1.254-.811a1.277,1.277,0,0,1-.212-.2,1.52,1.52,0,0,0,.05-.412c-.006-.792,0-1.584-.006-2.376a.345.345,0,0,0-.1-.349c-.749-.268-1.491-.555-2.233-.83a2.545,2.545,0,0,0-.736-.212h-31.88A2.436,2.436,0,0,0,685.6.25" transform="translate(-556.857 -0.039)" fill="#f8f3b5"/>
          <path id="Path_3756" data-name="Path 3756" d="M685.565.144A6.772,6.772,0,0,1,687.193.05q15.279.009,30.557,0a5.142,5.142,0,0,1,1.7.493c.449.181.917.324,1.366.518a.746.746,0,0,1,.231.187c-.006.823,0,1.653,0,2.482a2.1,2.1,0,0,0,.044.655c.131.019.2.119.287.2a8.451,8.451,0,0,1,1.135.742c.561.4,1.16.749,1.709,1.16a1.039,1.039,0,0,1-.044.48,2.614,2.614,0,0,0-.037.536q-22.165.009-44.317.006a2.166,2.166,0,0,0-.062-.6c-.013-.162-.068-.374.087-.487.624-.437,1.285-.83,1.9-1.291.38-.243.748-.493,1.116-.742a.793.793,0,0,0,.05-.418c0-.9,0-1.809.006-2.713.212-.274.58-.306.873-.443.593-.225,1.192-.443,1.778-.667M685.6.25c-.8.306-1.6.6-2.4.9-.106.019-.162.112-.218.193a1.852,1.852,0,0,1,.012.187c-.006.748,0,1.5-.006,2.245a1.567,1.567,0,0,0,.05.543,1.542,1.542,0,0,1-.268.225c-.9.586-1.778,1.223-2.682,1.8-.156.093-.331.218-.281.424-.031.112.025.206.144.175,1.959-.012,3.911.012,5.87-.019,2.913,0,5.82.006,8.732,0l.044-.019a1.7,1.7,0,0,0,.4.019q7.915,0,15.837,0c1.659.006,3.325,0,4.99,0,2.744,0,5.5.025,8.24.012.081-.019.106-.075.075-.175-.006-.1.031-.237-.075-.3-.437-.206-.811-.524-1.229-.773-.149-.125-.343-.193-.455-.362-.43-.243-.83-.543-1.254-.811a1.277,1.277,0,0,1-.212-.2,1.52,1.52,0,0,0,.05-.412c-.006-.792,0-1.584-.006-2.376a.345.345,0,0,0-.1-.349c-.749-.268-1.491-.555-2.233-.83a2.545,2.545,0,0,0-.736-.212h-31.88A2.436,2.436,0,0,0,685.6.25Z" transform="translate(-556.857 -0.039)" fill="none" stroke="#f8f3b5" stroke-width="0.094"/>
          <path id="Path_3757" data-name="Path 3757" d="M697.727,8.274c.549.231,1.135.362,1.69.586.3.119.393.443.524.7a2.594,2.594,0,0,1-.443.337c-.574.387-1.16.761-1.728,1.16a1.567,1.567,0,0,1-.05-.543c.006-.748,0-1.5.006-2.245M734,8.86c.555-.218,1.135-.368,1.69-.586.006.792,0,1.584.006,2.376a1.52,1.52,0,0,1-.05.412c-.487-.337-.979-.655-1.466-.986a5.732,5.732,0,0,1-.711-.518C733.6,9.3,733.7,8.979,734,8.86Z" transform="translate(-571.59 -6.778)" fill="#f7b402"/>
          <path id="Path_3758" data-name="Path 3758" d="M697.727,8.274c.549.231,1.135.362,1.69.586.3.119.393.443.524.7a2.594,2.594,0,0,1-.443.337c-.574.387-1.16.761-1.728,1.16a1.567,1.567,0,0,1-.05-.543C697.727,9.771,697.721,9.022,697.727,8.274ZM734,8.86c.555-.218,1.135-.368,1.69-.586.006.792,0,1.584.006,2.376a1.52,1.52,0,0,1-.05.412c-.487-.337-.979-.655-1.466-.986a5.732,5.732,0,0,1-.711-.518C733.6,9.3,733.7,8.979,734,8.86Z" transform="translate(-571.59 -6.778)" fill="none" stroke="#f7b402" stroke-width="0.094"/>
          <path id="Path_3759" data-name="Path 3759" d="M746.228,12.808a1.175,1.175,0,0,1,1.4,1.166,1.188,1.188,0,0,1-1.416,1.117,1.357,1.357,0,0,1-.7-.48,1.171,1.171,0,0,1-.093-1.135,1.115,1.115,0,0,1,.817-.667m17.8.393a1.2,1.2,0,0,1,1.166-.387,1.167,1.167,0,0,1,.293,2.152,1.2,1.2,0,0,1-1.435-.243,1.187,1.187,0,0,1-.025-1.522" transform="translate(-610.572 -10.471)" fill="#bda727"/>
          <path id="Path_3760" data-name="Path 3760" d="M746.228,12.808a1.175,1.175,0,0,1,1.4,1.166,1.188,1.188,0,0,1-1.416,1.117,1.357,1.357,0,0,1-.7-.48,1.171,1.171,0,0,1-.093-1.135A1.115,1.115,0,0,1,746.228,12.808Zm17.8.393a1.2,1.2,0,0,1,1.166-.387,1.167,1.167,0,0,1,.293,2.152,1.2,1.2,0,0,1-1.435-.243A1.187,1.187,0,0,1,764.023,13.2Z" transform="translate(-610.572 -10.471)" fill="none" stroke="#bda727" stroke-width="0.094"/>
          <path id="Path_3761" data-name="Path 3761" d="M685.044,15.724a2.6,2.6,0,0,0,.443-.337l.044.044c.044.324.012.655.025.979-.019.973.019,1.952-.025,2.926-1.815,0-3.63-.012-5.445,0-.05-.206.125-.331.281-.424.9-.58,1.778-1.216,2.682-1.8a1.553,1.553,0,0,0,.268-.225c.568-.4,1.154-.774,1.728-1.16m33.907-.125a.388.388,0,0,1,.062-.218,5.761,5.761,0,0,0,.711.518c.486.331.979.649,1.466.986a1.279,1.279,0,0,0,.212.2c.424.268.823.568,1.254.811.112.168.306.237.455.362.418.249.792.567,1.229.773.106.062.069.2.075.3-1.815.006-3.624-.006-5.439.006-.031-.249-.012-.5-.019-.742C718.957,17.6,718.945,16.6,718.951,15.6Z" transform="translate(-557.135 -12.6)" fill="#f7e62d"/>
          <path id="Path_3762" data-name="Path 3762" d="M685.044,15.724a2.6,2.6,0,0,0,.443-.337l.044.044c.044.324.012.655.025.979-.019.973.019,1.952-.025,2.926-1.815,0-3.63-.012-5.445,0-.05-.206.125-.331.281-.424.9-.58,1.778-1.216,2.682-1.8a1.553,1.553,0,0,0,.268-.225C683.884,16.485,684.47,16.111,685.044,15.724Zm33.907-.125a.388.388,0,0,1,.062-.218,5.761,5.761,0,0,0,.711.518c.486.331.979.649,1.466.986a1.279,1.279,0,0,0,.212.2c.424.268.823.568,1.254.811.112.168.306.237.455.362.418.249.792.567,1.229.773.106.062.069.2.075.3-1.815.006-3.624-.006-5.439.006-.031-.249-.012-.5-.019-.742C718.957,17.6,718.945,16.6,718.951,15.6Z" transform="translate(-557.135 -12.6)" fill="none" stroke="#f7e62d" stroke-width="0.094"/>
        </g>
      </g>
      <g id="Group_6760" data-name="Group 6760" transform="translate(122.942 0.105)">
        <g id="Group_6759" data-name="Group 6759" clip-path="url(#clip-path-3)">
          <rect id="Rectangle_1542" data-name="Rectangle 1542" width="44.392" height="6.836" transform="translate(-0.023 0)" fill="url(#radial-gradient)"/>
        </g>
      </g>
      <g id="Group_6762" data-name="Group 6762">
        <g id="Group_6761" data-name="Group 6761" clip-path="url(#clip-path-2)">
          <path id="Path_3764" data-name="Path 3764" d="M724.415,7.2c-1.815.006-3.624-.006-5.439.006-.031-.249-.012-.5-.019-.742,0-1-.012-2-.006-2.994a.388.388,0,0,1,.062-.218c.131-.262.231-.58.53-.7.555-.218,1.135-.368,1.69-.586a.345.345,0,0,0-.1-.349c-.748-.268-1.491-.555-2.233-.83a2.551,2.551,0,0,0-.736-.212h-31.88a2.43,2.43,0,0,0-.406.106c-.8.306-1.6.6-2.4.9-.106.019-.162.112-.218.193a1.852,1.852,0,0,1,.013.187c.549.231,1.135.362,1.69.586.3.118.393.443.524.7l.044.044c.044.324.013.655.025.979-.019.973.019,1.952-.025,2.925-1.815,0-3.63-.012-5.445,0-.031.112.025.206.143.175,1.959-.012,3.911.012,5.87-.019,2.913,0,5.82.006,8.732,0l.044-.019a1.694,1.694,0,0,0,.4.019q7.915,0,15.837,0c1.659.006,3.324,0,4.99,0,2.744,0,5.5.025,8.24.012C724.421,7.359,724.446,7.3,724.415,7.2ZM691.974,3.479a1.115,1.115,0,0,1,.817-.667,1.175,1.175,0,0,1,1.4,1.166,1.188,1.188,0,0,1-1.416,1.117,1.357,1.357,0,0,1-.7-.48A1.171,1.171,0,0,1,691.974,3.479ZM710.586,3.2a1.2,1.2,0,0,1,1.166-.387,1.167,1.167,0,0,1,.293,2.152,1.2,1.2,0,0,1-1.435-.243A1.187,1.187,0,0,1,710.586,3.2Z" transform="translate(-557.135 -0.474)" fill="none" stroke="#fcd109" stroke-width="0.094"/>
        </g>
      </g>
      <g id="Group_6764" data-name="Group 6764" transform="translate(154.679 8.788)">
        <g id="Group_6763" data-name="Group 6763" clip-path="url(#clip-path-5)">
          <rect id="Rectangle_1544" data-name="Rectangle 1544" width="1.509" height="1.785" transform="translate(-0.103 0) rotate(-0.344)" fill="url(#linear-gradient-2)"/>
        </g>
      </g>
      <g id="Group_6766" data-name="Group 6766">
        <g id="Group_6765" data-name="Group 6765" clip-path="url(#clip-path-2)">
          <path id="Path_3766" data-name="Path 3766" d="M856,49.3c.087.019-.455-.521-.349-.546a1.164,1.164,0,0,1,.936-.042c.457.24.344.8.292,1.008a1.127,1.127,0,0,1-.344.53.6.6,0,0,1-.316.137c.056-.306-.125-.355-.137-.667Z" transform="translate(-700.959 -39.827)" fill="none" stroke="#fcd109" stroke-width="0.094"/>
        </g>
      </g>
      <g id="Group_6768" data-name="Group 6768" transform="translate(134.253 8.705)">
        <g id="Group_6767" data-name="Group 6767" clip-path="url(#clip-path-7)">
          <rect id="Rectangle_1546" data-name="Rectangle 1546" width="1.785" height="1.51" transform="matrix(0.006, -1, 1, 0.006, -0.125, 1.776)" fill="url(#linear-gradient-3)"/>
        </g>
      </g>
      <g id="Group_6770" data-name="Group 6770">
        <g id="Group_6769" data-name="Group 6769" clip-path="url(#clip-path-2)">
          <path id="Path_3768" data-name="Path 3768" d="M743.5,49.258c-.013.312-.193.362-.137.667a.6.6,0,0,1-.316-.137,1.127,1.127,0,0,1-.344-.53c-.052-.208-.165-.769.292-1.008a1.164,1.164,0,0,1,.936.042c.106.025-.436.564-.349.546Z" transform="translate(-608.396 -39.45)" fill="none" stroke="#fcd109" stroke-width="0.094"/>
          <path id="Path_3769" data-name="Path 3769" d="M772.991,74.119a.344.344,0,0,1,.281-.082,14.535,14.535,0,0,1-2.935,4.506,4.415,4.415,0,0,1-.444.348c-.15.11-.3.213-.444.318s-.286.2-.425.3a5.828,5.828,0,0,1-1.06.58,9.958,9.958,0,0,1-2.27.736,6.651,6.651,0,0,1-.929.131,5.434,5.434,0,0,1-1.191.056c-.218.037-.412-.087-.624-.062q-.276-.039-.55-.094t-.551-.131c-2.859-.892-5.666-3.075-6.484-6.028a3.345,3.345,0,0,1-.055-.6q.131.262.272.52a9.147,9.147,0,0,0,6.2,5.134c.221.1.461.065.673.153a1.742,1.742,0,0,1,.568.056c.642.012,1.285.006,1.927.006a.945.945,0,0,0,.256-.056,8.216,8.216,0,0,0,3.1-.771q.293-.133.577-.283.248-.131.485-.283t.45-.318a10.333,10.333,0,0,0,2.83-3.463c.129-.245.247-.472.351-.676" transform="translate(-618.766 -60.653)" fill="#bda727"/>
          <path id="Path_3770" data-name="Path 3770" d="M772.991,74.119a.344.344,0,0,1,.281-.082,14.535,14.535,0,0,1-2.935,4.506,4.415,4.415,0,0,1-.444.348c-.15.11-.3.213-.444.318s-.286.2-.425.3a5.828,5.828,0,0,1-1.06.58,9.958,9.958,0,0,1-2.27.736,6.651,6.651,0,0,1-.929.131,5.434,5.434,0,0,1-1.191.056c-.218.037-.412-.087-.624-.062q-.276-.039-.55-.094t-.551-.131c-2.859-.892-5.666-3.075-6.484-6.028a3.345,3.345,0,0,1-.055-.6q.131.262.272.52a9.147,9.147,0,0,0,6.2,5.134c.221.1.461.065.673.153a1.742,1.742,0,0,1,.568.056c.642.012,1.285.006,1.927.006a.945.945,0,0,0,.256-.056,8.216,8.216,0,0,0,3.1-.771q.293-.133.577-.283.248-.131.485-.283t.45-.318a10.333,10.333,0,0,0,2.83-3.463C772.769,74.55,772.887,74.323,772.991,74.119Z" transform="translate(-618.766 -60.653)" fill="none" stroke="#bda727" stroke-width="0.094"/>
          <path id="Path_3771" data-name="Path 3771" d="M759.4,97.249a13.372,13.372,0,0,1,6.132-1.709,9.622,9.622,0,0,1,2.077.044,2.9,2.9,0,0,1,1.266.536,2.684,2.684,0,0,1-.536-.094,9.3,9.3,0,0,0-1.559-.075,16.385,16.385,0,0,0-4.472.53,10.5,10.5,0,0,0-2.214.9,11.052,11.052,0,0,0-3.15,2.582,13.518,13.518,0,0,0-2.919,6.375c-.212,1.241-.455,2.476-.649,3.724-.312.031-.63.012-.942.012q-2.058-.009-4.117-.025c-.293.012-.58-.056-.873-.038-2.495.012-4.99-.006-7.485-.006l.05-.019c1.852-.193,3.711-.412,5.564-.593,2.351-.012,4.7-.006,7.048,0,.075-.012.206.025.218-.081.193-1.01.38-2.021.574-3.031a15.138,15.138,0,0,1,1.348-4.067,11.993,11.993,0,0,1,4.641-4.965" transform="translate(-606.189 -78.238)" fill="#0d69b3"/>
          <path id="Path_3772" data-name="Path 3772" d="M759.4,97.249a13.372,13.372,0,0,1,6.132-1.709,9.622,9.622,0,0,1,2.077.044,2.9,2.9,0,0,1,1.266.536,2.684,2.684,0,0,1-.536-.094,9.3,9.3,0,0,0-1.559-.075,16.385,16.385,0,0,0-4.472.53,10.5,10.5,0,0,0-2.214.9,11.052,11.052,0,0,0-3.15,2.582,13.518,13.518,0,0,0-2.919,6.375c-.212,1.241-.455,2.476-.649,3.724-.312.031-.63.012-.942.012q-2.058-.009-4.117-.025c-.293.012-.58-.056-.873-.038-2.495.012-4.99-.006-7.485-.006l.05-.019c1.852-.193,3.711-.412,5.564-.593,2.351-.012,4.7-.006,7.048,0,.075-.012.206.025.218-.081.193-1.01.38-2.021.574-3.031a15.138,15.138,0,0,1,1.348-4.067A11.993,11.993,0,0,1,759.4,97.249Z" transform="translate(-606.189 -78.238)" fill="none" stroke="#0d69b3" stroke-width="0.094"/>
          <path id="Path_3773" data-name="Path 3773" d="M729.035,98.513a16.382,16.382,0,0,1,4.472-.53,9.3,9.3,0,0,1,1.559.075,2.685,2.685,0,0,0,.536.094,2.123,2.123,0,0,1,.6.936,14.884,14.884,0,0,1,.586,2.557,1.977,1.977,0,0,1-.118,1.06,1.341,1.341,0,0,1-.855.555c-1.2.312-2.464.019-3.668.312a4.463,4.463,0,0,0-2.545,1.553,7.233,7.233,0,0,0-1.354,3.219c-.168,1.023-.38,2.046-.549,3.075a5.544,5.544,0,0,0-.162.724c1.179.019,2.358,0,3.537.012.449-.012.9.012,1.347-.019a3.431,3.431,0,0,1,.112,1.828,6.655,6.655,0,0,1-.568,1.977,2.233,2.233,0,0,1-1.26,1.2,2.517,2.517,0,0,1-.942.093c-1.048,0-2.1.012-3.144,0-.168.767-.281,1.553-.43,2.333-.274,1.516-.542,3.038-.817,4.56-.006.05-.013.156-.013.212v.006c-2.726,0-5.445.006-8.171,0,.006-.025.013-.069.019-.094s.013-.1.019-.137c.006.05.012.144.019.187.168.019.474.106.517-.137.424-2.3.817-4.6,1.254-6.9a1.316,1.316,0,0,0-.518-.006c-.025.087-.05.175-.081.262l.037-.281c-1.7-.006-3.4,0-5.1-.006-.412-.012-.836,0-1.247-.05-.7-.031-1.416-.006-2.121-.075-.873,0-1.74-.081-2.614-.081-.686-.069-1.378-.044-2.071-.075-.449-.056-.911-.031-1.366-.05-.742-.081-1.5-.025-2.239-.106-.786.006-1.572-.062-2.358-.081a.088.088,0,0,0,.012-.037c.262.006.518-.013.78-.019.58-.075,1.166-.025,1.746-.106.605,0,1.2-.081,1.809-.081.537-.075,1.079-.031,1.615-.106.63,0,1.248-.081,1.878-.087.518-.069,1.042-.031,1.559-.1.605.006,1.2-.087,1.809-.081.593-.069,1.2-.05,1.79-.112-.056-.231-.1-.461-.15-.692-.044-.144-.218-.112-.331-.131q-2.03-.29-4.048-.574c.087-.069.206-.038.306-.05,1.048-.081,2.09-.175,3.137-.249.237-.012.468-.056.7-.062a8.11,8.11,0,0,0-.312-.979c-2.239-.343-4.479-.649-6.712-1.017.58-.094,1.166-.137,1.747-.2,2.495,0,4.99.019,7.485.006.293-.019.58.05.873.038q2.058.018,4.117.025c.312,0,.63.019.942-.012.193-1.247.437-2.483.649-3.724a13.518,13.518,0,0,1,2.919-6.375,11.047,11.047,0,0,1,3.15-2.582,10.5,10.5,0,0,1,2.214-.9" transform="translate(-572.92 -80.27)" fill="#107bd4"/>
          <path id="Path_3774" data-name="Path 3774" d="M729.035,98.513a16.382,16.382,0,0,1,4.472-.53,9.3,9.3,0,0,1,1.559.075,2.685,2.685,0,0,0,.536.094,2.123,2.123,0,0,1,.6.936,14.884,14.884,0,0,1,.586,2.557,1.977,1.977,0,0,1-.118,1.06,1.341,1.341,0,0,1-.855.555c-1.2.312-2.464.019-3.668.312a4.463,4.463,0,0,0-2.545,1.553,7.233,7.233,0,0,0-1.354,3.219c-.168,1.023-.38,2.046-.549,3.075a5.544,5.544,0,0,0-.162.724c1.179.019,2.358,0,3.537.012.449-.012.9.012,1.347-.019a3.431,3.431,0,0,1,.112,1.828,6.655,6.655,0,0,1-.568,1.977,2.233,2.233,0,0,1-1.26,1.2,2.517,2.517,0,0,1-.942.093c-1.048,0-2.1.012-3.144,0-.168.767-.281,1.553-.43,2.333-.274,1.516-.542,3.038-.817,4.56-.006.05-.013.156-.013.212v.006c-2.726,0-5.445.006-8.171,0,.006-.025.013-.069.019-.094s.013-.1.019-.137c.006.05.012.144.019.187.168.019.474.106.517-.137.424-2.3.817-4.6,1.254-6.9a1.316,1.316,0,0,0-.518-.006c-.025.087-.05.175-.081.262l.037-.281c-1.7-.006-3.4,0-5.1-.006-.412-.012-.836,0-1.247-.05-.7-.031-1.416-.006-2.121-.075-.873,0-1.74-.081-2.614-.081-.686-.069-1.378-.044-2.071-.075-.449-.056-.911-.031-1.366-.05-.742-.081-1.5-.025-2.239-.106-.786.006-1.572-.062-2.358-.081a.088.088,0,0,0,.012-.037c.262.006.518-.013.78-.019.58-.075,1.166-.025,1.746-.106.605,0,1.2-.081,1.809-.081.537-.075,1.079-.031,1.615-.106.63,0,1.248-.081,1.878-.087.518-.069,1.042-.031,1.559-.1.605.006,1.2-.087,1.809-.081.593-.069,1.2-.05,1.79-.112-.056-.231-.1-.461-.15-.692-.044-.144-.218-.112-.331-.131q-2.03-.29-4.048-.574c.087-.069.206-.038.306-.05,1.048-.081,2.09-.175,3.137-.249.237-.012.468-.056.7-.062a8.11,8.11,0,0,0-.312-.979c-2.239-.343-4.479-.649-6.712-1.017.58-.094,1.166-.137,1.747-.2,2.495,0,4.99.019,7.485.006.293-.019.58.05.873.038q2.058.018,4.117.025c.312,0,.63.019.942-.012.193-1.247.437-2.483.649-3.724a13.518,13.518,0,0,1,2.919-6.375,11.047,11.047,0,0,1,3.15-2.582A10.5,10.5,0,0,1,729.035,98.513Z" transform="translate(-572.92 -80.27)" fill="none" stroke="#107bd4" stroke-width="0.094"/>
          <path id="Path_3775" data-name="Path 3775" d="M808.738,172.3c1.185.006,2.377-.006,3.568.006a1.256,1.256,0,0,1,1.154.711c-.449.031-.9.006-1.347.019-1.179-.012-2.358.007-3.537-.012A5.5,5.5,0,0,1,808.738,172.3Zm-9.2,5.844a1.309,1.309,0,0,1,.518.006c-.437,2.3-.83,4.6-1.254,6.9-.044.243-.349.156-.518.137-.006-.044-.013-.137-.019-.187.393-2.2.773-4.4,1.191-6.593C799.488,178.323,799.513,178.236,799.537,178.148Z" transform="translate(-653.958 -141.156)" fill="#0d69b3"/>
          <path id="Path_3776" data-name="Path 3776" d="M808.738,172.3c1.185.006,2.377-.006,3.568.006a1.256,1.256,0,0,1,1.154.711c-.449.031-.9.006-1.347.019-1.179-.012-2.358.007-3.537-.012A5.5,5.5,0,0,1,808.738,172.3Zm-9.2,5.844a1.309,1.309,0,0,1,.518.006c-.437,2.3-.83,4.6-1.254,6.9-.044.243-.349.156-.518.137-.006-.044-.013-.137-.019-.187.393-2.2.773-4.4,1.191-6.593C799.488,178.323,799.513,178.236,799.537,178.148Z" transform="translate(-653.958 -141.156)" fill="none" stroke="#0d69b3" stroke-width="0.094"/>
          <path id="Path_3777" data-name="Path 3777" d="M766.721,49.447a.662.662,0,0,1-.056-.312l-.05.006a.709.709,0,0,0-.6-.549c-.225-.019-.505-.012-.636.2-.25.337-.131.767-.144,1.148,0,.025.006.069.006.093a4.367,4.367,0,0,1-.075.755.536.536,0,0,0-.056.243,5.758,5.758,0,0,1-.605,1.7.629.629,0,0,0-.119.243,8.436,8.436,0,0,1-.642.923.8.8,0,0,0-.1.106,6.1,6.1,0,0,1-.518.543c-.044.025-.075.056-.112.081a4.064,4.064,0,0,1-.7.555c-.031.019-.062.044-.1.069a10.027,10.027,0,0,1-5.427,1.509,10.136,10.136,0,0,1-4.666-.985c-.025-.012-.087-.037-.112-.05a6.259,6.259,0,0,1-.717-.405c-.05-.025-.1-.056-.156-.081a4.755,4.755,0,0,1-.655-.462c-.069-.062-.144-.112-.218-.168a5.3,5.3,0,0,1-.649-.593c-.05-.056-.1-.106-.15-.156a6.215,6.215,0,0,1-1.49-2.5,7.706,7.706,0,0,1-.262-2.333.836.836,0,0,0-1.073-.324c-.156.112-.175.318-.293.462a7.326,7.326,0,0,0,2.09,5.6.1.1,0,0,0,.069.1c.25.231.493.468.742.692a1,1,0,0,0,.15.125c.25.206.518.393.78.586a1.308,1.308,0,0,0,.156.1,7.03,7.03,0,0,0,1.036.574.823.823,0,0,0,.093.062,11.251,11.251,0,0,0,3.774,1.079,2.024,2.024,0,0,1,.431.044c.624.037,1.247.019,1.871.006a11.223,11.223,0,0,0,5.526-1.771l.019.025c.05-.044.094-.081.143-.119.256-.187.505-.387.755-.593a1.851,1.851,0,0,0,.175-.15,8.211,8.211,0,0,0,.823-.917l.037.019c.019-.031.05-.094.069-.125.212-.287.405-.586.593-.886.012-.019.043-.05.056-.069l-.025-.025c.019-.025.062-.075.081-.1a7.322,7.322,0,0,0,.755-2.2.107.107,0,0,0,.068-.1,5.819,5.819,0,0,0,.069-.736A4.245,4.245,0,0,0,766.721,49.447Z" transform="translate(-611.396 -39.803)" fill="#fff"/>
          <path id="Path_3778" data-name="Path 3778" d="M766.721,49.447a.662.662,0,0,1-.056-.312l-.05.006a.709.709,0,0,0-.6-.549c-.225-.019-.505-.012-.636.2-.25.337-.131.767-.144,1.148,0,.025.006.069.006.093a4.367,4.367,0,0,1-.075.755.536.536,0,0,0-.056.243,5.758,5.758,0,0,1-.605,1.7.629.629,0,0,0-.119.243,8.436,8.436,0,0,1-.642.923.8.8,0,0,0-.1.106,6.1,6.1,0,0,1-.518.543c-.044.025-.075.056-.112.081a4.064,4.064,0,0,1-.7.555c-.031.019-.062.044-.1.069a10.027,10.027,0,0,1-5.427,1.509,10.136,10.136,0,0,1-4.666-.985c-.025-.012-.087-.037-.112-.05a6.259,6.259,0,0,1-.717-.405c-.05-.025-.1-.056-.156-.081a4.755,4.755,0,0,1-.655-.462c-.069-.062-.144-.112-.218-.168a5.3,5.3,0,0,1-.649-.593c-.05-.056-.1-.106-.15-.156a6.215,6.215,0,0,1-1.49-2.5,7.706,7.706,0,0,1-.262-2.333.836.836,0,0,0-1.073-.324c-.156.112-.175.318-.293.462a7.326,7.326,0,0,0,2.09,5.6.1.1,0,0,0,.069.1c.25.231.493.468.742.692a1,1,0,0,0,.15.125c.25.206.518.393.78.586a1.308,1.308,0,0,0,.156.1,7.03,7.03,0,0,0,1.036.574.823.823,0,0,0,.093.062,11.251,11.251,0,0,0,3.774,1.079,2.024,2.024,0,0,1,.431.044c.624.037,1.247.019,1.871.006a11.223,11.223,0,0,0,5.526-1.771l.019.025c.05-.044.094-.081.143-.119.256-.187.505-.387.755-.593a1.851,1.851,0,0,0,.175-.15,8.211,8.211,0,0,0,.823-.917l.037.019c.019-.031.05-.094.069-.125.212-.287.405-.586.593-.886.012-.019.043-.05.056-.069l-.025-.025c.019-.025.062-.075.081-.1a7.322,7.322,0,0,0,.755-2.2.107.107,0,0,0,.068-.1,5.819,5.819,0,0,0,.069-.736A4.245,4.245,0,0,0,766.721,49.447Z" transform="translate(-611.396 -39.803)" fill="none" stroke="#fff" stroke-width="0.094"/>
        </g>
      </g>
      <g id="Group_6772" data-name="Group 6772" transform="translate(134.915 8.783)">
        <g id="Group_6771" data-name="Group 6771" clip-path="url(#clip-path-9)">
          <path id="Path_3779" data-name="Path 3779" d="M743.807,48.983c.506.159,1.667-.24,2,.125m-1.7,1.414c.484-.169,1.524-.568,1.954-.333M744.6,52.06c.234.076.7-.336.925-.456a3.413,3.413,0,0,1,1.071-.375m-1.248,2.453a3.529,3.529,0,0,1,.88-.872c.346-.242,1.292-.887,1.7-.666m-1.871,2.7c.274-.218.386-.6.674-.833a5.87,5.87,0,0,1,1.239-.5m-.738,2.193c.082-.6.694-1.331,1.279-1.279m-.374,2.121c.309-.031.57-.722.779-.956a1.989,1.989,0,0,1,1.051-.582M749.92,57.3c-.02-.436.431-1.688.956-1.622m.374,2.038c-.022-.516.245-2.067.873-2.121m.5,2.952a2.675,2.675,0,0,1,.457-2.287m1.247,2.453c-.063-.6-.661-1.816,0-2.287m1.83,1.871a3.462,3.462,0,0,1-.333-2m2.079,1.7a4.144,4.144,0,0,1-.576-1.238c-.05-.277.037-.672-.006-.883m2.038,1.5a2.174,2.174,0,0,1-.457-1.954m1.871,1.331a4.849,4.849,0,0,1-.707-2.121m2.079.79c-.527-.355-1.2-1-1.123-1.7m2.578.582a4.477,4.477,0,0,1-2.246-1.539m2.911.166c-.578-.124-2.488-.869-2.37-1.622m2.994.166a8.813,8.813,0,0,1-2.62-1.123m3.035-.208a8.139,8.139,0,0,1-1.749-.291c-.573-.1-1.1-.292-1.66-.416m2.911-.582a7.273,7.273,0,0,1-2.786-.582" transform="translate(-744.26 -48.332)" fill="none" stroke="#d1d1d1" stroke-width="2"/>
        </g>
      </g>
      <g id="Group_6774" data-name="Group 6774">
        <g id="Group_6773" data-name="Group 6773" clip-path="url(#clip-path-2)">
          <path id="Path_3781" data-name="Path 3781" d="M30.32,67.628a3.635,3.635,0,0,1,2.712.341,1.835,1.835,0,0,1,.614,1.586,2.759,2.759,0,0,1-1.262,2.473,4.3,4.3,0,0,1-2.49.358,1.883,1.883,0,0,1-1.415-.887A2.827,2.827,0,0,1,30.32,67.628ZM3.272,68.7a1.066,1.066,0,0,1,1.04-.955c3.939,0,7.862.017,11.784,0a1.141,1.141,0,0,1,1.091.529c.29.512.034,1.074,0,1.6-.119.716-.085,1.671-.921,1.944-2.865.085-5.73,0-8.6.034-.273,1.808-.529,3.6-.8,5.389,0,.068.017.222.017.29,2.1-.017,4.2,0,6.293-.017a1.076,1.076,0,0,1,1.143,1.074c-.051.631-.187,1.245-.273,1.876a1.11,1.11,0,0,1-.853.9c-2.336.051-4.707-.051-7.043.051C5.779,84,5.335,86.575,4.943,89.15a1.059,1.059,0,0,1-.972.972q-1.458.026-2.916,0a1.042,1.042,0,0,1-.972-1.279Q1.644,78.764,3.272,68.7ZM20.6,67.781c.887-.068,1.791-.017,2.678-.034a1.1,1.1,0,0,1,1.143.955,11.829,11.829,0,0,1-.17,1.33c-.716,4.57-1.45,9.141-2.166,13.711a5.35,5.35,0,0,0-.068,2.268c.256.75,1.4.426,1.671,1.211a5.752,5.752,0,0,1-.068,1.944c-.051.853-1.023,1.04-1.688,1.228a4.51,4.51,0,0,1-4.246-1.126,3.97,3.97,0,0,1-.648-3.189q1.356-8.7,2.729-17.412A1.032,1.032,0,0,1,20.6,67.781Zm33.852.921a1.078,1.078,0,0,1,1.023-.955h2.592a1.082,1.082,0,0,1,1.023,1.3c-.6,3.786-1.211,7.572-1.808,11.358a4,4,0,0,0,2.558-1.04,15.857,15.857,0,0,0,2.575-4.025c.222-.563.341-1.381,1.075-1.484.972-.034,1.961-.017,2.933,0a1.029,1.029,0,0,1,.938,1.347,12.122,12.122,0,0,1-1.126,2.541,19.264,19.264,0,0,1-3.513,4.451c.631,1.893,1.433,3.735,2.132,5.594.2.614.7,1.33.239,1.927-.529.716-1.518.358-2.251.443-.768-.085-1.876.307-2.3-.563-.8-1.859-1.466-3.769-2.285-5.628a10.293,10.293,0,0,1-1.45-.017l-.136.273c-.256,1.705-.529,3.411-.8,5.116a1.015,1.015,0,0,1-.87.8c-.9.034-1.825.017-2.746.017a1.063,1.063,0,0,1-.921-.6,1.882,1.882,0,0,1-.017-1.108Q52.9,78.577,54.451,68.7Zm47.393,1.859a1.061,1.061,0,0,1,1.057-.785c.682.017,1.381-.017,2.081.017a1.023,1.023,0,0,1,.938,1.126c-.1.972-.341,1.944-.409,2.916.665,0,1.347-.017,2.012,0a1.052,1.052,0,0,1,.989,1.194c-.085.529-.2,1.041-.29,1.569a1.109,1.109,0,0,1-.887.87c-.819.051-1.62-.034-2.422.051-.341,2.285-.716,4.57-1.075,6.856a2.417,2.417,0,0,0,.222,1.586c.461.563,1.262.358,1.91.426a1.122,1.122,0,0,1,.75,1.228c-.085.58-.1,1.16-.239,1.722-.2.631-.938.751-1.5.9a5.927,5.927,0,0,1-4.724-.494c-1.279-.87-1.484-2.558-1.347-3.991.358-2.763.921-5.508,1.228-8.288-.477.017-1.057.085-1.415-.341-.409-.426-.2-1.057-.136-1.586.1-.563.085-1.3.7-1.6a6.96,6.96,0,0,1,1.586-.119c.324-1.091.631-2.183.972-3.257m-9.636,5.525a9.288,9.288,0,0,1,3.854-2.4,1.082,1.082,0,0,1,1.467.972c-.119.938-.341,1.859-.495,2.78a1.086,1.086,0,0,1-.921.9,8.064,8.064,0,0,0-4.28,2.49c-.29.358-.716.7-.767,1.194-.358,2.388-.733,4.775-1.109,7.163a1.052,1.052,0,0,1-1.023.972H86.341A1.067,1.067,0,0,1,85.284,89c.75-4.724,1.5-9.431,2.234-14.155a1.039,1.039,0,0,1,.87-.989c.631-.034,1.262-.017,1.91-.017a1.025,1.025,0,0,1,.989.989c0,.733-.068,1.484-.085,2.234a7.734,7.734,0,0,0,1.006-.972M28.461,73.921a19.181,19.181,0,0,1,2.8-.085,1.048,1.048,0,0,1,1.177.8,5.481,5.481,0,0,1-.119,1.4q-1.049,6.574-2.081,13.148a1.047,1.047,0,0,1-.989.972c-.921,0-1.842.017-2.78-.017a1.073,1.073,0,0,1-.853-1.3c.733-4.553,1.433-9.09,2.166-13.643a1.36,1.36,0,0,1,.682-1.279m55.186.222a27.26,27.26,0,0,0-7.708-.563A8.866,8.866,0,0,0,69.9,76.8a11.832,11.832,0,0,0-2.183,8.936,6.045,6.045,0,0,0,2.1,3.905,5.178,5.178,0,0,0,4.008.767,9.644,9.644,0,0,0,4.86-2.967c.068.58-.068,1.16-.034,1.723a1.058,1.058,0,0,0,1.04.989h1.74a1.045,1.045,0,0,0,.972-.972q1.1-6.932,2.183-13.831A1.077,1.077,0,0,0,83.647,74.143Zm-4.792,8.032A13.155,13.155,0,0,1,76.143,85.6a2.81,2.81,0,0,1-2.234.87c-.819-.17-1.211-1.023-1.4-1.757a7.5,7.5,0,0,1,1.04-5.645,3.645,3.645,0,0,1,2.132-1.586,7.438,7.438,0,0,1,3.769.187l.068.068C79.367,79.225,79.077,80.691,78.855,82.175ZM50.17,79.617A7.052,7.052,0,0,0,48.5,74.842a4.314,4.314,0,0,0-3.24-1.347,7.747,7.747,0,0,0-5.287,2.2c-.324.256-.546.631-.9.836,0-.563.051-1.126.034-1.705a1.012,1.012,0,0,0-.989-.989h-1.74a1.071,1.071,0,0,0-1.023,1.006q-1.612,10.232-3.24,20.465a1.059,1.059,0,0,0,1.041,1.262,22.861,22.861,0,0,0,2.865-.068c.75-.2.733-1.074.853-1.705.273-1.5.46-3,.631-4.519,3.36.648,7.265.2,9.772-2.336A11.774,11.774,0,0,0,50.17,79.617ZM45.4,81.339a6.873,6.873,0,0,1-1.756,4.3c-1.415,1.348-3.564,1.16-5.3.7a1.156,1.156,0,0,1-.1-.2c.273-1.484.409-2.984.75-4.451a10.438,10.438,0,0,1,3.769-4.025A1.581,1.581,0,0,1,44.645,78,4.8,4.8,0,0,1,45.4,81.339Z" transform="translate(-0.041 -55.32)" fill="#107bd4"/>
          <path id="Path_3782" data-name="Path 3782" d="M30.32,67.628a3.635,3.635,0,0,1,2.712.341,1.835,1.835,0,0,1,.614,1.586,2.759,2.759,0,0,1-1.262,2.473,4.3,4.3,0,0,1-2.49.358,1.883,1.883,0,0,1-1.415-.887A2.827,2.827,0,0,1,30.32,67.628ZM3.272,68.7a1.066,1.066,0,0,1,1.04-.955c3.939,0,7.862.017,11.784,0a1.141,1.141,0,0,1,1.091.529c.29.512.034,1.074,0,1.6-.119.716-.085,1.671-.921,1.944-2.865.085-5.73,0-8.6.034-.273,1.808-.529,3.6-.8,5.389,0,.068.017.222.017.29,2.1-.017,4.2,0,6.293-.017a1.076,1.076,0,0,1,1.143,1.074c-.051.631-.187,1.245-.273,1.876a1.11,1.11,0,0,1-.853.9c-2.336.051-4.707-.051-7.043.051C5.779,84,5.335,86.575,4.943,89.15a1.059,1.059,0,0,1-.972.972q-1.458.026-2.916,0a1.042,1.042,0,0,1-.972-1.279Q1.644,78.764,3.272,68.7ZM20.6,67.781c.887-.068,1.791-.017,2.678-.034a1.1,1.1,0,0,1,1.143.955,11.829,11.829,0,0,1-.17,1.33c-.716,4.57-1.45,9.141-2.166,13.711a5.35,5.35,0,0,0-.068,2.268c.256.75,1.4.426,1.671,1.211a5.752,5.752,0,0,1-.068,1.944c-.051.853-1.023,1.04-1.688,1.228a4.51,4.51,0,0,1-4.246-1.126,3.97,3.97,0,0,1-.648-3.189q1.356-8.7,2.729-17.412A1.032,1.032,0,0,1,20.6,67.781Zm33.852.921a1.078,1.078,0,0,1,1.023-.955h2.592a1.082,1.082,0,0,1,1.023,1.3c-.6,3.786-1.211,7.572-1.808,11.358a4,4,0,0,0,2.558-1.04,15.857,15.857,0,0,0,2.575-4.025c.222-.563.341-1.381,1.075-1.484.972-.034,1.961-.017,2.933,0a1.029,1.029,0,0,1,.938,1.347,12.122,12.122,0,0,1-1.126,2.541,19.264,19.264,0,0,1-3.513,4.451c.631,1.893,1.433,3.735,2.132,5.594.2.614.7,1.33.239,1.927-.529.716-1.518.358-2.251.443-.768-.085-1.876.307-2.3-.563-.8-1.859-1.466-3.769-2.285-5.628a10.293,10.293,0,0,1-1.45-.017l-.136.273c-.256,1.705-.529,3.411-.8,5.116a1.015,1.015,0,0,1-.87.8c-.9.034-1.825.017-2.746.017a1.063,1.063,0,0,1-.921-.6,1.882,1.882,0,0,1-.017-1.108Q52.9,78.577,54.451,68.7Zm47.393,1.859a1.061,1.061,0,0,1,1.057-.785c.682.017,1.381-.017,2.081.017a1.023,1.023,0,0,1,.938,1.126c-.1.972-.341,1.944-.409,2.916.665,0,1.347-.017,2.012,0a1.052,1.052,0,0,1,.989,1.194c-.085.529-.2,1.041-.29,1.569a1.109,1.109,0,0,1-.887.87c-.819.051-1.62-.034-2.422.051-.341,2.285-.716,4.57-1.075,6.856a2.417,2.417,0,0,0,.222,1.586c.461.563,1.262.358,1.91.426a1.122,1.122,0,0,1,.75,1.228c-.085.58-.1,1.16-.239,1.722-.2.631-.938.751-1.5.9a5.927,5.927,0,0,1-4.724-.494c-1.279-.87-1.484-2.558-1.347-3.991.358-2.763.921-5.508,1.228-8.288-.477.017-1.057.085-1.415-.341-.409-.426-.2-1.057-.136-1.586.1-.563.085-1.3.7-1.6a6.96,6.96,0,0,1,1.586-.119C101.2,72.727,101.5,71.636,101.844,70.561Zm-9.636,5.525a9.288,9.288,0,0,1,3.854-2.4,1.082,1.082,0,0,1,1.467.972c-.119.938-.341,1.859-.495,2.78a1.086,1.086,0,0,1-.921.9,8.064,8.064,0,0,0-4.28,2.49c-.29.358-.716.7-.767,1.194-.358,2.388-.733,4.775-1.109,7.163a1.052,1.052,0,0,1-1.023.972H86.341A1.067,1.067,0,0,1,85.284,89c.75-4.724,1.5-9.431,2.234-14.155a1.039,1.039,0,0,1,.87-.989c.631-.034,1.262-.017,1.91-.017a1.025,1.025,0,0,1,.989.989c0,.733-.068,1.484-.085,2.234A7.734,7.734,0,0,0,92.208,76.087ZM28.461,73.921a19.181,19.181,0,0,1,2.8-.085,1.048,1.048,0,0,1,1.177.8,5.481,5.481,0,0,1-.119,1.4q-1.049,6.574-2.081,13.148a1.047,1.047,0,0,1-.989.972c-.921,0-1.842.017-2.78-.017a1.073,1.073,0,0,1-.853-1.3c.733-4.553,1.433-9.09,2.166-13.643A1.36,1.36,0,0,1,28.461,73.921Zm55.186.222a27.26,27.26,0,0,0-7.708-.563A8.866,8.866,0,0,0,69.9,76.8a11.832,11.832,0,0,0-2.183,8.936,6.045,6.045,0,0,0,2.1,3.905,5.178,5.178,0,0,0,4.008.767,9.644,9.644,0,0,0,4.86-2.967c.068.58-.068,1.16-.034,1.723a1.058,1.058,0,0,0,1.04.989h1.74a1.045,1.045,0,0,0,.972-.972q1.1-6.932,2.183-13.831A1.077,1.077,0,0,0,83.647,74.143Zm-4.792,8.032A13.155,13.155,0,0,1,76.143,85.6a2.81,2.81,0,0,1-2.234.87c-.819-.17-1.211-1.023-1.4-1.757a7.5,7.5,0,0,1,1.04-5.645,3.645,3.645,0,0,1,2.132-1.586,7.438,7.438,0,0,1,3.769.187l.068.068C79.367,79.225,79.077,80.691,78.855,82.175ZM50.17,79.617A7.052,7.052,0,0,0,48.5,74.842a4.314,4.314,0,0,0-3.24-1.347,7.747,7.747,0,0,0-5.287,2.2c-.324.256-.546.631-.9.836,0-.563.051-1.126.034-1.705a1.012,1.012,0,0,0-.989-.989h-1.74a1.071,1.071,0,0,0-1.023,1.006q-1.612,10.232-3.24,20.465a1.059,1.059,0,0,0,1.041,1.262,22.861,22.861,0,0,0,2.865-.068c.75-.2.733-1.074.853-1.705.273-1.5.46-3,.631-4.519,3.36.648,7.265.2,9.772-2.336A11.774,11.774,0,0,0,50.17,79.617ZM45.4,81.339a6.873,6.873,0,0,1-1.756,4.3c-1.415,1.348-3.564,1.16-5.3.7a1.156,1.156,0,0,1-.1-.2c.273-1.484.409-2.984.75-4.451a10.438,10.438,0,0,1,3.769-4.025A1.581,1.581,0,0,1,44.645,78,4.8,4.8,0,0,1,45.4,81.339Z" transform="translate(-0.041 -55.32)" fill="none" stroke="#107bd4" stroke-width="0.101"/>
        </g>
      </g>
    </g>
  </g>
</svg>
