<svg xmlns="http://www.w3.org/2000/svg" xmlns:xlink="http://www.w3.org/1999/xlink" width="191" height="48" viewBox="0 0 191 48">
  <defs>
    <clipPath id="clip-path">
      <rect id="Rectangle_1550" data-name="Rectangle 1550" width="184.687" height="40.095" fill="none"/>
    </clipPath>
  </defs>
  <g id="Gainsight" transform="translate(-3394 -1655)">
    <rect id="Rectangle_1522" data-name="Rectangle 1522" width="191" height="48" transform="translate(3394 1655)" fill="#fff" opacity="0"/>
    <g id="Group_6779" data-name="Group 6779" transform="translate(3397 1659)">
      <g id="Group_6778" data-name="Group 6778" clip-path="url(#clip-path)">
        <path id="Path_3796" data-name="Path 3796" d="M990.029,0h5.438l0,12.624a.036.036,0,0,0,.066.02,8.745,8.745,0,0,1,10.07-3.688,7.259,7.259,0,0,1,4.155,2.961l-5.894,2.557a5.259,5.259,0,0,0-8.243,3.507l-5.6,2.391Z" transform="translate(-848.756)" fill="#5c6770"/>
        <path id="Path_3797" data-name="Path 3797" d="M745.336,2h5.716a.086.086,0,0,1,.086.086v5a.086.086,0,0,1-.086.086h-5.716a.086.086,0,0,1-.086-.086v-5A.086.086,0,0,1,745.336,2" transform="translate(-638.911 -1.715)" fill="#5c6770"/>
        <path id="Path_3798" data-name="Path 3798" d="M386.586,2.5H392.3a.086.086,0,0,1,.086.086V7.623a.086.086,0,0,1-.086.086h-5.716a.086.086,0,0,1-.086-.086V2.586a.086.086,0,0,1,.086-.086" transform="translate(-331.351 -2.143)" fill="#5c6770"/>
        <path id="Path_3799" data-name="Path 3799" d="M0,23.022V21A16.038,16.038,0,0,1,15.624,5.664,17.474,17.474,0,0,1,28.268,9.9a.066.066,0,0,1,.009.1l-3.416,4.072a.114.114,0,0,1-.187.011,12.117,12.117,0,0,0-7.587-3.3c-8.07-.558-12.823,7.259-10.826,14.561,1.778,6.5,8.006,9.056,14.19,7.184a11.988,11.988,0,0,0,3.533-1.721.138.138,0,0,0,.059-.113V25a.071.071,0,0,0-.071-.071H16.088a.071.071,0,0,1-.071-.071V20.146a.071.071,0,0,1,.071-.071h13.27a.063.063,0,0,1,.071.071V33.212a.192.192,0,0,1-.06.143q-.079.074-.211.183c-5.877,4.789-14.3,6.344-21.181,2.623A15.479,15.479,0,0,1,0,23.022" transform="translate(0 -4.842)" fill="#5c6770"/>
        <path id="Path_3800" data-name="Path 3800" d="M1156.992,20.709l5.474-2.3,14-5.9a.071.071,0,0,1,.1.066l.019,5.735a.121.121,0,0,1-.08.121L1162.517,24.3a.082.082,0,0,0-.054.081q-.05,9.453,0,12.05c.058,3.462,4.138,2.808,6.123,1.872q.146-.068.146.093v4.252a.132.132,0,0,1-.073.124c-2.594,1.464-7.137,1.759-9.55-.2-1.649-1.337-2.106-3.457-2.109-5.5q-.01-8.227,0-16.368" transform="translate(-991.9 -10.718)" fill="#0fb2e3"/>
        <path id="Path_3801" data-name="Path 3801" d="M1162.484,23.12l-5.474,2.3V18.076a.076.076,0,0,1,.076-.076h5.31a.067.067,0,0,1,.076.076Z" transform="translate(-991.918 -15.432)" fill="#5c6770"/>
        <path id="Path_3802" data-name="Path 3802" d="M822.167,73.107l-8.116,3.452a6.484,6.484,0,0,0,.639-10.047c-3.347-2.937-9.255-2.263-11.05,2.038a6.58,6.58,0,0,0,4.794,9.143,9.557,9.557,0,0,0,2.832.047q-3.807,1.741-7.65,3.336-.117.049-.114.225c-8.768-4.479-7.617-18.243,2.09-20.844a10.474,10.474,0,0,1,9.573,2.09,17.833,17.833,0,0,1,1.437,1.441q.074.083.074-.03V60.645a.071.071,0,0,1,.071-.071H822.1a.073.073,0,0,1,.073.073Z" transform="translate(-683.763 -51.513)" fill="#5c6770"/>
        <path id="Path_3803" data-name="Path 3803" d="M454.7,64.639a.036.036,0,0,0,.064.02,8.591,8.591,0,0,1,6.584-4c4.886-.374,8.356,2.39,9.079,7.257a15.469,15.469,0,0,1,.111,2.1q.009,7.39,0,14.773a.073.073,0,0,1-.073.073h-5.309a.074.074,0,0,1-.074-.074q0-6.7,0-13.446c0-2.536-.967-4.917-3.666-5.569a5.18,5.18,0,0,0-6.22,2.965,7.266,7.266,0,0,0-.494,2.884q-.006,6.588,0,13.164a.076.076,0,0,1-.076.076h-5.312a.071.071,0,0,1-.071-.071V61.213a.071.071,0,0,1,.071-.071h5.329a.059.059,0,0,1,.058.059Z" transform="translate(-385.147 -51.974)" fill="#5c6770"/>
        <path id="Path_3804" data-name="Path 3804" d="M231.991,82.8a.019.019,0,0,0-.033-.013,9.813,9.813,0,0,1-5.177,3.006c-4.613.993-10.351-.863-10.851-6.317-.464-5.051,2.845-7.933,7.524-8.489a20.1,20.1,0,0,1,8.534.82.057.057,0,0,0,.074-.053c.163-7.239-8.584-5.733-12.557-3.93a.055.055,0,0,1-.086-.037l-1.447-4.248a.084.084,0,0,1,.05-.116,19.89,19.89,0,0,1,8.045-1.946c6.892-.2,11.324,2.635,11.339,10.037q.013,6.992,0,13.988a.048.048,0,0,1-.049.049h-5.3a.063.063,0,0,1-.071-.071Zm-6.632-7.991c-1.527.157-3.416.88-3.89,2.536-1.689,5.91,9.333,6.153,10.58.489a10.965,10.965,0,0,0,.086-2.1.158.158,0,0,0-.108-.151,15.673,15.673,0,0,0-6.668-.772" transform="translate(-185.082 -52.7)" fill="#5c6770"/>
        <path id="Path_3805" data-name="Path 3805" d="M606.088,65.306c1.675-2.937,5.08-4.021,8.287-3.806a16.545,16.545,0,0,1,7.958,2.608.1.1,0,0,1,.038.153L620.287,68a.093.093,0,0,1-.126.037l0,0a13.732,13.732,0,0,0-6.521-2.219c-1.371-.046-3.065.455-3.357,1.992-.893,4.7,14.55,2.429,12.482,12.514-1.023,4.986-6.414,6.227-10.706,5.595a17.147,17.147,0,0,1-7.928-3.332.125.125,0,0,1-.03-.168l2.337-3.553a.1.1,0,0,1,.139-.03l.007,0a14.287,14.287,0,0,0,5.561,2.627c1.768.41,5.392.588,5.76-1.969.275-1.909-1.921-2.673-3.255-3.079-2.637-.8-5.832-1.538-7.811-3.433s-2.045-5.4-.748-7.674" transform="translate(-517.883 -52.703)" fill="#5c6770"/>
        <path id="Path_3806" data-name="Path 3806" d="M388.341,64.26h5.294a.081.081,0,0,1,.081.081V87.9a.081.081,0,0,1-.081.081h-5.294a.081.081,0,0,1-.081-.081V64.341a.081.081,0,0,1,.081-.081" transform="translate(-332.86 -55.091)" fill="#5c6770"/>
        <path id="Path_3807" data-name="Path 3807" d="M747.091,64.26h5.294a.081.081,0,0,1,.081.081V87.9a.081.081,0,0,1-.081.081h-5.294a.081.081,0,0,1-.081-.081V64.341a.081.081,0,0,1,.081-.081" transform="translate(-640.42 -55.091)" fill="#5c6770"/>
        <path id="Path_3808" data-name="Path 3808" d="M1092.945,83.51a10.834,10.834,0,0,1,1.547,6.268q.017,7.283,0,14.564a.07.07,0,0,1-.07.07h-5.311a.064.064,0,0,1-.071-.073q0-6.779,0-13.553a5.95,5.95,0,0,0-1.992-4.72Z" transform="translate(-931.941 -71.594)" fill="#0fb2e3"/>
        <path id="Path_3809" data-name="Path 3809" d="M995.613,126.01a8.081,8.081,0,0,0-.146,1.346q0,6.714,0,13.418a.075.075,0,0,1-.076.074h-5.309a.073.073,0,0,1-.073-.074V128.4Z" transform="translate(-848.747 -108.03)" fill="#0fb2e3"/>
        <path id="Path_3810" data-name="Path 3810" d="M829.493,151.34q.041,5.041-.03,7.37a15.009,15.009,0,0,1-.81,4.338c-1.689,5.017-6.241,6.542-11.044,6.793h-1.781a20.922,20.922,0,0,1-9.656-2.771.119.119,0,0,1-.047-.156l1.965-3.971a.083.083,0,0,1,.111-.037l.007,0a15.149,15.149,0,0,0,10.159,2.366,6.281,6.281,0,0,0,5.645-6.214q.091-1.277.056-2.57a.071.071,0,0,0-.128-.04c-3.051,4.312-8.459,5.308-13.11,3.082q0-.177.114-.225,3.842-1.6,7.65-3.336a13.771,13.771,0,0,0,2.784-1.181Z" transform="translate(-691.09 -129.746)" fill="#0fb2e3"/>
      </g>
    </g>
  </g>
</svg>
