<svg xmlns="http://www.w3.org/2000/svg" xmlns:xlink="http://www.w3.org/1999/xlink" width="233" height="48" viewBox="0 0 233 48">
  <defs>
    <clipPath id="clip-path">
      <rect id="Rectangle_1551" data-name="Rectangle 1551" width="229.672" height="38.768" fill="none"/>
    </clipPath>
  </defs>
  <g id="Innovaccer" transform="translate(-3049 -1528)">
    <rect id="Rectangle_1524" data-name="Rectangle 1524" width="233" height="48" transform="translate(3049 1528)" fill="#fff" opacity="0"/>
    <g id="Group_6781" data-name="Group 6781" transform="translate(3051 1533)">
      <g id="Group_6780" data-name="Group 6780" transform="translate(0 0)" clip-path="url(#clip-path)">
        <path id="Path_3811" data-name="Path 3811" d="M.33,2.768A1.726,1.726,0,0,1,1.657.016Q10.4-.013,18.8.011a1.662,1.662,0,0,1,1.376,2.583l-8.5,12.787a1.783,1.783,0,0,1-2.975,0Q4.574,9.125.33,2.768" transform="translate(-0.006 0)" fill="#fbd2e4"/>
        <path id="Path_3812" data-name="Path 3812" d="M84.754,5.4A3.715,3.715,0,0,1,88.613,8.96a3.836,3.836,0,0,1-7.655.067,3.715,3.715,0,0,1,3.8-3.624" transform="translate(-41.732 -2.785)"/>
        <path id="Path_3813" data-name="Path 3813" d="M25.882,18.96,34.221,6.435a1.827,1.827,0,0,1,3.043,0L45.6,18.96A1.827,1.827,0,0,1,44.081,21.8H27.4a1.827,1.827,0,0,1-1.521-2.839" transform="translate(-13.184 -2.896)" fill="#f6a4c8"/>
        <path id="Path_3814" data-name="Path 3814" d="M106.847,27.955a.16.16,0,0,0,.3.082,5.725,5.725,0,0,1,4.22-2.786c11-1.89,8.838,13.32,8.794,19.429a.212.212,0,0,1-.242.237h-5.785a.223.223,0,0,1-.252-.252q-.02-4.642-.024-9.235c0-5.887-7.016-5.4-7.021-.2q0,4.71.015,9.434a.22.22,0,0,1-.252.252H100.79a.242.242,0,0,1-.242-.242v-18.9a.214.214,0,0,1,.242-.242h5.751a.27.27,0,0,1,.305.305Z" transform="translate(-51.83 -12.933)"/>
        <path id="Path_3815" data-name="Path 3815" d="M152.266,28.018q3.125-4.2,7.946-2.67c3.619,1.148,4.976,4.361,5.078,7.9q.165,5.669.136,11.343a.223.223,0,0,1-.252.252h-5.79a.245.245,0,0,1-.247-.242q-.044-5-.015-9.918c.019-3.7-5.034-5.005-6.6-1.613-1.047,2.287-.436,8.8-.422,11.512a.257.257,0,0,1-.252.262H146.04a.214.214,0,0,1-.242-.242V25.7a.242.242,0,0,1,.242-.242H151.8a.305.305,0,0,1,.305.305v0l-.029,2.185q-.005.325.189.063" transform="translate(-75.155 -12.855)"/>
        <path id="Path_3816" data-name="Path 3816" d="M209.975,35.354a10.679,10.679,0,0,1-21.325-.409,10.679,10.679,0,0,1,21.325.409m-6.442-.2a4.254,4.254,0,1,0-4.254,4.254,4.254,4.254,0,0,0,4.254-4.254" transform="translate(-97.243 -12.898)"/>
        <path id="Path_3817" data-name="Path 3817" d="M322.631,42.6a9.9,9.9,0,0,1-.615-14.366,10.834,10.834,0,0,1,16.333,1.085.36.36,0,0,1-.056.507.31.31,0,0,1-.036.026l-4.3,2.7a.265.265,0,0,1-.359-.039c-2.883-2.941-8.029-1.856-8.019,2.641.01,4.332,5.267,5.737,7.975,2.631a.246.246,0,0,1,.359-.053l4.39,2.762a.3.3,0,0,1,.094.414l-.012.017c-3.808,5.2-10.912,5.669-15.757,1.676" transform="translate(-164.55 -12.898)"/>
        <path id="Path_3818" data-name="Path 3818" d="M377.55,40.89c-5.872,7.694-19.27,4.608-19.2-5.819.063-9.9,13.649-13.775,19.163-5.6a.264.264,0,0,1-.072.366l-.011.007L373.034,32.6a.269.269,0,0,1-.383-.053c-3.542-3.988-9.778-.359-7.476,4.613,1.347,2.907,5.432,2.975,7.481.659a.293.293,0,0,1,.412-.063l4.414,2.747a.266.266,0,0,1,.082.368l-.014.02" transform="translate(-184.719 -12.907)"/>
        <path id="Path_3819" data-name="Path 3819" d="M404.153,37.165c1.589,3.673,6.517,2.893,9.056.809a.245.245,0,0,1,.344.039l2.883,3.6a.516.516,0,0,1-.088.724l-.009.007a13.393,13.393,0,0,1-11.59,2.394c-7.927-1.851-9.666-12.394-3.687-17.307,7.433-6.105,18.5-.683,17.1,9.322a.173.173,0,0,1-.194.17H404.308q-.257,0-.155.237m.15-3.833,7.6-.078a.078.078,0,0,0,.078-.078v-.048c-.016-1.584-1.739-2.851-3.851-2.83h-.108c-2.111.022-3.81,1.323-3.794,2.907v.048a.078.078,0,0,0,.077.078" transform="translate(-204.898 -12.816)"/>
        <path id="Path_3820" data-name="Path 3820" d="M449.481,28.85a.1.1,0,0,0,.179.044q2.616-5.141,8.314-3.406a.291.291,0,0,1,.2.344l-1.337,5.456a.257.257,0,0,1-.312.187.26.26,0,0,1-.047-.017c-8.256-3.963-6.89,9.56-6.88,13.189a.218.218,0,0,1-.247.252H443.54a.214.214,0,0,1-.242-.242v-18.9a.242.242,0,0,1,.242-.242h5.63a.271.271,0,0,1,.305.3Z" transform="translate(-228.509 -12.912)"/>
        <path id="Path_3821" data-name="Path 3821" d="M286.638,43.255a8.989,8.989,0,0,1-9.177,1.415c-8.629-3.285-7.874-17.365,1.647-19.328a9.186,9.186,0,0,1,7.583,1.885q.189.136.189-.1V25.875a.27.27,0,0,1,.305-.305h5.751a.242.242,0,0,1,.242.242v18.9a.214.214,0,0,1-.242.242h-5.814a.214.214,0,0,1-.242-.242V43.376q0-.305-.242-.121m-.063-8.116a4.351,4.351,0,1,0-4.351,4.351,4.351,4.351,0,0,0,4.351-4.351" transform="translate(-139.925 -12.966)"/>
        <path id="Path_3822" data-name="Path 3822" d="M82.55,26.013h5.795a.252.252,0,0,1,.252.252V45.142a.252.252,0,0,1-.252.252H82.55a.252.252,0,0,1-.252-.252V26.265a.252.252,0,0,1,.252-.252" transform="translate(-42.423 -13.409)"/>
        <path id="Path_3823" data-name="Path 3823" d="M240.366,36.988l4.026-10.878a.151.151,0,0,1,.141-.1h6.5a.15.15,0,0,1,.147.153.156.156,0,0,1-.012.055l-8.2,19.081a.15.15,0,0,1-.136.092H237.56a.15.15,0,0,1-.136-.092l-8.169-19.081a.15.15,0,0,1,.08-.2.154.154,0,0,1,.055-.012h6.522a.151.151,0,0,1,.141.1l4.031,10.878a.15.15,0,0,0,.281,0" transform="translate(-118.169 -13.409)"/>
        <path id="Path_3827" data-name="Path 3827" d="M34.836,57.247a1.3,1.3,0,0,1-.562-.465q-4.293-6.4-8.562-12.83a1.73,1.73,0,0,1,1.434-2.684q8.009-.029,16.086,0c2.258.01,3.416,1.134,2.016,3.261q-3.992,6.056-8.1,12.04a1.717,1.717,0,0,1-2.316.678" transform="translate(-13.106 -21.265)" fill="#ee629f"/>
        <path id="Path_3828" data-name="Path 3828" d="M.295,60.061l8.4-12.622a1.773,1.773,0,0,1,2.956,0l8.4,12.622a1.773,1.773,0,0,1-1.478,2.752H1.772A1.773,1.773,0,0,1,.295,60.061" transform="translate(0 -24.045)" fill="#e71f77"/>
      </g>
    </g>
  </g>
</svg>
