<svg xmlns="http://www.w3.org/2000/svg" width="183" height="48" viewBox="0 0 183 48">
  <g id="Jp_Morgan" data-name="Jp Morgan" transform="translate(-3162 -1388)">
    <rect id="Rectangle_1523" data-name="Rectangle 1523" width="183" height="48" transform="translate(3162 1388)" fill="#fff" opacity="0"/>
    <g id="logo-jpm-brown" transform="translate(3165 1393)">
      <path id="Path_3830" data-name="Path 3830" d="M18.673,1H8.377v.876h3.276V18.9c0,5.078-1.422,6.564-4.609,6.564a2.133,2.133,0,0,1-2.349-1.892,1.549,1.549,0,0,1,0-.419c0-1.854-.1-3-1.8-3S1,21.885,1,22.406c0,2.349,1.041,4.139,5.726,4.139,5.586,0,8.608-1.879,8.608-8.1V1.863h3.441Z" fill="#503629"/>
      <path id="Path_3831" data-name="Path 3831" d="M16.429,18a1.917,1.917,0,0,0-1.435.571,1.955,1.955,0,0,0-.584,1.435,1.892,1.892,0,0,0,.584,1.4,2.031,2.031,0,0,0,1.435.584,2.082,2.082,0,0,0,1.46-.584,1.892,1.892,0,0,0,.584-1.4A1.981,1.981,0,0,0,16.518,18h-.089" transform="translate(3.616 4.583)" fill="#503629"/>
      <path id="Path_3832" data-name="Path 3832" d="M34.429,18a1.968,1.968,0,0,0-2.019,1.93v.076a1.854,1.854,0,0,0,.635,1.4,2.057,2.057,0,0,0,1.435.584,1.981,1.981,0,0,0,1.447-.584,1.854,1.854,0,0,0,.609-1.4,1.9,1.9,0,0,0-.6-1.435A1.955,1.955,0,0,0,34.53,18" transform="translate(8.469 4.583)" fill="#503629"/>
      <path id="Path_3833" data-name="Path 3833" d="M30.652,1H20.5v.876h2.958V21.314a5.663,5.663,0,0,1-.267,2.349,2.031,2.031,0,0,1-1.27,1.143A6.081,6.081,0,0,1,20,25.123v.813H30.792v-.813a7.148,7.148,0,0,1-2.069-.292,2.069,2.069,0,0,1-1.27-1.143,3.555,3.555,0,0,1-.267-1.587V15.448h2.692c7.8,0,9.992-3.072,9.992-7.25S38.549,1,30.652,1m-1.4,13.458H27.211V1.99h1.854c6.018-.025,7.44,2.425,7.44,6.437s-2.361,6.12-7.148,6.12" transform="translate(5.123)" fill="#503629"/>
      <path id="Path_3834" data-name="Path 3834" d="M66.783,23.586a5.18,5.18,0,0,1-.216-1.7V1.863h2.679V1.05H62.81L55.141,20.031a.178.178,0,0,1-.152.114.2.2,0,0,1-.19-.114S46.736,1.279,46.647,1.05h-7.1v.787h3.111v21.05a2.641,2.641,0,0,1-.419,1.27,2.374,2.374,0,0,1-1.143.813,5.6,5.6,0,0,1-1.485.14v.813h7.034v-.813a4,4,0,0,1-1.27-.19,2.26,2.26,0,0,1-1.27-.8,2.666,2.666,0,0,1-.432-1.27L43.6,21.1V4.478h.419S53.2,25.668,53.2,25.909h.889L62.746,4.656h.229V21.783a6.26,6.26,0,0,1-.216,1.752A2.057,2.057,0,0,1,61.68,24.69a5.358,5.358,0,0,1-1.79.3v.813h9.84V25a5.294,5.294,0,0,1-1.828-.33,1.968,1.968,0,0,1-1.092-1.27" transform="translate(10.394 0.013)" fill="#503629"/>
      <path id="Path_3835" data-name="Path 3835" d="M73.278,6.25c-5.256,0-8.608,3.466-8.608,9.522,0,8.887,6.945,9.459,8.43,9.459,2.971,0,8.608-1.841,8.608-9.624,0-6.12-3.606-9.357-8.468-9.357m0,17.876c-3.961,0-4.571-1.955-4.571-8.265,0-4.888.3-8.557,4.571-8.557,4.583,0,4.609,3.809,4.609,8.214,0,6.348-1.092,8.557-4.609,8.557" transform="translate(17.167 1.416)" fill="#503629"/>
      <path id="Path_3836" data-name="Path 3836" d="M91.488,6.46c-3.149,0-4.114,1.854-5,3.733h-.241s-.457-2.73-.622-3.542H79.49v.927h3.3V19.931a6.145,6.145,0,0,1-.406,2.539c-.33.622-1.092.927-2.336.927H79.5v1.092H89.66V23.4h-.482c-1.346,0-1.917-.292-2.273-.876a5.193,5.193,0,0,1-.419-2.59V13.494c0-2.146,1.625-4.609,3.58-4.609s1.993,3.136,4.317,1.879c1.27-.686,1.041-4.279-2.869-4.279" transform="translate(21.163 1.472)" fill="#503629"/>
      <path id="Path_3837" data-name="Path 3837" d="M124.317,22.69c-1.092,0-1.447-.609-1.511-1.612V11.339a4.647,4.647,0,0,0-1.27-3.669c-.952-.94-2.755-1.435-5.383-1.435a9.332,9.332,0,0,0-5.6,1.371,3.339,3.339,0,0,0-1.612,2.869,1.473,1.473,0,0,0,.444,1.27,1.65,1.65,0,0,0,1.117.394c1.016,0,1.574-.521,1.8-1.841a3.466,3.466,0,0,1,.8-2.095,3.2,3.2,0,0,1,2.45-.813,3.123,3.123,0,0,1,2.692,1.028,4.317,4.317,0,0,1,.711,2.6v2.984c-3.263.292-10.97.9-10.627,6.754a4.7,4.7,0,0,0,4.812,4.228,8.011,8.011,0,0,0,5.967-2.946,3.39,3.39,0,0,0,3.466,2.73c2.374,0,3.809-1.168,3.961-4.05h-.622c-.152,1.27-.927,1.93-1.574,1.93M119,20.773a.114.114,0,0,1,0,.127v.076a6.6,6.6,0,0,1-4.063,2.146,2.793,2.793,0,0,1-2.895-2.692,2.323,2.323,0,0,1,0-.419c0-3.314,4.571-4.977,7.059-4.977Z" transform="translate(28.936 1.405)" fill="#503629"/>
      <path id="Path_3838" data-name="Path 3838" d="M141.211,22.507a4.736,4.736,0,0,1-.635-2.654V11.791a6.246,6.246,0,0,0-.6-3A4.494,4.494,0,0,0,138.19,7,5.79,5.79,0,0,0,135.5,6.42a6.348,6.348,0,0,0-5.8,3.441H129.3l-.635-3.225h-5.5v.927h2.78v12.29a8.228,8.228,0,0,1-.2,2.082,1.625,1.625,0,0,1-1.041,1.143,4.241,4.241,0,0,1-1.536.254v1.13h8.811V23.319a2.26,2.26,0,0,1-1.8-.749,4.71,4.71,0,0,1-.5-2.539V15.346a11.236,11.236,0,0,1,.673-5.078A3.961,3.961,0,0,1,133.9,8.287a2.539,2.539,0,0,1,2.463,1.27,12.531,12.531,0,0,1,.6,4.164v5.815a11.861,11.861,0,0,1,0,2.158,1.714,1.714,0,0,1-.774,1.27,2.882,2.882,0,0,1-1.409.368v1.143h8.494v-1.13c-1.066-.076-1.765-.33-2.082-.825" transform="translate(32.94 1.461)" fill="#503629"/>
      <path id="Path_3839" data-name="Path 3839" d="M109.593,5.689a1.727,1.727,0,0,0-1.054,1.4c-.14.724-.419,1.155-.787,1.27a2.044,2.044,0,0,1-1.27-.076,8.189,8.189,0,0,0-5.777-1.93,6.653,6.653,0,0,0-7.148,6.094q0,.4,0,.8c0,3.809,1.46,5.574,4.647,6.247.2,0,.2.254,0,.279-2.679.5-5.078,1.27-5.078,3.872a2.92,2.92,0,0,0,1.955,2.768,15.235,15.235,0,0,0,5.282.825,39.027,39.027,0,0,1,4.241.19,5.078,5.078,0,0,1,2.311.8,2.425,2.425,0,0,1,.876,2.057,3.187,3.187,0,0,1-1.917,2.857,9.916,9.916,0,0,1-4.825,1,7.948,7.948,0,0,1-4.431-.978,2.349,2.349,0,0,1-.927-2.539,1.46,1.46,0,0,0-.9-1.841H94.6a1.6,1.6,0,0,0-1.524.686,2.857,2.857,0,0,0-.394,1.638,3.669,3.669,0,0,0,2.946,3.453,15.363,15.363,0,0,0,4.913.724,12.468,12.468,0,0,0,5.6-1.041,5.8,5.8,0,0,0,3.555-5.294,5.269,5.269,0,0,0-.838-3.1c-1.777-2.438-4.291-2.108-9.954-2.387-2.717,0-3.25-.482-3.25-1.27,0-1.27,1-1.714,4.913-2.311s7.5-2.019,7.5-6.729a7.821,7.821,0,0,0-.711-3.339,4.177,4.177,0,0,0,2.235,0,2.539,2.539,0,0,0,1.587-1.27,1.943,1.943,0,0,0,.3-1.663c-.33-1.054-.965-1.435-1.93-1.143m-8.76,12.988c-2.311,0-3.695-.838-3.695-5.536,0-3.314,1.155-5.777,3.695-5.777,2.895,0,3.682,2.247,3.682,5.7,0,4.9-1.562,5.612-3.682,5.612" transform="translate(24.718 1.252)" fill="#503629"/>
    </g>
  </g>
</svg>
