<svg xmlns="http://www.w3.org/2000/svg" xmlns:xlink="http://www.w3.org/1999/xlink" width="122" height="48" viewBox="0 0 122 48">
  <defs>
    <clipPath id="clip-path">
      <rect id="Rectangle_1549" data-name="Rectangle 1549" width="118.316" height="38.555" fill="none"/>
    </clipPath>
  </defs>
  <g id="Myntra" transform="translate(-3012 -1342)">
    <rect id="Rectangle_1521" data-name="Rectangle 1521" width="122" height="48" transform="translate(3012 1342)" fill="#fff" opacity="0"/>
    <g id="Group_6777" data-name="Group 6777" transform="translate(3014 1347)">
      <g id="Group_6776" data-name="Group 6776" clip-path="url(#clip-path)">
        <path id="Path_3783" data-name="Path 3783" d="M561.069,79.7a8.967,8.967,0,0,1,5.56-.394,2.564,2.564,0,0,1,1.6,2.524c.02,2.169.059,4.357-.039,6.526h-1.873c-.079-.355-.138-.69-.217-1.025a4.381,4.381,0,0,1-4.219,1.025c-1.7-.67-1.912-3.214-.631-4.4,1.281-1.2,3.135-1.2,4.771-1.577-.1-.552-.177-1.262-.828-1.419-1.3-.394-2.622.2-3.864.552a18.234,18.234,0,0,1-.256-1.814m2.07,5.027A1.19,1.19,0,0,0,563.3,86.7c.946.355,1.873-.3,2.642-.808v-2.11a5.591,5.591,0,0,0-2.8.946" transform="translate(-449.934 -63.433)" fill="#231f20"/>
        <path id="Path_3784" data-name="Path 3784" d="M311.727,60.15c1.045-.059,2.11-.079,3.154-.039,1.242,3.174,2.05,6.506,3.391,9.641,1.1-3.194,2.129-6.427,3.233-9.621,1.045-.039,2.09-.039,3.154,0,.3,4.337.749,8.694.946,13.032h-2.425c-.3-3.1-.414-6.21-.729-9.325-1.242,3.056-2.129,6.23-3.253,9.325a22.17,22.17,0,0,1-2.287-.02c-1.1-3.1-1.972-6.269-3.273-9.286-.257,3.1-.394,6.191-.671,9.286H310.8c.178-4.337.651-8.655.927-12.992" transform="translate(-249.525 -48.243)" fill="#231f20"/>
        <path id="Path_3785" data-name="Path 3785" d="M493.163,64.109a16.834,16.834,0,0,1,2.228-.315c.02,1.045.02,2.09.02,3.154l1.833.059c.118.591.217,1.2.316,1.814-.71.039-1.42.059-2.129.079.02,1.6-.1,3.194.059,4.771.237.769,1.242.552,1.853.69.118.611.2,1.222.276,1.834a5.293,5.293,0,0,1-3.49-.394,2.453,2.453,0,0,1-.927-2.07c-.079-1.617.02-3.214-.039-4.83-.434-.039-.848-.079-1.262-.138.02-.572.039-1.163.059-1.735l1.242-.118a26.4,26.4,0,0,1-.039-2.8" transform="translate(-394.922 -51.217)" fill="#231f20"/>
        <path id="Path_3786" data-name="Path 3786" d="M392.9,79.87a16.117,16.117,0,0,1,2.366-.276c.71,2.09,1.36,4.219,2.09,6.309.749-2.031,1.341-4.12,1.991-6.191.749-.039,1.518-.059,2.267-.059-.848,2.78-1.952,5.481-2.9,8.221-.493,1.262-.808,2.7-1.833,3.667a3.65,3.65,0,0,1-3.154.611c-.1-.611-.2-1.2-.3-1.814a10.455,10.455,0,0,0,1.577-.059,1.508,1.508,0,0,0,1.005-1.853c-1.005-2.859-2.129-5.678-3.115-8.556" transform="translate(-315.44 -63.902)" fill="#231f20"/>
        <path id="Path_3787" data-name="Path 3787" d="M444.665,79.044c.631,0,1.281.02,1.912.02.079.394.177.789.256,1.183a4.6,4.6,0,0,1,3.49-1.38,2.291,2.291,0,0,1,2.109,2.248c.059,2.346.02,4.712.02,7.058-.73.02-1.459.02-2.169.039-.2-2.129.039-4.278-.118-6.427-.1-.887-1.183-1.1-1.873-.749-.572.3-1.36.69-1.321,1.459-.039,1.893.02,3.785,0,5.7q-1.154.03-2.307,0c0-3.056-.02-6.092,0-9.148" transform="translate(-356.991 -63.293)" fill="#231f20"/>
        <path id="Path_3788" data-name="Path 3788" d="M529.4,79.011h1.952c.079.532.158,1.065.256,1.6a4.852,4.852,0,0,1,2.918-1.814,10.677,10.677,0,0,1,.335,2.228c-1.2.276-2.583.769-3.135,1.972-.118,1.715.02,3.43-.04,5.146-.769.02-1.518,0-2.287-.02.019-3.016,0-6.053,0-9.108" transform="translate(-425.029 -63.26)" fill="#231f20"/>
        <path id="Path_3789" data-name="Path 3789" d="M11.77,3.469C12.894,2.148,14.1.709,15.792.177c1.912-.513,3.529,1.005,4.732,2.267a55.978,55.978,0,0,1,7.551,12.085,63.561,63.561,0,0,1,4.081-7.452,25.522,25.522,0,0,1,4.929-6.033C38.03.315,39.351-.375,40.515.236a14.241,14.241,0,0,1,4.12,3.785,59.738,59.738,0,0,1,6.25,10.528,55.061,55.061,0,0,1,4.949,14.846c.237,2.405.453,5.106-.986,7.2a5.1,5.1,0,0,1-5.126,1.873,9.324,9.324,0,0,1-4.16-3.016C43.019,32.293,41.5,28.468,40.081,24.7c-.217-.651-.453-1.3-.69-1.972-.158.67-.335,1.321-.552,1.972-1.439,3.825-2.977,7.709-5.6,10.883a9.156,9.156,0,0,1-4.022,2.859,6.4,6.4,0,0,1-5.934-2.366c-2.878-3.135-4.475-7.157-5.934-11.08-.276-.808-.572-1.617-.769-2.445-.237.848-.513,1.656-.828,2.484a36.245,36.245,0,0,1-5.244,10.291c-1.3,1.557-3.016,3.1-5.146,3.194a4.726,4.726,0,0,1-4.633-2.9c-1.084-2.484-.769-5.3-.276-7.906A60.119,60.119,0,0,1,5.6,13.465a59.305,59.305,0,0,1,6.171-10m1.124,1.084A57.731,57.731,0,0,0,6.8,14.648,54.4,54.4,0,0,0,1.853,28.941,13.767,13.767,0,0,0,1.7,33.16a4.388,4.388,0,0,0,1.912,3.43,3.505,3.505,0,0,0,3.726-.335,14.965,14.965,0,0,0,4.239-5.343A61.313,61.313,0,0,0,16.6,16.737a61.188,61.188,0,0,0,5.225,14.53,14.142,14.142,0,0,0,3.608,4.594,3.9,3.9,0,0,0,2.957,1.1A5.354,5.354,0,0,0,31.5,35.21a20.788,20.788,0,0,0,3.489-5.244,64.291,64.291,0,0,0,4.5-13.012c1.361,5.4,3.036,10.8,5.934,15.595,1.084,1.676,2.366,3.411,4.278,4.2a3.164,3.164,0,0,0,3.805-1.183,8.316,8.316,0,0,0,.867-5.067A33.138,33.138,0,0,0,52.5,22.455a71.416,71.416,0,0,0-6.92-14.432,25.483,25.483,0,0,0-4.5-5.658c-.651-.572-1.6-1.124-2.425-.552A14.631,14.631,0,0,0,34.9,5.756a66.246,66.246,0,0,0-6.7,12.283c-.059.059-.158.2-.217.256a12.606,12.606,0,0,0-.532-1.439A65.573,65.573,0,0,0,20.878,5.3,15.379,15.379,0,0,0,17.842,2.05a1.8,1.8,0,0,0-1.833-.375,10.078,10.078,0,0,0-3.115,2.878" transform="translate(0 0)" fill="#fefefe"/>
        <path id="Path_3790" data-name="Path 3790" d="M20.36,10.927a9.449,9.449,0,0,1,3.135-2.859,1.8,1.8,0,0,1,1.834.375A14.427,14.427,0,0,1,28.365,11.7,68.157,68.157,0,0,1,34.93,23.248a11.363,11.363,0,0,1,.532,1.439c-2.405-4.12-4.633-8.4-7.669-12.105a9.038,9.038,0,0,0-3.1-2.7,2.225,2.225,0,0,0-2.07.493,27.994,27.994,0,0,0-5.3,6.565A68.745,68.745,0,0,0,9.3,35.314a54.154,54.154,0,0,1,4.949-14.294A59.062,59.062,0,0,1,20.36,10.927" transform="translate(-7.466 -6.373)" fill="#9e242e"/>
        <path id="Path_3791" data-name="Path 3791" d="M153.49,8.313c.828-.572,1.774-.02,2.425.552a25.481,25.481,0,0,1,4.5,5.658,71.427,71.427,0,0,1,6.92,14.432A31.419,31.419,0,0,1,169.2,37a29.443,29.443,0,0,0-1.459-5.658,66.464,66.464,0,0,0-6.8-14.353,34.952,34.952,0,0,0-4.121-5.481,5.991,5.991,0,0,0-2.188-1.577c-.671-.217-1.3.256-1.834.591a20.368,20.368,0,0,0-3.687,4.12,75.382,75.382,0,0,0-5.185,8.556A7.6,7.6,0,0,1,143,24.519a66.223,66.223,0,0,1,6.7-12.283,14.944,14.944,0,0,1,3.785-3.923" transform="translate(-114.808 -6.48)" fill="#9e242e"/>
        <path id="Path_3792" data-name="Path 3792" d="M76.753,17.833a2.225,2.225,0,0,1,2.07-.493,9.038,9.038,0,0,1,3.1,2.7c3.036,3.706,5.244,7.985,7.669,12.105-1.518,4.3-3.312,8.635-3.411,13.249a10.1,10.1,0,0,0,.867,4.3A14.414,14.414,0,0,1,83.436,45.1a61.205,61.205,0,0,1-5.225-14.53,44.843,44.843,0,0,1-1.459-12.736" transform="translate(-61.572 -13.832)" fill="#ff912e"/>
        <path id="Path_3793" data-name="Path 3793" d="M192.584,17.962c.552-.335,1.163-.808,1.834-.591a5.927,5.927,0,0,1,2.188,1.577,34.951,34.951,0,0,1,4.12,5.481,66.9,66.9,0,0,1,6.8,14.353,32.664,32.664,0,0,1,1.459,5.658,8.315,8.315,0,0,1-.867,5.067,3.14,3.14,0,0,1-3.805,1.183c-1.912-.769-3.194-2.524-4.278-4.2A55.783,55.783,0,0,1,194.1,30.9a46.267,46.267,0,0,1-1.518-12.933" transform="translate(-154.574 -13.902)" fill="#f41cb2"/>
        <path id="Path_3794" data-name="Path 3794" d="M16.464,26.859a27.505,27.505,0,0,1,5.3-6.565A46.3,46.3,0,0,0,23.206,33.03a60.98,60.98,0,0,1-5.027,14.175,14.965,14.965,0,0,1-4.239,5.343,3.505,3.505,0,0,1-3.726.335A4.443,4.443,0,0,1,8.3,49.453a13.176,13.176,0,0,1,.158-4.219,68.34,68.34,0,0,1,8-18.375" transform="translate(-6.587 -16.293)" fill="#f41cb2"/>
        <path id="Path_3795" data-name="Path 3795" d="M134.4,24.714a19.853,19.853,0,0,1,3.687-4.12,46.764,46.764,0,0,0,1.5,12.913,64.723,64.723,0,0,1-4.5,13.012,20.794,20.794,0,0,1-3.49,5.244,5.461,5.461,0,0,1-3.115,1.755,3.915,3.915,0,0,1-2.957-1.1,10.1,10.1,0,0,1-.867-4.3c.1-4.613,1.893-8.951,3.411-13.249.059-.059.158-.2.217-.256a6.911,6.911,0,0,0,.927-1.321,75.662,75.662,0,0,1,5.185-8.576" transform="translate(-100.074 -16.534)" fill="#f25511"/>
      </g>
    </g>
  </g>
</svg>
