<svg xmlns="http://www.w3.org/2000/svg" width="121" height="48" viewBox="0 0 121 48">
  <g id="Oyo" transform="translate(-3187 -1496)">
    <rect id="Rectangle_1557" data-name="Rectangle 1557" width="121" height="48" transform="translate(3187 1496)" fill="#fff" opacity="0"/>
    <g id="OYO_Rooms_logo" transform="translate(3030.58 971.08)">
      <path id="Path_3840" data-name="Path 3840" d="M199.624,549.032a19.1,19.1,0,1,1-19.1-19.1,19.1,19.1,0,0,1,19.1,19.1Zm-12.316,0a6.785,6.785,0,1,0-6.785,6.785A6.785,6.785,0,0,0,187.308,549.033Z" transform="translate(0 -0.009)" fill="#ee2a24"/>
      <path id="Path_3841" data-name="Path 3841" d="M935.986,549.023a19.1,19.1,0,1,1-19.1-19.1A19.1,19.1,0,0,1,935.986,549.023Zm-12.314,0a6.787,6.787,0,1,0-6.787,6.787A6.787,6.787,0,0,0,923.672,549.024Z" transform="translate(-664.23)" fill="#ee2a24"/>
      <path id="Path_3842" data-name="Path 3842" d="M544.335,545.767l5.774-11.433a.15.15,0,0,1,.134-.083h13.614a.038.038,0,0,1,.034.056q-6.356,12.593-12.715,25.169a.9.9,0,0,0-.1.412q0,5.831,0,11.658a.049.049,0,0,1-.014.035.051.051,0,0,1-.036.015H537.584a.051.051,0,0,1-.051-.05q0-5.815,0-11.654a.906.906,0,0,0-.1-.412q-6.351-12.571-12.7-25.153a.053.053,0,0,1,.047-.076h13.589a.15.15,0,0,1,.134.082l5.776,11.434Q544.306,545.824,544.335,545.767Z" transform="translate(-327.716 -3.906)" fill="#ee2a24"/>
    </g>
  </g>
</svg>
