<svg xmlns="http://www.w3.org/2000/svg" xmlns:xlink="http://www.w3.org/1999/xlink" width="184" height="48" viewBox="0 0 184 48">
  <defs>
    <clipPath id="clip-path">
      <rect id="Rectangle_1558" data-name="Rectangle 1558" width="173.882" height="29.713" fill="none"/>
    </clipPath>
  </defs>
  <g id="Souq.com" transform="translate(-3210 -1557)">
    <rect id="Rectangle_1557" data-name="Rectangle 1557" width="184" height="48" transform="translate(3210 1557)" fill="#fff" opacity="0"/>
    <g id="Group_6861" data-name="Group 6861" transform="translate(3215 1566)">
      <g id="Group_6860" data-name="Group 6860" clip-path="url(#clip-path)">
        <path id="Path_3843" data-name="Path 3843" d="M902.545,29.421a2.413,2.413,0,0,1-2.889-.461l-1.381-1.377a.066.066,0,0,0-.088-.012A14.825,14.825,0,1,1,890.325,0a16.91,16.91,0,0,1,2.041.055,14.85,14.85,0,0,1,11.128,22.183.105.105,0,0,0,.017.127l3.047,3.035a.081.081,0,0,1,0,.129q-1.334,1.369-2.689,2.694a11.6,11.6,0,0,1-1.325,1.194m-7.422-15.443,2.7,2.7q.044.043.059-.016a7.48,7.48,0,1,0-5.322,5.352q.064-.018.026-.073a1.973,1.973,0,0,0-.222-.262q-1.63-1.645-2.593-2.586a.046.046,0,0,1,0-.075l5.233-5.045a.082.082,0,0,1,.116,0" transform="translate(-781.898 -0.001)" fill="#008cff"/>
        <path id="Path_3844" data-name="Path 3844" d="M313.422,15.139A14.839,14.839,0,1,1,298.583.3a14.839,14.839,0,0,1,14.839,14.839m-7.365,0a7.473,7.473,0,1,0-7.473,7.473A7.473,7.473,0,0,0,306.058,15.139Z" transform="translate(-253.325 -0.268)" fill="#008cff"/>
        <path id="Path_3845" data-name="Path 3845" d="M624.064,21.3a12.735,12.735,0,0,1-12.278,11.263,12.889,12.889,0,0,1-13.277-11.711q-.062-.658-.065-2.141-.015-7.492,0-14.975a.02.02,0,0,1,.019-.02q2.379.01,4.582.006a3.7,3.7,0,0,1,1.167.142,2.352,2.352,0,0,1,1.6,2.416q0,6.253,0,12.505a11.966,11.966,0,0,0,.133,2.136,5.541,5.541,0,0,0,5.359,4.446,5.484,5.484,0,0,0,5.442-4.786,10.541,10.541,0,0,0,.053-1.2q0-6.28,0-12.56,0-.015-.026-.575a2.4,2.4,0,0,1,2.6-2.526q2.368,0,4.721-.006a.052.052,0,0,1,.053.053q0,7.688,0,15.388,0,1.471-.072,2.141" transform="translate(-534.28 -3.321)" fill="#008cff"/>
        <path id="Path_3846" data-name="Path 3846" d="M16.824,24.3c-3.436-.8-5.759-1.293-8.634-1.959C4.45,21.479.636,19.82.086,15.467c-.671-5.306,2.641-9.094,7.8-9.821a16.562,16.562,0,0,1,2.141-.109q6.716-.008,13.434,0a2.3,2.3,0,0,1,2.477,2.5q0,2.193,0,4.39a.036.036,0,0,1-.035.036h0q-7.5-.017-15,.01c-.83,0-2.525-.081-2.527,1.187,0,1.221,1.371,1.523,2.284,1.726q4.141.921,8.283,1.846c3.276.731,6.6,2.213,7.666,5.678a9.377,9.377,0,0,1,.249,4.332c-.885,5.4-6.222,6.779-10.843,6.785q-6.427.009-12.854,0a3.428,3.428,0,0,1-1.114-.143C.744,33.413.508,32.384.507,31.064q0-1.952-.011-3.905A.048.048,0,0,1,.55,27.1q7.844.006,15.686.008c.876,0,2.48-.059,2.419-1.351-.043-.89-1.024-1.27-1.831-1.459" transform="translate(0 -4.938)" fill="#008cff"/>
        <path id="Path_3847" data-name="Path 3847" d="M1234,177.93a5.54,5.54,0,1,1,8.328-7.252.1.1,0,0,1-.016.137l-1.5,1.267a.053.053,0,0,1-.089-.011,3.436,3.436,0,0,0-4.615-1.078,3.483,3.483,0,0,0,1.037,6.309,3.746,3.746,0,0,0,3.857-1.5.068.068,0,0,1,.091-.01l1.529,1.1a.142.142,0,0,1,.034.2,5.852,5.852,0,0,1-8.657.844" transform="translate(-1100.224 -150.367)" fill="#008cff"/>
        <path id="Path_3848" data-name="Path 3848" d="M1478.734,170.178a.092.092,0,0,0,.129.016l.014-.014a4.565,4.565,0,0,1,7.874,1.788,9.865,9.865,0,0,1,.161,2.13q0,2.584,0,5.167a.052.052,0,0,1-.052.053h-1.952a.051.051,0,0,1-.057-.057q0-2.512,0-5.015a7.013,7.013,0,0,0-.167-1.894,2.5,2.5,0,0,0-4.864.917q-.03,1.782.01,5.979a.062.062,0,0,1-.07.071h-1.925a.049.049,0,0,1-.056-.056q-.007-2.86,0-5.713a3.749,3.749,0,0,0-.138-1.151,2.483,2.483,0,0,0-4.85.878q.008,3,0,5.99a.053.053,0,0,1-.054.053h-1.93a.106.106,0,0,1-.106-.105q0-2.61,0-5.248a9.425,9.425,0,0,1,.135-1.934,4.564,4.564,0,0,1,7.9-1.854" transform="translate(-1313.032 -150.503)" fill="#008cff"/>
        <path id="Path_3849" data-name="Path 3849" d="M1357.166,174.411a5.491,5.491,0,1,1-5.491-5.491A5.491,5.491,0,0,1,1357.166,174.411Zm-2.075,0a3.416,3.416,0,1,0-3.416,3.416A3.416,3.416,0,0,0,1355.091,174.409Z" transform="translate(-1201.867 -150.811)" fill="#008cff"/>
        <path id="Path_3850" data-name="Path 3850" d="M1185.639,241.7a1.6,1.6,0,1,1-1.6,1.6,1.6,1.6,0,0,1,1.6-1.6" transform="translate(-1057.108 -215.789)" fill="#008cff"/>
      </g>
    </g>
  </g>
</svg>
