<svg xmlns="http://www.w3.org/2000/svg" width="32" height="32" viewBox="0 0 32 32">
  <g id="Favicon" transform="translate(14219 -708)">
    <rect id="Rectangle_5097" data-name="Rectangle 5097" width="32" height="32" transform="translate(-14219 708)" fill="#fff" opacity="0"/>
    <g id="Group_6917" data-name="Group 6917" transform="translate(5 6.133)">
      <path id="Path_3896" data-name="Path 3896" d="M59.279,15.354,43.925,0a8.114,8.114,0,0,0,0,11.475L59.034,26.584l.245-.245a7.768,7.768,0,0,0,0-10.985" transform="translate(-14253.555 704.867)" fill="#ff9b46"/>
      <path id="Path_3897" data-name="Path 3897" d="M43.854,27.54,25.05,16.683a8.114,8.114,0,0,0,2.97,11.084l18.5,10.684.173-.3A7.768,7.768,0,0,0,43.854,27.54" transform="translate(-14241.045 693)" fill="#ff7b00"/>
      <path id="Path_3898" data-name="Path 3898" d="M31.022,44.126l-20.974-5.62a8.114,8.114,0,0,0,5.738,9.938l20.639,5.53.09-.335a7.768,7.768,0,0,0-5.493-9.514" transform="translate(-14230.95 677.477)" fill="#ff6b00"/>
      <path id="Path_3899" data-name="Path 3899" d="M21.713,63.98H0a8.114,8.114,0,0,0,8.114,8.114H29.481v-.346a7.768,7.768,0,0,0-7.768-7.768" transform="translate(-14224 659.356)" fill="#e25203"/>
    </g>
  </g>
</svg>
