<svg xmlns="http://www.w3.org/2000/svg" xmlns:xlink="http://www.w3.org/1999/xlink" width="168.302" height="38.56" viewBox="0 0 168.302 38.56">
  <defs>
    <clipPath id="clip-path">
      <rect id="Rectangle_1302" data-name="Rectangle 1302" width="168.302" height="38.56" transform="translate(0 0)" fill="none"/>
    </clipPath>
  </defs>
  <g id="Group_3738" data-name="Group 3738" transform="translate(0 0)">
    <g id="Group_3737" data-name="Group 3737" transform="translate(0 0)" clip-path="url(#clip-path)">
      <path id="Path_3053" data-name="Path 3053" d="M131.232,46.909l4.919.078a4.624,4.624,0,0,1-.366.978,3.9,3.9,0,0,1-1.627,1.651,5.325,5.325,0,0,1-2.562.571,5.024,5.024,0,0,1-2.623-.68,4.818,4.818,0,0,1-1.8-1.894,5.838,5.838,0,0,1-.656-2.817,5.68,5.68,0,0,1,.668-2.805,4.744,4.744,0,0,1,1.858-1.87,5.412,5.412,0,0,1,2.7-.668,5.788,5.788,0,0,1,2.526.534,5.386,5.386,0,0,1,1.943,1.6l2.6-2.6a8.217,8.217,0,0,0-3-2.21,9.819,9.819,0,0,0-4.019-.8,9.621,9.621,0,0,0-3.594.668,8.968,8.968,0,0,0-2.926,1.87,8.706,8.706,0,0,0-1.955,2.805,8.533,8.533,0,0,0-.7,3.473,8.752,8.752,0,0,0,5.452,8.184,9.071,9.071,0,0,0,3.509.68,9.24,9.24,0,0,0,4.505-1.069,7.471,7.471,0,0,0,3.06-3.169,11.041,11.041,0,0,0,1.105-5.185v-.559h-9.01Z" transform="translate(-71.27 -20.914)" fill="#0c0c0c"/>
      <path id="Path_3054" data-name="Path 3054" d="M166.11,39.945h5.367V53.764h3.813V39.945h5.367V36.618H166.11Z" transform="translate(-96.555 -21.285)" fill="#0c0c0c"/>
      <path id="Path_3055" data-name="Path 3055" d="M214.734,46.054l-6.058-9.436h-2.72V53.764h3.789V44.251l3.716,5.821h2.526l3.716-5.789v9.48h3.813V36.618H220.77Z" transform="translate(-119.716 -21.285)" fill="#0c0c0c"/>
      <path id="Path_3056" data-name="Path 3056" d="M268.839,36.618l-6.8,17.146H266l1.141-3.109h6.721l1.125,3.109h4.032l-6.727-17.146Zm-.56,10.929,2.243-6.114,2.212,6.114Z" transform="translate(-152.316 -21.285)" fill="#0c0c0c"/>
      <path id="Path_3057" data-name="Path 3057" d="M310.744,36.618h-3.813V53.764h11.415V50.412h-7.6Z" transform="translate(-178.41 -21.285)" fill="#0c0c0c"/>
      <path id="Path_3058" data-name="Path 3058" d="M343.282,36.618h-3.813V53.764h11.415V50.412h-7.6Z" transform="translate(-197.323 -21.285)" fill="#0c0c0c"/>
      <path id="Path_3059" data-name="Path 3059" d="M379.65,36.618h-4.323l-3.655,6.261-3.655-6.261H363.6l6.145,10.008v7.139h3.812V46.473Z" transform="translate(-211.348 -21.285)" fill="#0c0c0c"/>
      <path id="Path_3060" data-name="Path 3060" d="M67.267,22.271,45,0a11.77,11.77,0,0,0,0,16.645L66.911,38.56l.355-.355a11.267,11.267,0,0,0,0-15.934" transform="translate(-24.151 0)" fill="#ff9b46"/>
      <path id="Path_3061" data-name="Path 3061" d="M52.816,32.431,25.54,16.683a11.769,11.769,0,0,0,4.308,16.078l26.841,15.5.251-.435a11.267,11.267,0,0,0-4.124-15.391" transform="translate(-13.928 -9.697)" fill="#ff7b00"/>
      <path id="Path_3062" data-name="Path 3062" d="M40.6,46.657,10.174,38.506A11.769,11.769,0,0,0,18.5,52.92l29.937,8.022.13-.485a11.267,11.267,0,0,0-7.967-13.8" transform="translate(-5.679 -22.382)" fill="#ff6b00"/>
      <path id="Path_3063" data-name="Path 3063" d="M31.5,63.98H0A11.77,11.77,0,0,0,11.77,75.75H42.762v-.5A11.267,11.267,0,0,0,31.5,63.98" transform="translate(0 -37.19)" fill="#e25203"/>
    </g>
  </g>
</svg>
