<svg xmlns="http://www.w3.org/2000/svg" width="570" height="600" viewBox="0 0 570 600">
  <g id="Image_Place_holder" data-name="Image Place holder" transform="translate(-599 -2891.866)">
    <rect id="Rectangle_1330" data-name="Rectangle 1330" width="570" height="600" rx="8" transform="translate(599 2891.866)" fill="#e4e4e4"/>
    <path id="image_FILL0_wght400_GRAD0_opsz48" d="M125.9-769.167a5.663,5.663,0,0,1-4.132-1.771A5.663,5.663,0,0,1,120-775.07V-834.1a5.663,5.663,0,0,1,1.771-4.132A5.663,5.663,0,0,1,125.9-840H184.93a5.663,5.663,0,0,1,4.132,1.771,5.663,5.663,0,0,1,1.771,4.132v59.028a5.663,5.663,0,0,1-1.771,4.132,5.663,5.663,0,0,1-4.132,1.771Zm0-5.9H184.93V-834.1H125.9Zm5.509-9.543h48.107l-14.462-19.282-12.986,16.823-9.149-12.494ZM125.9-775.07v0Z" transform="translate(728.933 3996.314)" fill="#fcfbfa"/>
  </g>
</svg>
